# Blender v2.76 (sub 0) OBJ File: 'pinball.blend'
# www.blender.org
o screen_Cube.001
v -4.913091 -0.059743 -10.304335
v -4.913091 10.905261 -10.304335
v -4.913091 -0.059743 -12.304335
v -4.913091 10.905261 -12.304335
v 4.862860 -0.059743 -10.304335
v 4.862860 10.905261 -10.304335
v 4.862860 -0.059743 -12.304335
v 4.862860 10.905261 -12.304335
vt 0.227719 0.966088
vt 0.228029 0.869660
vt 0.209991 0.869661
vt 0.995409 1.003309
vt 0.996265 -0.007725
vt 0.008144 -0.007725
vt 0.954070 0.681641
vt 0.954070 0.585203
vt 0.972130 0.585203
vt 0.013016 1.003309
vt 0.013016 -0.007725
vt 0.999301 -0.007725
vt 0.248253 0.952637
vt 0.248602 0.922858
vt 0.237697 0.922776
vt 0.472666 0.173793
vt 0.471782 0.249160
vt 0.444184 0.248952
vt 0.209680 0.966089
vt 0.006872 1.003309
vt 0.972130 0.681641
vt 0.999301 1.003309
vt 0.237348 0.952555
vt 0.445067 0.173586
vn -1.000000 0.000000 0.000000
vn 0.000000 0.000000 -1.000000
vn 1.000000 0.000000 0.000000
vn 0.000000 0.000000 1.000000
vn 0.000000 -1.000000 0.000000
vn 0.000000 1.000000 0.000000
s off
f 4/1/1 3/2/1 1/3/1
f 8/4/2 7/5/2 3/6/2
f 6/7/3 5/8/3 7/9/3
f 2/10/4 1/11/4 5/12/4
f 3/13/5 7/14/5 5/15/5
f 8/16/6 4/17/6 2/18/6
f 2/19/1 4/1/1 1/3/1
f 4/20/2 8/4/2 3/6/2
f 8/21/3 6/7/3 7/9/3
f 6/22/4 2/10/4 5/12/4
f 1/23/5 3/13/5 5/15/5
f 6/24/6 8/16/6 2/18/6
