# Blender v2.76 (sub 0) OBJ File: 'pinball.blend'
# www.blender.org
o bottom_bumper_l.003_Circle.005
v 2.410276 0.121275 6.840358
v 2.245984 0.105867 6.880414
v 2.182686 0.093647 6.957743
v 2.207111 0.085838 7.051265
v 2.300331 0.085020 7.122708
v 3.578873 0.214500 6.716668
v 3.671938 0.243325 6.496026
v 3.258234 0.258822 6.062095
v 3.730941 0.459332 4.408522
v 3.877532 0.464333 4.458933
v 3.847046 0.463636 4.445067
v 3.820026 0.461650 4.446263
v 3.795991 0.460405 4.442177
v 3.775611 0.459845 4.433836
v 3.759260 0.459896 4.422221
v 3.747049 0.460484 4.408126
v 2.592455 0.142304 6.757095
v 3.147038 0.225962 6.310152
v 2.413740 0.310049 6.908010
v 2.261458 0.295768 6.945138
v 2.224998 0.288729 6.989681
v 2.238514 0.284408 7.041434
v 2.296718 0.283897 7.086041
v 3.534379 0.409810 6.638905
v 3.614399 0.431841 6.455798
v 3.276564 0.422152 6.135043
v 3.736872 0.503719 4.424685
v 3.871607 0.526542 4.480364
v 3.861557 0.524953 4.475234
v 3.834308 0.519906 4.475546
v 3.799898 0.513573 4.467515
v 3.771809 0.508816 4.454153
v 3.750326 0.505525 4.437450
v 3.739860 0.504260 4.424734
v 2.608706 0.332271 6.820199
v 3.165501 0.398885 6.378794
v 2.232696 0.298370 6.899958
v 2.396987 0.313777 6.859901
v 2.169398 0.286150 6.977286
v 2.193823 0.278341 7.070808
v 2.287043 0.277522 7.142252
v 3.568279 0.407679 6.698434
v 3.659638 0.432958 6.492716
v 3.899723 0.532310 4.474964
v 3.245220 0.421834 6.084703
v 3.727939 0.502811 4.412936
v 3.745263 0.505825 4.412687
v 3.863496 0.526580 4.457908
v 3.831147 0.519941 4.458546
v 3.802397 0.514585 4.452903
v 3.778202 0.510449 4.442411
v 3.759117 0.507507 4.428567
v 2.578791 0.334492 6.777423
v 3.133329 0.399655 6.333302
v 2.405364 0.311913 6.883956
v 2.247077 0.297069 6.922548
v 2.197198 0.287439 6.983484
v 2.216168 0.281374 7.056121
v 2.291881 0.280710 7.114147
v 3.551223 0.408739 6.668998
v 3.636899 0.432392 6.474523
v 3.884510 0.528988 4.477368
v 3.732331 0.503223 4.418706
v 3.260647 0.421984 6.109963
v 3.742563 0.505043 4.418708
v 3.861768 0.525384 4.466217
v 3.832673 0.519903 4.466921
v 3.801129 0.514062 4.460147
v 3.774990 0.509615 4.448268
v 3.754683 0.506478 4.433013
v 2.594049 0.333415 6.798172
v 3.151157 0.399459 6.349863
vt 0.000000 0.000000
vt 0.540738 0.610780
vt 0.565135 0.637801
vt 0.613505 0.570029
vt 0.577187 0.709782
vt 0.574886 0.741996
vt 0.579827 0.740735
vt 0.585241 0.758104
vt 0.587987 0.753427
vt 0.603649 0.759254
vt 0.622058 0.746598
vt 0.617235 0.744042
vt 0.623208 0.565966
vt 0.618357 0.567997
vt 0.594445 0.538001
vt 0.389907 0.399778
vt 0.390506 0.406023
vt 0.335446 0.477887
vt 0.329806 0.479916
vt 0.534344 0.618139
vt 0.333801 0.466333
vt 0.378721 0.410968
vt 0.383290 0.413242
vt 0.376656 0.425789
vt 0.370601 0.439552
vt 0.374766 0.442101
vt 0.360970 0.451364
vt 0.364322 0.454910
vt 0.348418 0.460475
vt 0.350775 0.464743
vt 0.337780 0.469951
vt 0.573192 0.672230
vt 0.582044 0.709697
vt 0.557213 0.643466
vt 0.577899 0.670740
vt 0.561174 0.640634
vt 0.537541 0.614459
vt 0.582607 0.669250
vt 0.586901 0.709613
vt 0.341760 0.473569
vt 0.353131 0.469012
vt 0.367674 0.458456
vt 0.381355 0.427123
vt 0.378931 0.444650
vt 0.387858 0.415516
vt 0.391105 0.412268
vt 0.341086 0.475859
vt 0.591380 0.541770
vt 0.612413 0.741486
vt 0.602284 0.754321
vt 0.590732 0.748751
vt 0.584768 0.739473
vt 0.600919 0.749388
vt 0.588315 0.545538
vt 0.386055 0.428456
vn -0.243300 0.081300 -0.966500
vn -0.418500 0.066100 -0.905800
vn -0.031400 0.098800 -0.994600
vn -0.774600 0.010700 -0.632300
vn -0.628100 0.053900 -0.776300
vn 0.414400 0.078500 -0.906700
vn -0.965300 -0.091500 0.244500
vn -0.911500 -0.017200 -0.410900
vn -0.063400 0.215400 -0.974500
vn -0.604500 -0.121700 0.787300
vn 0.158300 0.174600 -0.971800
vn 0.315800 0.106300 0.942900
vn 0.374200 0.137300 -0.917100
vn 0.906200 0.088700 0.413400
vn 0.572700 0.108400 -0.812500
vn 0.990400 0.066400 0.121100
vn 0.745700 0.090200 -0.660100
vn -0.959600 -0.037900 -0.278900
vn -0.073000 0.995400 0.061700
vn -0.068500 0.992500 0.100800
vn -0.065800 0.992700 0.101300
vn -0.084300 0.992800 0.084600
vn -0.209800 0.977500 0.023200
vn -0.113400 0.993400 0.015400
vn -0.170200 0.983600 0.059400
vn -0.198300 0.975700 0.093400
vn -0.198200 0.975100 0.099200
vn -0.190200 0.981000 0.037600
vn -0.184600 0.982100 0.038600
vn -0.183500 0.982000 0.044300
vn -0.175500 0.983300 0.049000
vn -0.067500 0.992600 0.100400
vn -0.047600 0.995100 0.086600
vn -0.050500 0.996500 0.066200
vn -0.077400 0.995300 0.058100
vn -0.049700 0.995200 0.084800
vn -0.067500 0.992700 0.100400
vn -0.174700 0.983400 0.049400
vn -0.178700 0.983300 0.035600
vn -0.182900 0.982500 0.034600
vn -0.188900 0.981400 0.033600
vn -0.184000 0.982000 0.042700
vn -0.176600 0.983400 0.042400
vn -0.174900 0.983200 0.051300
vn -0.125100 0.992100 0.012800
vn -0.180600 0.983200 0.025200
vn -0.085400 0.992900 0.083100
vn -0.065100 0.992700 0.101400
vn -0.420800 0.062800 -0.905000
vn -0.031500 0.098800 -0.994600
vn -0.774600 0.010700 -0.632400
vn -0.630500 0.037200 -0.775300
vn 0.411300 0.077800 -0.908200
vn -0.911300 -0.015700 -0.411500
vn -0.059100 0.216600 -0.974500
vn -0.604400 -0.121700 0.787300
vn 0.156300 0.174000 -0.972300
vn 0.308700 -0.075000 0.948200
vn 0.372000 0.136500 -0.918100
vn 0.916200 0.066300 0.395100
vn 0.575800 0.109700 -0.810200
vn 0.944600 -0.322600 0.060300
vn 0.754300 0.095100 -0.649600
vn -0.062000 0.992200 0.107800
vn -0.178100 0.983700 0.024000
vn -0.178800 0.982600 0.049500
vn -0.181300 0.982100 0.051000
vn -0.141500 0.989900 0.009100
vn -0.186100 0.982300 0.023000
vn -0.155300 0.987800 0.005200
vn -0.062000 0.997500 0.035200
vn -0.167600 0.985800 0.001400
vn -0.067400 0.992500 0.101500
vn -0.100200 0.992100 0.075600
vn -0.071700 0.995600 0.059800
vn -0.073400 0.994200 0.078300
vn -0.089700 0.992700 0.081200
vn -0.057700 0.997500 0.041100
vn -0.060500 0.997700 0.031000
vn -0.174900 0.983400 0.049300
vn -0.202500 0.974300 0.098200
vn -0.184100 0.982200 0.038000
vn -0.190000 0.981000 0.039100
vn -0.181900 0.982500 0.040100
vn -0.176800 0.982900 0.051200
vn -0.067200 0.992600 0.101000
vn -0.058200 0.995500 0.074400
vn -0.093000 0.994400 0.050900
vn -0.093200 0.994300 0.052500
vn -0.074300 0.995600 0.056600
vn -0.069200 0.992800 0.097600
vn -0.171300 0.984300 0.043100
vn -0.179100 0.983100 0.036700
vn -0.182900 0.982500 0.034700
vn -0.188900 0.981400 0.035500
vn -0.181600 0.982800 0.034100
vn -0.177400 0.983200 0.042900
vn -0.178900 0.982700 0.047400
vn -0.060000 0.997700 0.031400
vn -0.058000 0.997500 0.040300
vn -0.090700 0.992700 0.079800
vn -0.073500 0.994400 0.076500
s off
f 37/1/1 38/1/1 1/1/1
f 38/1/2 53/1/2 17/1/2
f 46/1/3 47/1/3 16/1/3
f 39/1/4 37/1/4 2/1/4
f 53/1/5 54/1/5 18/1/5
f 48/1/6 44/1/6 10/1/6
f 40/1/7 39/1/7 3/1/7
f 8/1/8 18/1/8 54/1/8
f 49/1/9 48/1/9 11/1/9
f 41/1/10 40/1/10 4/1/10
f 50/1/11 49/1/11 12/1/11
f 6/1/12 42/1/12 41/1/12
f 51/1/13 50/1/13 13/1/13
f 43/1/14 42/1/14 6/1/14
f 52/1/15 51/1/15 14/1/15
f 44/1/16 43/1/16 7/1/16
f 47/1/17 52/1/17 15/1/17
f 45/1/18 46/1/18 9/1/18
f 26/2/19 36/3/19 24/4/19
f 38/5/20 37/6/20 56/7/20
f 37/6/20 39/8/20 57/9/20
f 57/9/20 39/8/20 40/10/20
f 40/10/20 41/11/20 59/12/20
f 59/12/21 41/11/21 42/13/21
f 60/14/22 42/13/22 43/15/22
f 43/15/23 44/16/23 62/17/23
f 63/18/24 46/19/24 45/20/24
f 47/21/25 46/19/25 63/18/25
f 62/17/26 44/16/26 48/22/26
f 66/23/27 48/22/27 49/24/27
f 49/24/28 50/25/28 68/26/28
f 50/25/29 51/27/29 69/28/29
f 51/27/30 52/29/30 70/30/30
f 52/29/31 47/21/31 65/31/31
f 53/32/32 38/5/32 55/33/32
f 54/34/33 53/32/33 71/35/33
f 45/20/34 54/34/34 72/36/34
f 64/37/35 72/36/35 36/3/35
f 72/36/36 71/35/36 35/38/36
f 71/35/37 55/33/37 19/39/37
f 70/30/38 65/31/38 34/40/38
f 69/28/39 70/30/39 33/41/39
f 68/26/40 69/28/40 32/42/40
f 67/43/41 68/26/41 31/44/41
f 29/45/42 66/23/42 67/43/42
f 28/46/43 62/17/43 66/23/43
f 65/31/44 63/18/44 27/47/44
f 27/47/45 63/18/45 64/37/45
f 61/48/46 62/17/46 28/46/46
f 24/4/47 60/14/47 61/48/47
f 23/49/48 59/12/48 60/14/48
f 58/50/20 59/12/20 23/49/20
f 21/51/20 57/9/20 58/50/20
f 56/7/20 57/9/20 21/51/20
f 55/33/20 56/7/20 20/52/20
f 2/1/1 37/1/1 1/1/1
f 1/1/49 38/1/49 17/1/49
f 9/1/50 46/1/50 16/1/50
f 3/1/51 39/1/51 2/1/51
f 17/1/52 53/1/52 18/1/52
f 11/1/53 48/1/53 10/1/53
f 4/1/7 40/1/7 3/1/7
f 45/1/54 8/1/54 54/1/54
f 12/1/55 49/1/55 11/1/55
f 5/1/56 41/1/56 4/1/56
f 13/1/57 50/1/57 12/1/57
f 5/1/58 6/1/58 41/1/58
f 14/1/59 51/1/59 13/1/59
f 7/1/60 43/1/60 6/1/60
f 15/1/61 52/1/61 14/1/61
f 10/1/62 44/1/62 7/1/62
f 16/1/63 47/1/63 15/1/63
f 8/1/18 45/1/18 9/1/18
f 19/39/20 20/52/20 23/49/20
f 21/51/20 22/53/20 20/52/20
f 23/49/64 24/4/64 35/38/64
f 25/54/65 28/46/65 30/55/65
f 33/41/66 34/40/66 27/47/66
f 28/46/67 29/45/67 30/55/67
f 33/41/68 27/47/68 26/2/68
f 25/54/69 30/55/69 31/44/69
f 32/42/70 33/41/70 26/2/70
f 25/54/71 31/44/71 26/2/71
f 22/53/20 23/49/20 20/52/20
f 31/44/72 32/42/72 26/2/72
f 19/39/73 23/49/73 35/38/73
f 25/54/74 26/2/74 24/4/74
f 35/38/75 24/4/75 36/3/75
f 55/33/20 38/5/20 56/7/20
f 56/7/20 37/6/20 57/9/20
f 58/50/20 57/9/20 40/10/20
f 58/50/20 40/10/20 59/12/20
f 60/14/76 59/12/76 42/13/76
f 61/48/77 60/14/77 43/15/77
f 61/48/78 43/15/78 62/17/78
f 64/37/79 63/18/79 45/20/79
f 65/31/80 47/21/80 63/18/80
f 66/23/81 62/17/81 48/22/81
f 67/43/82 66/23/82 49/24/82
f 67/43/83 49/24/83 68/26/83
f 68/26/29 50/25/29 69/28/29
f 69/28/84 51/27/84 70/30/84
f 70/30/85 52/29/85 65/31/85
f 71/35/86 53/32/86 55/33/86
f 72/36/87 54/34/87 71/35/87
f 64/37/88 45/20/88 72/36/88
f 26/2/89 64/37/89 36/3/89
f 36/3/90 72/36/90 35/38/90
f 35/38/91 71/35/91 19/39/91
f 33/41/92 70/30/92 34/40/92
f 32/42/93 69/28/93 33/41/93
f 31/44/94 68/26/94 32/42/94
f 30/55/95 67/43/95 31/44/95
f 30/55/96 29/45/96 67/43/96
f 29/45/97 28/46/97 66/23/97
f 34/40/98 65/31/98 27/47/98
f 26/2/99 27/47/99 64/37/99
f 25/54/100 61/48/100 28/46/100
f 25/54/101 24/4/101 61/48/101
f 24/4/102 23/49/102 60/14/102
f 22/53/20 58/50/20 23/49/20
f 22/53/20 21/51/20 58/50/20
f 20/52/20 56/7/20 21/51/20
f 19/39/20 55/33/20 20/52/20
