# Blender v2.76 (sub 0) OBJ File: 'pinball.blend'
# www.blender.org
o bottom_bumper_r_Circle.019
v 3.187349 -0.000000 5.884153
v 3.172682 -0.000000 5.678807
v 3.238685 -0.000000 5.576135
v 3.356026 -0.000000 5.568801
v 3.473366 -0.000000 5.649472
v 3.480700 -0.000000 6.800874
v 3.297356 -0.000000 6.979125
v 2.914257 -0.000000 6.468308
v 1.610476 -0.000000 7.349380
v 1.993574 -0.000000 7.860196
v 1.922274 -0.000000 7.788871
v 1.909110 -0.000000 7.694395
v 1.870517 -0.000000 7.606668
v 1.809123 -0.000000 7.531374
v 1.729113 -0.000000 7.473298
v 1.635940 -0.000000 7.435959
v 3.161885 -0.000000 6.123519
v 3.060027 -0.000000 6.306863
v 3.249267 0.235139 5.885227
v 3.235671 0.235139 5.694892
v 3.273691 0.235139 5.635751
v 3.338624 0.235139 5.631693
v 3.411889 0.235139 5.682062
v 3.418850 0.235139 6.774975
v 3.258282 0.235139 6.931083
v 2.955011 0.235139 6.515215
v 1.682377 0.235139 7.375237
v 2.001212 0.235139 7.780587
v 1.980514 0.235139 7.759883
v 1.969022 0.235139 7.677398
v 1.923609 0.235139 7.574172
v 1.851855 0.235139 7.486171
v 1.759158 0.235139 7.418886
v 1.686671 0.235139 7.389837
v 3.221896 0.235139 6.142514
v 3.110528 0.235139 6.342975
v 3.172682 0.235139 5.678807
v 3.187349 0.235139 5.884153
v 3.238685 0.235139 5.576135
v 3.356026 0.235139 5.568801
v 3.473366 0.235139 5.649472
v 3.480700 0.235139 6.800874
v 3.297356 0.235139 6.979125
v 1.993574 0.235139 7.860196
v 2.914257 0.235139 6.468308
v 1.610476 0.235139 7.349380
v 1.635940 0.235139 7.435959
v 1.922274 0.235139 7.788871
v 1.909110 0.235139 7.694395
v 1.870517 0.235139 7.606668
v 1.809123 0.235139 7.531374
v 1.729113 0.235139 7.473298
v 3.161885 0.235139 6.123519
v 3.060027 0.235139 6.306863
v 3.218308 0.235139 5.884690
v 3.204176 0.235139 5.686850
v 3.256188 0.235139 5.605943
v 3.347325 0.235139 5.600247
v 3.442627 0.235139 5.665767
v 3.449775 0.235139 6.787925
v 3.277819 0.235139 6.955104
v 1.997393 0.235139 7.820392
v 1.646426 0.235139 7.362309
v 2.934634 0.235139 6.491762
v 1.661306 0.235139 7.412898
v 1.951394 0.235139 7.774377
v 1.939066 0.235139 7.685896
v 1.897063 0.235139 7.590420
v 1.830489 0.235139 7.508773
v 1.744136 0.235139 7.446092
v 3.191890 0.235139 6.133017
v 3.085278 0.235139 6.324919
vt 0.000000 0.000000
vt 0.386055 0.428456
vt 0.588315 0.545538
vt 0.378931 0.444650
vt 0.579827 0.740735
vt 0.574886 0.741996
vt 0.577187 0.709782
vt 0.587987 0.753427
vt 0.585241 0.758104
vt 0.602284 0.754321
vt 0.603649 0.759254
vt 0.617235 0.744042
vt 0.622058 0.746598
vt 0.618357 0.567997
vt 0.623208 0.565966
vt 0.591380 0.541770
vt 0.594445 0.538001
vt 0.390506 0.406023
vt 0.389907 0.399778
vt 0.335446 0.477887
vt 0.537541 0.614459
vt 0.534344 0.618139
vt 0.329806 0.479916
vt 0.333801 0.466333
vt 0.383290 0.413242
vt 0.378721 0.410968
vt 0.381355 0.427123
vt 0.376656 0.425789
vt 0.374766 0.442101
vt 0.370601 0.439552
vt 0.364322 0.454910
vt 0.360970 0.451364
vt 0.350775 0.464743
vt 0.348418 0.460475
vt 0.337780 0.469951
vt 0.582044 0.709697
vt 0.573192 0.672230
vt 0.561174 0.640634
vt 0.577899 0.670740
vt 0.557213 0.643466
vt 0.565135 0.637801
vt 0.582607 0.669250
vt 0.586901 0.709613
vt 0.341760 0.473569
vt 0.353131 0.469012
vt 0.367674 0.458456
vt 0.387858 0.415516
vt 0.391105 0.412268
vt 0.341086 0.475859
vt 0.540738 0.610780
vt 0.613505 0.570029
vt 0.612413 0.741486
vt 0.590732 0.748751
vt 0.600919 0.749388
vt 0.584768 0.739473
vn -0.997500 0.000000 0.071200
vn -0.994400 0.000000 -0.105800
vn -0.959400 0.000000 0.282200
vn -0.841200 0.000000 -0.540800
vn -0.874200 0.000000 -0.485600
vn -0.707200 0.000000 0.707000
vn -0.062400 0.000000 -0.998100
vn -0.742200 0.000000 -0.670200
vn -0.990400 0.000000 0.138000
vn 0.566500 0.000000 -0.824000
vn -0.915300 0.000000 0.402700
vn 1.000000 0.000000 -0.006400
vn -0.775000 0.000000 0.631900
vn 0.697100 0.000000 0.717000
vn -0.587400 0.000000 0.809300
vn 0.559900 0.000000 0.828500
vn -0.372000 0.000000 0.928200
vn -0.559900 0.000000 -0.828500
vn -0.000000 1.000000 0.000000
s off
f 1/1/1 38/1/1 37/1/1
f 17/1/2 53/1/2 38/1/2
f 16/1/3 47/1/3 46/1/3
f 2/1/4 37/1/4 39/1/4
f 18/1/5 54/1/5 53/1/5
f 10/1/6 44/1/6 48/1/6
f 3/1/7 39/1/7 40/1/7
f 8/1/8 45/1/8 54/1/8
f 11/1/9 48/1/9 49/1/9
f 4/1/10 40/1/10 41/1/10
f 12/1/11 49/1/11 50/1/11
f 5/1/12 41/1/12 42/1/12
f 13/1/13 50/1/13 51/1/13
f 6/1/14 42/1/14 43/1/14
f 14/1/15 51/1/15 52/1/15
f 7/1/16 43/1/16 44/1/16
f 15/1/17 52/1/17 47/1/17
f 8/1/18 9/1/18 46/1/18
f 30/2/19 25/3/19 31/4/19
f 56/5/19 37/6/19 38/7/19
f 57/8/19 39/9/19 37/6/19
f 57/8/19 58/10/19 40/11/19
f 59/12/19 41/13/19 40/11/19
f 59/12/19 60/14/19 42/15/19
f 60/14/19 61/16/19 43/17/19
f 62/18/19 44/19/19 43/17/19
f 63/20/19 64/21/19 45/22/19
f 63/20/19 46/23/19 47/24/19
f 62/18/19 66/25/19 48/26/19
f 66/25/19 67/27/19 49/28/19
f 68/29/19 50/30/19 49/28/19
f 69/31/19 51/32/19 50/30/19
f 70/33/19 52/34/19 51/32/19
f 65/35/19 47/24/19 52/34/19
f 55/36/19 38/7/19 53/37/19
f 72/38/19 71/39/19 53/37/19
f 72/38/19 54/40/19 45/22/19
f 36/41/19 72/38/19 64/21/19
f 36/41/19 35/42/19 71/39/19
f 19/43/19 55/36/19 71/39/19
f 34/44/19 65/35/19 70/33/19
f 33/45/19 70/33/19 69/31/19
f 32/46/19 69/31/19 68/29/19
f 31/4/19 68/29/19 67/27/19
f 29/47/19 30/2/19 67/27/19
f 28/48/19 29/47/19 66/25/19
f 27/49/19 63/20/19 65/35/19
f 27/49/19 26/50/19 64/21/19
f 28/48/19 62/18/19 61/16/19
f 24/51/19 25/3/19 61/16/19
f 23/52/19 24/51/19 60/14/19
f 23/52/19 59/12/19 58/10/19
f 21/53/19 22/54/19 58/10/19
f 21/53/19 57/8/19 56/5/19
f 20/55/19 56/5/19 55/36/19
f 2/1/1 1/1/1 37/1/1
f 1/1/2 17/1/2 38/1/2
f 9/1/3 16/1/3 46/1/3
f 3/1/4 2/1/4 39/1/4
f 17/1/5 18/1/5 53/1/5
f 11/1/6 10/1/6 48/1/6
f 4/1/7 3/1/7 40/1/7
f 18/1/8 8/1/8 54/1/8
f 12/1/9 11/1/9 49/1/9
f 5/1/10 4/1/10 41/1/10
f 13/1/11 12/1/11 50/1/11
f 6/1/12 5/1/12 42/1/12
f 14/1/13 13/1/13 51/1/13
f 7/1/14 6/1/14 43/1/14
f 15/1/15 14/1/15 52/1/15
f 10/1/16 7/1/16 44/1/16
f 16/1/17 15/1/17 47/1/17
f 45/1/18 8/1/18 46/1/18
f 21/53/19 20/55/19 22/54/19
f 26/50/19 27/49/19 33/45/19
f 22/54/19 20/55/19 23/52/19
f 27/49/19 34/44/19 33/45/19
f 20/55/19 19/43/19 23/52/19
f 26/50/19 33/45/19 32/46/19
f 23/52/19 19/43/19 35/42/19
f 26/50/19 32/46/19 31/4/19
f 24/51/19 23/52/19 35/42/19
f 26/50/19 31/4/19 25/3/19
f 24/51/19 35/42/19 36/41/19
f 36/41/19 26/50/19 24/51/19
f 30/2/19 29/47/19 28/48/19
f 28/48/19 25/3/19 30/2/19
f 24/51/19 26/50/19 25/3/19
f 55/36/19 56/5/19 38/7/19
f 56/5/19 57/8/19 37/6/19
f 39/9/19 57/8/19 40/11/19
f 58/10/19 59/12/19 40/11/19
f 41/13/19 59/12/19 42/15/19
f 42/15/19 60/14/19 43/17/19
f 61/16/19 62/18/19 43/17/19
f 46/23/19 63/20/19 45/22/19
f 65/35/19 63/20/19 47/24/19
f 44/19/19 62/18/19 48/26/19
f 48/26/19 66/25/19 49/28/19
f 67/27/19 68/29/19 49/28/19
f 68/29/19 69/31/19 50/30/19
f 69/31/19 70/33/19 51/32/19
f 70/33/19 65/35/19 52/34/19
f 71/39/19 55/36/19 53/37/19
f 54/40/19 72/38/19 53/37/19
f 64/21/19 72/38/19 45/22/19
f 26/50/19 36/41/19 64/21/19
f 72/38/19 36/41/19 71/39/19
f 35/42/19 19/43/19 71/39/19
f 33/45/19 34/44/19 70/33/19
f 32/46/19 33/45/19 69/31/19
f 31/4/19 32/46/19 68/29/19
f 30/2/19 31/4/19 67/27/19
f 66/25/19 29/47/19 67/27/19
f 62/18/19 28/48/19 66/25/19
f 34/44/19 27/49/19 65/35/19
f 63/20/19 27/49/19 64/21/19
f 25/3/19 28/48/19 61/16/19
f 60/14/19 24/51/19 61/16/19
f 59/12/19 23/52/19 60/14/19
f 22/54/19 23/52/19 58/10/19
f 57/8/19 21/53/19 58/10/19
f 20/55/19 21/53/19 56/5/19
f 19/43/19 20/55/19 55/36/19
