# Blender v2.76 (sub 0) OBJ File: ''
# www.blender.org
o Torus.001_Torus.002
v -0.007676 0.070545 0.751682
v 0.010426 0.068762 0.751682
v 0.010427 0.068762 -0.803206
v 0.027832 0.063482 0.751682
v 0.027832 0.063482 -0.803206
v 0.043872 0.054908 0.751682
v 0.043872 0.054908 -0.803206
v 0.057932 0.043370 0.751682
v 0.057932 0.043370 -0.803206
v 0.069470 0.029310 0.751682
v 0.069470 0.029310 -0.803206
v 0.078044 0.013269 0.751682
v 0.078044 0.013269 -0.803206
v 0.083324 -0.004136 0.751682
v 0.083324 -0.004136 -0.803206
v 0.085106 -0.022237 0.751682
v 0.085106 -0.022237 -0.803206
v 0.083324 -0.040338 0.751682
v 0.083324 -0.040338 -0.803206
v 0.078044 -0.057743 0.751682
v 0.078044 -0.057743 -0.803206
v 0.069470 -0.073784 0.751682
v 0.069470 -0.073784 -0.803206
v 0.057932 -0.087844 0.751682
v 0.057932 -0.087843 -0.803206
v 0.043872 -0.099383 0.751682
v 0.043872 -0.099382 -0.803205
v 0.027832 -0.107957 0.751682
v 0.010426 -0.113237 0.751682
v 0.010426 -0.113236 -0.803206
v -0.007676 -0.115019 0.751682
v -0.007676 -0.115019 -0.803206
v -0.025775 -0.113237 0.751682
v -0.025775 -0.113236 -0.803206
v -0.043180 -0.107957 0.751682
v -0.043180 -0.107956 -0.803206
v -0.059222 -0.099383 0.751682
v -0.059222 -0.099382 -0.803206
v -0.073281 -0.087844 0.751682
v -0.084821 -0.073784 0.751682
v -0.084821 -0.073784 -0.803205
v -0.093395 -0.057743 0.751682
v -0.098673 -0.040338 0.751682
v -0.098673 -0.040338 -0.803206
v -0.100457 -0.022237 0.751682
v -0.100457 -0.022237 -0.803206
v -0.098673 -0.004136 0.751682
v -0.098673 -0.004136 -0.803206
v -0.093395 0.013269 0.751682
v -0.093393 0.013269 -0.803206
v -0.084821 0.029310 0.751682
v -0.084821 0.029310 -0.803206
v -0.073281 0.043370 0.751682
v -0.073281 0.043370 -0.803206
v -0.059222 0.054908 0.751682
v -0.043180 0.063482 0.751682
v -0.043180 0.063482 -0.803206
v -0.025775 0.068762 0.751682
v -0.007676 0.070545 -0.803206
v -0.025775 0.068762 -0.803206
v 0.027832 -0.107956 -0.803206
v -0.073281 -0.087843 -0.803206
v -0.093395 -0.057743 -0.803206
v -0.059222 0.054908 -0.803206
vt 0.499721 0.132819
vt 0.501149 0.132819
vt 0.501149 0.160222
vt 0.502587 0.132819
vt 0.502587 0.160222
vt 0.504035 0.132819
vt 0.504035 0.160222
vt 0.505491 0.132819
vt 0.505491 0.160222
vt 0.506955 0.132819
vt 0.506955 0.160222
vt 0.508425 0.132819
vt 0.508425 0.160222
vt 0.509899 0.132819
vt 0.509899 0.160222
vt 0.511375 0.132819
vt 0.511375 0.160222
vt 0.512852 0.132819
vt 0.512852 0.160222
vt 0.514326 0.132819
vt 0.514326 0.160222
vt 0.515796 0.132819
vt 0.515796 0.160222
vt 0.517259 0.132819
vt 0.517259 0.160222
vt 0.518716 0.132819
vt 0.518716 0.160221
vt 0.520163 0.132819
vt 0.521601 0.132819
vt 0.521601 0.160222
vt 0.523030 0.132819
vt 0.523030 0.160222
vt 0.477424 0.132819
vt 0.478843 0.132819
vt 0.478843 0.160222
vt 0.480252 0.132819
vt 0.480252 0.160222
vt 0.481653 0.132819
vt 0.481653 0.160222
vt 0.483046 0.132819
vt 0.484434 0.132819
vt 0.484434 0.160221
vt 0.485816 0.132819
vt 0.487195 0.132819
vt 0.487195 0.160222
vt 0.488572 0.132819
vt 0.488572 0.160222
vt 0.489950 0.132819
vt 0.489950 0.160222
vt 0.491329 0.132819
vt 0.491329 0.160222
vt 0.492711 0.132819
vt 0.492711 0.160222
vt 0.494098 0.132819
vt 0.494098 0.160222
vt 0.495492 0.132819
vt 0.496893 0.132819
vt 0.496893 0.160222
vt 0.525858 0.132819
vt 0.498302 0.132819
vt 0.499721 0.160222
vt 0.498302 0.160222
vt 0.532801 0.160222
vt 0.543908 0.160222
vt 0.520163 0.160222
vt 0.477424 0.160222
vt 0.483046 0.160222
vt 0.485816 0.160222
vt 0.495492 0.160222
vt 0.524448 0.160222
vt 0.525858 0.160222
vt 0.527259 0.160222
vn 0.098000 0.995200 0.000000
vn 0.290300 0.956900 0.000000
vn 0.471400 0.881900 0.000000
vn 0.634400 0.773000 0.000000
vn 0.773000 0.634400 0.000000
vn 0.881900 0.471400 0.000000
vn 0.956900 0.290300 0.000000
vn 0.995200 0.098000 0.000000
vn 0.995200 -0.098000 -0.000000
vn 0.956900 -0.290300 -0.000000
vn 0.881900 -0.471400 -0.000000
vn 0.773000 -0.634400 -0.000000
vn 0.634400 -0.773000 -0.000000
vn 0.471400 -0.881900 -0.000000
vn 0.290300 -0.956900 -0.000000
vn 0.098000 -0.995200 -0.000000
vn -0.098000 -0.995200 -0.000000
vn -0.290300 -0.956900 -0.000000
vn -0.471400 -0.881900 -0.000000
vn -0.634400 -0.773000 -0.000000
vn -0.773000 -0.634400 -0.000000
vn -0.881900 -0.471400 -0.000000
vn -0.957000 -0.290200 -0.000000
vn -0.995200 -0.098000 -0.000000
vn -0.995200 0.098000 0.000000
vn -0.957000 0.290200 -0.000000
vn -0.956900 0.290300 0.000000
vn -0.881900 0.471400 0.000000
vn -0.882000 0.471300 -0.000000
vn -0.773000 0.634400 0.000000
vn -0.634400 0.773000 0.000000
vn -0.471400 0.881900 0.000000
vn 0.000000 0.000000 1.000000
vn -0.098000 0.995200 0.000000
vn -0.290300 0.956900 0.000000
vn 0.000000 0.000000 -1.000000
vn 0.000500 -0.000000 1.000000
vn -0.000300 0.000000 1.000000
vn -0.000500 -0.000000 1.000000
vn -0.000000 0.000100 -1.000000
vn -0.000100 0.000300 -1.000000
vn 0.000300 -0.000000 -1.000000
vn 0.001200 0.000000 -1.000000
s 1
f 1/1/1 2/2/1 3/3/1
f 2/2/2 4/4/2 5/5/2
f 4/4/3 6/6/3 7/7/3
f 6/6/4 8/8/4 9/9/4
f 8/8/5 10/10/5 11/11/5
f 10/10/6 12/12/6 13/13/6
f 12/12/7 14/14/7 15/15/7
f 14/14/8 16/16/8 17/17/8
f 16/16/9 18/18/9 19/19/9
f 18/18/10 20/20/10 21/21/10
f 20/20/11 22/22/11 23/23/11
f 22/22/12 24/24/12 25/25/12
f 24/24/13 26/26/13 27/27/13
f 27/27/14 26/26/14 28/28/14
f 28/28/15 29/29/15 30/30/15
f 29/29/16 31/31/16 32/32/16
f 31/33/17 33/34/17 34/35/17
f 33/34/18 35/36/18 36/37/18
f 35/36/19 37/38/19 38/39/19
f 38/39/20 37/38/20 39/40/20
f 39/40/21 40/41/21 41/42/21
f 41/42/22 40/41/22 42/43/22
f 42/43/23 43/44/23 44/45/23
f 43/44/24 45/46/24 46/47/24
f 45/46/25 47/48/25 48/49/25
f 47/48/26 49/50/26 50/51/27
f 49/50/28 51/52/28 52/53/29
f 51/52/30 53/54/30 54/55/30
f 54/55/31 53/54/31 55/56/31
f 55/56/32 56/57/32 57/58/32
f 35/59/33 20/20/33 4/4/33
f 58/60/34 1/1/34 59/61/34
f 56/57/35 58/60/35 60/62/35
f 30/30/36 44/63/36 60/64/36
f 59/61/1 1/1/1 3/3/1
f 3/3/2 2/2/2 5/5/2
f 5/5/3 4/4/3 7/7/3
f 7/7/4 6/6/4 9/9/4
f 9/9/5 8/8/5 11/11/5
f 11/11/6 10/10/6 13/13/6
f 13/13/7 12/12/7 15/15/7
f 15/15/8 14/14/8 17/17/8
f 17/17/9 16/16/9 19/19/9
f 19/19/10 18/18/10 21/21/10
f 21/21/11 20/20/11 23/23/11
f 23/23/12 22/22/12 25/25/12
f 25/25/13 24/24/13 27/27/13
f 61/65/14 27/27/14 28/28/14
f 61/65/15 28/28/15 30/30/15
f 30/30/16 29/29/16 32/32/16
f 32/66/17 31/33/17 34/35/17
f 34/35/18 33/34/18 36/37/18
f 36/37/19 35/36/19 38/39/19
f 62/67/20 38/39/20 39/40/20
f 62/67/21 39/40/21 41/42/21
f 63/68/22 41/42/22 42/43/22
f 63/68/23 42/43/23 44/45/23
f 44/45/24 43/44/24 46/47/24
f 46/47/25 45/46/25 48/49/25
f 48/49/27 47/48/26 50/51/27
f 50/51/29 49/50/28 52/53/29
f 52/53/30 51/52/30 54/55/30
f 64/69/31 54/55/31 55/56/31
f 64/69/32 55/56/32 57/58/32
f 4/4/33 2/2/33 1/1/33
f 1/1/33 58/60/33 56/57/33
f 56/57/33 55/56/33 53/54/33
f 53/54/33 51/52/37 49/50/33
f 49/50/33 47/48/33 45/46/38
f 45/46/38 43/44/33 49/50/33
f 42/43/33 40/41/33 35/36/33
f 39/40/33 37/38/33 35/36/33
f 35/36/33 33/34/33 31/33/33
f 31/31/33 29/29/33 35/59/33
f 28/28/33 26/26/33 24/24/33
f 24/24/33 22/22/33 28/28/33
f 20/20/33 18/18/33 12/12/33
f 16/16/33 14/14/39 12/12/33
f 12/12/33 10/10/33 8/8/33
f 8/8/33 6/6/33 4/4/33
f 4/4/33 1/1/33 56/57/33
f 56/57/33 53/54/33 4/4/33
f 49/50/33 43/44/33 42/43/33
f 40/41/33 39/40/33 35/36/33
f 35/59/33 29/29/33 28/28/33
f 28/28/33 22/22/33 20/20/33
f 18/18/33 16/16/33 12/12/33
f 12/12/33 8/8/33 20/20/33
f 4/4/33 53/54/33 49/50/33
f 49/50/33 42/43/33 35/36/33
f 35/59/33 28/28/33 20/20/33
f 20/20/33 8/8/33 4/4/33
f 4/4/33 49/50/33 35/36/33
f 60/62/34 58/60/34 59/61/34
f 57/58/35 56/57/35 60/62/35
f 60/62/36 59/61/36 3/3/36
f 3/3/36 5/5/36 60/62/36
f 7/7/36 9/9/36 11/11/36
f 11/11/36 13/13/36 15/15/36
f 15/15/36 17/17/36 19/19/36
f 19/19/36 21/21/36 15/15/36
f 23/23/36 25/25/36 30/30/36
f 27/27/40 61/65/41 30/30/36
f 30/30/36 32/32/36 34/70/36
f 34/70/36 36/71/36 30/30/36
f 38/39/36 62/67/36 44/45/36
f 41/42/42 63/68/43 44/45/36
f 44/45/36 46/47/36 48/49/36
f 48/49/36 50/51/36 44/45/36
f 52/53/36 54/55/36 60/62/36
f 64/69/36 57/58/36 60/62/36
f 60/62/36 5/5/36 7/7/36
f 7/7/36 11/11/36 60/62/36
f 15/15/36 21/21/36 23/23/36
f 25/25/36 27/27/40 30/30/36
f 30/30/36 36/71/36 38/72/36
f 62/67/36 41/42/42 44/45/36
f 44/45/36 50/51/36 52/53/36
f 54/55/36 64/69/36 60/62/36
f 60/62/36 11/11/36 15/15/36
f 15/15/36 23/23/36 60/62/36
f 30/30/36 38/72/36 44/63/36
f 44/45/36 52/53/36 60/62/36
f 60/64/36 23/23/36 30/30/36
