# Blender v2.76 (sub 0) OBJ File: 'pinball.blend'
# www.blender.org
o Torus.001_Torus.002
v 4.324278 0.551388 7.848062
v 4.324278 0.551388 9.402950
v 4.342380 0.549605 7.848062
v 4.342379 0.549605 9.402950
v 4.359785 0.544325 7.848062
v 4.359785 0.544325 9.402950
v 4.375825 0.535751 7.848062
v 4.375825 0.535751 9.402950
v 4.389885 0.524213 7.848062
v 4.389885 0.524213 9.402950
v 4.401423 0.510153 7.848062
v 4.401423 0.510153 9.402950
v 4.409997 0.494112 7.848062
v 4.409997 0.494112 9.402950
v 4.415277 0.476707 7.848062
v 4.415277 0.476707 9.402950
v 4.417060 0.458606 7.848062
v 4.417060 0.458606 9.402950
v 4.415277 0.440505 7.848062
v 4.415277 0.440505 9.402950
v 4.409997 0.423100 7.848062
v 4.409997 0.423100 9.402950
v 4.401423 0.407059 7.848062
v 4.401423 0.407059 9.402950
v 4.389885 0.393000 7.848062
v 4.389885 0.393000 9.402950
v 4.375825 0.381461 7.848063
v 4.375825 0.381461 9.402950
v 4.359785 0.372887 7.848062
v 4.359785 0.372887 9.402950
v 4.342379 0.367607 7.848062
v 4.342379 0.367607 9.402950
v 4.324278 0.365824 7.848062
v 4.324278 0.365824 9.402950
v 4.306178 0.367607 7.848062
v 4.306178 0.367607 9.402950
v 4.288773 0.372887 7.848062
v 4.288773 0.372887 9.402950
v 4.272732 0.381461 7.848062
v 4.272732 0.381461 9.402950
v 4.258672 0.393000 7.848062
v 4.258672 0.393000 9.402950
v 4.247133 0.407059 7.848063
v 4.247133 0.407059 9.402950
v 4.238559 0.423100 7.848062
v 4.238559 0.423100 9.402950
v 4.233280 0.440505 7.848062
v 4.233280 0.440505 9.402950
v 4.231497 0.458606 7.848062
v 4.231497 0.458606 9.402950
v 4.233280 0.476707 7.848062
v 4.233280 0.476707 9.402950
v 4.238560 0.494112 7.848062
v 4.238559 0.494112 9.402950
v 4.247133 0.510153 7.848062
v 4.247133 0.510153 9.402950
v 4.258672 0.524213 7.848062
v 4.258672 0.524213 9.402950
v 4.272732 0.535751 7.848062
v 4.272732 0.535751 9.402950
v 4.288773 0.544325 7.848062
v 4.288773 0.544325 9.402950
v 4.306178 0.549605 7.848062
v 4.306178 0.549605 9.402950
vt 0.499721 0.132819
vt 0.501149 0.132819
vt 0.501149 0.160222
vt 0.502587 0.132819
vt 0.502587 0.160222
vt 0.504035 0.132819
vt 0.504035 0.160222
vt 0.505491 0.132819
vt 0.505491 0.160222
vt 0.506955 0.132819
vt 0.506955 0.160222
vt 0.508425 0.132819
vt 0.508425 0.160222
vt 0.509899 0.132819
vt 0.509899 0.160222
vt 0.511375 0.132819
vt 0.511375 0.160222
vt 0.512852 0.132819
vt 0.512852 0.160222
vt 0.514326 0.132819
vt 0.514326 0.160222
vt 0.515796 0.132819
vt 0.515796 0.160222
vt 0.517259 0.132819
vt 0.517259 0.160222
vt 0.518716 0.132819
vt 0.518716 0.160221
vt 0.520163 0.132819
vt 0.521601 0.132819
vt 0.521601 0.160222
vt 0.523030 0.132819
vt 0.523030 0.160222
vt 0.477424 0.132819
vt 0.478843 0.132819
vt 0.478843 0.160222
vt 0.480252 0.132819
vt 0.480252 0.160222
vt 0.481653 0.132819
vt 0.481653 0.160222
vt 0.483046 0.132819
vt 0.484434 0.132819
vt 0.484434 0.160221
vt 0.485816 0.132819
vt 0.487195 0.132819
vt 0.487195 0.160222
vt 0.488572 0.132819
vt 0.488572 0.160222
vt 0.489950 0.132819
vt 0.489950 0.160222
vt 0.491329 0.132819
vt 0.491329 0.160222
vt 0.492711 0.132819
vt 0.492711 0.160222
vt 0.494098 0.132819
vt 0.494098 0.160222
vt 0.495492 0.132819
vt 0.496893 0.132819
vt 0.496893 0.160222
vt 0.525858 0.132819
vt 0.498302 0.132819
vt 0.499721 0.160222
vt 0.498302 0.160222
vt 0.532801 0.160222
vt 0.543908 0.160222
vt 0.520163 0.160222
vt 0.477424 0.160222
vt 0.483046 0.160222
vt 0.485816 0.160222
vt 0.495492 0.160222
vt 0.524448 0.160222
vt 0.525858 0.160222
vt 0.527259 0.160222
vn 0.098000 0.995200 0.000000
vn 0.290300 0.956900 0.000000
vn 0.471400 0.881900 0.000000
vn 0.634400 0.773000 0.000000
vn 0.773000 0.634400 0.000000
vn 0.881900 0.471400 0.000000
vn 0.956900 0.290300 0.000000
vn 0.995200 0.098000 0.000000
vn 0.995200 -0.098100 0.000000
vn 0.956900 -0.290300 0.000000
vn 0.881900 -0.471400 0.000000
vn 0.773000 -0.634400 0.000000
vn 0.634400 -0.773000 0.000000
vn 0.471400 -0.881900 0.000000
vn 0.290300 -0.956900 0.000000
vn 0.098000 -0.995200 0.000000
vn -0.098000 -0.995200 0.000000
vn -0.290300 -0.956900 0.000000
vn -0.471400 -0.881900 0.000000
vn -0.634400 -0.773000 0.000000
vn -0.773000 -0.634400 0.000000
vn -0.881900 -0.471400 0.000000
vn -0.956900 -0.290300 0.000000
vn -0.995200 -0.098100 0.000000
vn -0.995200 0.098000 0.000000
vn -0.957000 0.290200 -0.000000
vn -0.881900 0.471400 0.000000
vn -0.773000 0.634400 0.000000
vn -0.634400 0.773000 0.000000
vn -0.471400 0.881900 -0.000000
vn 0.000000 0.000000 1.000000
vn -0.098000 0.995200 0.000000
vn -0.290300 0.956900 -0.000000
vn -0.000000 -0.000000 -1.000000
vn 0.995200 0.098100 0.000000
vn 0.995200 -0.098000 0.000000
vn -0.995200 -0.098000 0.000000
vn -0.995200 0.098100 0.000000
vn -0.956900 0.290300 0.000000
vn 0.000100 0.000000 1.000000
vn 0.000500 0.000000 1.000000
vn -0.000500 0.000000 1.000000
vn 0.000200 0.000000 1.000000
vn -0.000200 0.000000 1.000000
vn 0.000300 0.000000 1.000000
vn 0.000000 0.000100 -1.000000
vn -0.000100 0.000100 -1.000000
vn 0.000200 0.000000 -1.000000
vn 0.000500 0.000000 -1.000000
vn -0.000100 0.000000 -1.000000
vn 0.000200 -0.000100 -1.000000
vn -0.000300 -0.000100 -1.000000
vn 0.000100 0.000000 -1.000000
vn 0.000100 -0.000100 -1.000000
s off
f 2/1/1 4/2/1 3/3/1
f 4/2/2 6/4/2 5/5/2
f 6/4/3 8/6/3 7/7/3
f 8/6/4 10/8/4 9/9/4
f 10/8/5 12/10/5 11/11/5
f 12/10/6 14/12/6 13/13/6
f 14/12/7 16/14/7 15/15/7
f 16/14/8 18/16/8 17/17/8
f 18/16/9 20/18/9 19/19/9
f 20/18/10 22/20/10 21/21/10
f 22/20/11 24/22/11 23/23/11
f 24/22/12 26/24/12 25/25/12
f 26/24/13 28/26/13 27/27/13
f 27/27/14 28/26/14 30/28/14
f 30/28/15 32/29/15 31/30/15
f 32/29/16 34/31/16 33/32/16
f 34/33/17 36/34/17 35/35/17
f 36/34/18 38/36/18 37/37/18
f 38/36/19 40/38/19 39/39/19
f 39/39/20 40/38/20 42/40/20
f 42/40/21 44/41/21 43/42/21
f 43/42/22 44/41/22 46/43/22
f 46/43/23 48/44/23 47/45/23
f 48/44/24 50/46/24 49/47/24
f 50/46/25 52/48/25 51/49/25
f 52/48/26 54/50/26 53/51/26
f 54/50/27 56/52/27 55/53/27
f 56/52/28 58/54/28 57/55/28
f 57/55/29 58/54/29 60/56/29
f 60/56/30 62/57/30 61/58/30
f 38/59/31 22/20/31 6/4/31
f 64/60/32 2/1/32 1/61/32
f 62/57/33 64/60/33 63/62/33
f 31/30/34 47/63/34 63/64/34
f 1/61/1 2/1/1 3/3/1
f 3/3/2 4/2/2 5/5/2
f 5/5/3 6/4/3 7/7/3
f 7/7/4 8/6/4 9/9/4
f 9/9/5 10/8/5 11/11/5
f 11/11/6 12/10/6 13/13/6
f 13/13/7 14/12/7 15/15/7
f 15/15/35 16/14/35 17/17/35
f 17/17/36 18/16/36 19/19/36
f 19/19/10 20/18/10 21/21/10
f 21/21/11 22/20/11 23/23/11
f 23/23/12 24/22/12 25/25/12
f 25/25/13 26/24/13 27/27/13
f 29/65/14 27/27/14 30/28/14
f 29/65/15 30/28/15 31/30/15
f 31/30/16 32/29/16 33/32/16
f 33/66/17 34/33/17 35/35/17
f 35/35/18 36/34/18 37/37/18
f 37/37/19 38/36/19 39/39/19
f 41/67/20 39/39/20 42/40/20
f 41/67/21 42/40/21 43/42/21
f 45/68/22 43/42/22 46/43/22
f 45/68/23 46/43/23 47/45/23
f 47/45/37 48/44/37 49/47/37
f 49/47/38 50/46/38 51/49/38
f 51/49/39 52/48/39 53/51/39
f 53/51/27 54/50/27 55/53/27
f 55/53/28 56/52/28 57/55/28
f 59/69/29 57/55/29 60/56/29
f 59/69/30 60/56/30 61/58/30
f 6/4/40 4/2/40 2/1/40
f 2/1/40 64/60/40 62/57/40
f 62/57/31 60/56/31 58/54/31
f 58/54/41 56/52/41 54/50/41
f 54/50/42 52/48/42 50/46/42
f 50/46/31 48/44/31 54/50/31
f 46/43/31 44/41/31 38/36/31
f 42/40/43 40/38/43 38/36/43
f 38/36/31 36/34/31 34/33/31
f 34/31/31 32/29/31 38/59/31
f 30/28/44 28/26/44 26/24/44
f 26/24/31 24/22/31 30/28/31
f 22/20/31 20/18/31 14/12/31
f 18/16/31 16/14/31 14/12/31
f 14/12/31 12/10/31 10/8/31
f 10/8/31 8/6/31 6/4/31
f 6/4/31 2/1/31 62/57/31
f 62/57/31 58/54/31 6/4/31
f 54/50/31 48/44/31 46/43/31
f 44/41/31 42/40/31 38/36/31
f 38/59/31 32/29/31 30/28/31
f 30/28/31 24/22/31 22/20/31
f 20/18/45 18/16/45 14/12/45
f 14/12/31 10/8/31 22/20/31
f 6/4/31 58/54/31 54/50/31
f 54/50/31 46/43/31 38/36/31
f 38/59/31 30/28/31 22/20/31
f 22/20/31 10/8/31 6/4/31
f 6/4/31 54/50/31 38/36/31
f 63/62/32 64/60/32 1/61/32
f 61/58/33 62/57/33 63/62/33
f 63/62/34 1/61/34 3/3/34
f 3/3/34 5/5/34 63/62/34
f 7/7/46 9/9/46 11/11/46
f 11/11/34 13/13/34 15/15/34
f 15/15/34 17/17/34 19/19/34
f 19/19/34 21/21/34 15/15/34
f 23/23/34 25/25/34 31/30/34
f 27/27/47 29/65/47 31/30/47
f 31/30/34 33/32/34 35/70/34
f 35/70/34 37/71/34 31/30/34
f 39/39/48 41/67/48 47/45/48
f 43/42/49 45/68/49 47/45/49
f 47/45/34 49/47/34 51/49/34
f 51/49/34 53/51/34 47/45/34
f 55/53/50 57/55/50 63/62/50
f 59/69/50 61/58/50 63/62/50
f 63/62/34 5/5/34 7/7/34
f 7/7/34 11/11/34 63/62/34
f 15/15/50 21/21/50 23/23/50
f 25/25/51 27/27/51 31/30/51
f 31/30/34 37/71/34 39/72/34
f 41/67/52 43/42/52 47/45/52
f 47/45/53 53/51/53 55/53/53
f 57/55/54 59/69/54 63/62/54
f 63/62/34 11/11/34 15/15/34
f 15/15/34 23/23/34 63/62/34
f 31/30/34 39/72/34 47/63/34
f 47/45/34 55/53/34 63/62/34
f 63/64/34 23/23/34 31/30/34
