# Blender v2.76 (sub 0) OBJ File: 'pinball.blend'
# www.blender.org
o table_Circle.018
v 0.000000 0.000000 -9.869311
v -1.104657 0.000000 -9.747547
v -2.134033 0.000000 -9.390555
v -3.017979 0.000000 -8.822660
v -3.696255 0.000000 -8.082567
v -4.122636 0.000000 -7.220711
v -4.505301 0.000000 -6.295825
v -4.615354 0.000000 -5.370938
v -4.663440 0.000000 -4.454335
v -4.204150 0.000000 -3.732490
v -3.520941 0.000000 -3.237592
v -2.765296 0.000000 -2.716359
v 3.411834 -0.000000 -7.617764
v 3.831556 -0.000000 -6.687077
v 4.050541 0.000000 -5.665146
v 4.050541 0.000000 9.155772
v 4.602384 0.000000 9.155772
v 4.602384 0.000000 -5.822815
v 4.523550 0.000000 -6.295823
v 4.122637 0.000000 -7.220709
v 3.696256 0.000000 -8.082566
v 3.017981 0.000000 -8.822660
v 2.134036 0.000000 -9.390554
v 1.104660 0.000000 -9.747547
v -2.536580 0.000000 -2.211372
v -2.792063 0.000000 -1.609162
v -3.886989 0.000000 0.416451
v -3.649755 0.000000 2.350820
v 2.937366 -0.000000 -8.165227
v -4.674605 0.000000 3.769844
v -4.648327 0.000000 7.369960
v -0.516714 0.000000 9.708722
v 0.665806 0.000000 9.761278
v 3.550478 0.000000 7.343681
v 4.050541 0.000000 7.358342
v 0.000000 0.829426 -9.869311
v -1.104657 0.829426 -9.747547
v -2.134033 0.829426 -9.390555
v -3.017979 0.829426 -8.822660
v -3.696255 0.829426 -8.082567
v -4.122636 0.829426 -7.220711
v -4.505301 0.829426 -6.295825
v -4.615354 0.829426 -5.370938
v -4.663440 0.829426 -4.454335
v -4.204150 0.829426 -3.732490
v -3.520941 0.829426 -3.237592
v -2.765296 0.829426 -2.716359
v 3.411834 0.829426 -7.617764
v 3.831556 0.829426 -6.687077
v 4.050541 0.829426 -5.665146
v 4.050541 0.829426 9.155772
v 4.602384 0.829426 9.155772
v 4.602384 0.829426 -5.822815
v 4.523550 0.829426 -6.295823
v 4.122637 0.829426 -7.220709
v 3.696256 0.829426 -8.082566
v 3.017981 0.829426 -8.822660
v 2.134036 0.829426 -9.390554
v 1.104660 0.829426 -9.747547
v -2.536580 0.829426 -2.211372
v -2.792063 0.829426 -1.609162
v -3.886989 0.829426 0.416451
v -3.649755 0.829426 2.350820
v 2.937366 0.829426 -8.165227
v -4.674605 0.829426 3.769844
v -4.648327 0.829426 7.369960
v -0.516714 0.829426 9.708722
v 0.665806 0.829426 9.761278
v 3.550478 0.829426 7.343681
v 4.050541 0.829426 7.358342
v -5.003485 0.000000 10.154106
v 5.003485 0.000000 10.154106
v -5.003485 0.000000 -10.154106
v 5.003485 0.000000 -10.154106
v -5.003485 0.828798 10.154106
v 5.003485 0.828798 10.154106
v -5.003485 0.828798 -10.154106
v 5.003485 0.828798 -10.154106
vt 0.885334 0.422686
vt 0.853366 0.463927
vt 0.885334 0.463927
vt 0.298356 0.422686
vt 0.381920 0.463927
vt 0.298356 0.463927
vt 0.915124 0.463927
vt 0.853366 0.422686
vt 0.821398 0.463927
vt 0.867838 0.157961
vt 0.867838 0.075244
vt 0.915124 0.422686
vt 0.940705 0.463927
vt 0.821398 0.422686
vt 0.789715 0.463927
vt 0.381413 0.422686
vt 0.381413 0.463927
vt 0.780138 -0.005130
vt 0.727342 0.066133
vt 0.780138 0.066133
vt 0.789715 0.422686
vt 0.764765 0.463927
vt 0.727342 -0.005130
vt 0.665859 0.066133
vt 0.764765 0.422686
vt 0.747659 0.463927
vt 0.665859 -0.005130
vt 0.599880 0.066133
vt 0.747659 0.422686
vt 0.729643 0.463927
vt 0.712188 0.422686
vt 0.691373 0.463927
vt 0.712188 0.463927
vt 0.729643 0.422686
vt 0.691373 0.422686
vt 0.621358 0.463927
vt 0.866890 0.422686
vt 0.899059 0.463927
vt 0.899059 0.422686
vt 0.621358 0.422686
vt 0.554497 0.463927
vt 0.831567 0.463927
vt 0.866890 0.463927
vt 0.599880 -0.005130
vt 0.533901 0.066133
vt 0.917981 0.422686
vt 0.917981 0.463927
vt 0.831567 0.422686
vt 0.533901 -0.005130
vt 0.472419 0.066133
vt 0.554497 0.422686
vt 0.505449 0.463927
vt 0.918514 0.075244
vt 0.472419 -0.005130
vt 0.419623 0.066133
vt 0.505449 0.422686
vt 0.381012 0.463927
vt 0.319285 0.422686
vt 0.837016 0.463927
vt 0.319285 0.463927
vt 0.419623 -0.005130
vt 0.379111 0.066134
vt 0.381012 0.422686
vt 0.300173 0.463927
vt 0.837016 0.422686
vt 0.688350 0.465790
vt -0.013598 0.506999
vt 0.688350 0.506999
vt -0.013598 0.465790
vt 0.036394 0.963883
vt 0.955348 0.963883
vt 0.549896 0.592927
vt 0.261655 0.627268
vt 0.549896 0.627268
vt 0.515444 0.047378
vt 0.955348 0.029300
vt 0.036394 0.029300
vt 0.066596 0.323104
vt 0.495871 0.950777
vt 0.918514 0.764557
vt 0.911275 0.786325
vt 0.381920 0.422686
vt 0.940705 0.422686
vt 0.379111 -0.005130
vt 0.300173 0.422686
vt 0.874459 0.828888
vt 0.261655 0.592927
vt 0.821917 0.158636
vt 0.406852 0.049797
vt 0.069009 0.157427
vt 0.117284 0.828888
vt 0.156439 0.868551
vt 0.262933 0.598359
vt 0.239472 0.570645
vt 0.241930 0.621598
vt 0.082143 0.786325
vt 0.172538 0.645585
vt 0.072037 0.743762
vt 0.138924 0.477427
vt 0.067621 0.701580
vt 0.109798 0.668361
vt 0.160709 0.388407
vt 0.773016 0.902610
vt 0.835303 0.868551
vt 0.218726 0.902610
vt 0.691843 0.928744
vt 0.299900 0.928744
vt 0.597314 0.945173
vt 0.394429 0.945173
vn -0.924000 0.000000 -0.382300
vn 0.642300 0.000000 0.766400
vn 0.896300 0.000000 -0.443400
vn -0.993000 0.000000 -0.118200
vn -1.000000 0.000000 0.000000
vn 0.737200 0.000000 -0.675600
vn -0.998600 0.000000 -0.052400
vn -0.029300 0.000000 0.999600
vn 0.540500 0.000000 -0.841300
vn -0.843700 0.000000 0.536800
vn 0.327700 0.000000 -0.944800
vn -0.586600 0.000000 0.809900
vn 0.109600 0.000000 -0.994000
vn -0.567800 0.000000 0.823200
vn -0.920600 0.000000 -0.390500
vn -0.910900 0.000000 0.412600
vn -0.879700 0.000000 -0.475500
vn -0.911600 0.000000 0.411100
vn -0.992600 0.000000 0.121700
vn -0.977800 0.000000 0.209500
vn -0.109600 0.000000 -0.994000
vn -0.755700 0.000000 0.654900
vn -0.327700 0.000000 -0.944800
vn -0.810700 0.000000 -0.585500
vn 0.000000 0.000000 1.000000
vn -0.540500 0.000000 -0.841300
vn -1.000000 0.000000 0.007300
vn 1.000000 0.000000 0.000000
vn -0.737200 0.000000 -0.675600
vn -0.492600 0.000000 0.870200
vn 0.986400 0.000000 -0.164400
vn -0.896300 0.000000 -0.443400
vn 0.917500 0.000000 -0.397700
vn 0.000000 0.000000 -1.000000
vn 0.000000 -1.000000 -0.001600
vn 0.001900 -1.000000 0.000000
vn 0.000000 -1.000000 0.002200
vn -0.000600 -1.000000 0.000100
vn 0.000000 -1.000000 -0.000600
vn 0.000000 -1.000000 0.000000
vn 0.000100 -1.000000 -0.000200
vn 0.000000 -1.000000 -0.001000
vn -0.000100 -1.000000 -0.000500
vn 0.000300 -1.000000 0.000100
vn 0.000700 -1.000000 0.000100
vn 0.001000 -1.000000 0.000100
vn 0.001800 -1.000000 0.000000
vn 0.001700 -1.000000 -0.000000
vn -0.000200 -1.000000 0.000200
vn 0.000200 -1.000000 0.000200
vn -0.000100 -1.000000 0.000400
vn 0.000100 -1.000000 0.000400
vn -0.000100 -1.000000 0.000800
vn 0.000100 -1.000000 0.000800
vn -0.001600 -1.000000 0.000000
vn -0.000300 -1.000000 0.000100
s off
f 6/1/1 42/2/1 41/3/1
f 33/4/2 69/5/2 68/6/2
f 20/1/3 56/7/3 55/3/3
f 7/8/4 43/9/4 42/2/4
f 35/10/5 51/11/5 70/10/5
f 21/12/6 57/13/6 56/7/6
f 8/14/7 44/15/7 43/9/7
f 69/5/8 35/16/8 70/17/8
f 22/18/9 58/19/9 57/20/9
f 9/21/10 45/22/10 44/15/10
f 23/23/11 59/24/11 58/19/11
f 10/25/12 46/26/12 45/22/12
f 24/27/13 36/28/13 59/24/13
f 11/29/14 47/30/14 46/26/14
f 25/31/15 61/32/15 60/33/15
f 12/34/16 60/33/16 47/30/16
f 26/35/17 62/36/17 61/32/17
f 14/37/18 48/38/18 13/39/18
f 27/40/19 63/41/19 62/36/19
f 14/37/20 50/42/20 49/43/20
f 1/44/21 37/45/21 36/28/21
f 29/46/22 48/38/22 64/47/22
f 15/48/5 70/17/5 50/42/5
f 2/49/23 38/50/23 37/45/23
f 28/51/24 65/52/24 63/41/24
f 16/11/25 52/53/25 51/11/25
f 3/54/26 39/55/26 38/50/26
f 30/56/27 66/57/27 65/52/27
f 17/58/28 53/59/28 52/60/28
f 4/61/29 40/62/29 39/55/29
f 31/63/30 67/64/30 66/57/30
f 18/65/31 54/2/31 53/59/31
f 5/12/32 41/3/32 40/7/32
f 19/8/33 55/3/33 54/2/33
f 74/66/5 76/67/5 78/68/5
f 71/69/28 77/68/28 75/67/28
f 73/70/25 78/71/25 77/70/25
f 72/72/34 75/73/34 76/74/34
f 68/75/35 76/76/35 75/77/35
f 75/77/36 77/70/36 65/78/36
f 36/79/37 77/70/37 78/71/37
f 53/80/38 54/81/38 78/71/38
f 7/8/1 42/2/1 6/1/1
f 34/82/2 69/5/2 33/4/2
f 21/12/3 56/7/3 20/1/3
f 8/14/4 43/9/4 7/8/4
f 16/11/5 51/11/5 35/10/5
f 22/83/6 57/13/6 21/12/6
f 9/21/7 44/15/7 8/14/7
f 34/82/8 35/16/8 69/5/8
f 23/23/9 58/19/9 22/18/9
f 10/25/10 45/22/10 9/21/10
f 24/27/11 59/24/11 23/23/11
f 11/29/12 46/26/12 10/25/12
f 1/44/13 36/28/13 24/27/13
f 12/34/14 47/30/14 11/29/14
f 26/35/15 61/32/15 25/31/15
f 25/31/16 60/33/16 12/34/16
f 27/40/17 62/36/17 26/35/17
f 49/43/18 48/38/18 14/37/18
f 28/51/19 63/41/19 27/40/19
f 15/48/20 50/42/20 14/37/20
f 2/49/21 37/45/21 1/44/21
f 13/39/22 48/38/22 29/46/22
f 35/16/5 70/17/5 15/48/5
f 3/54/23 38/50/23 2/49/23
f 30/56/24 65/52/24 28/51/24
f 17/53/25 52/53/25 16/11/25
f 4/61/26 39/55/26 3/54/26
f 31/63/27 66/57/27 30/56/27
f 18/65/28 53/59/28 17/58/28
f 5/84/29 40/62/29 4/61/29
f 32/85/30 67/64/30 31/63/30
f 19/8/31 54/2/31 18/65/31
f 6/1/32 41/3/32 5/12/32
f 20/86/33 55/86/33 19/81/33
f 72/69/5 76/67/5 74/66/5
f 73/66/28 77/68/28 71/69/28
f 74/71/25 78/71/25 73/70/25
f 71/87/34 75/73/34 72/72/34
f 76/76/39 51/11/39 52/53/39
f 51/11/40 69/88/40 70/10/40
f 67/89/41 75/77/41 66/90/41
f 51/11/40 68/75/40 69/88/40
f 68/75/42 75/77/42 67/89/42
f 76/76/43 68/75/43 51/11/43
f 41/91/44 77/70/44 40/92/44
f 60/93/40 61/94/40 47/95/40
f 42/96/44 77/70/44 41/91/44
f 47/95/40 61/94/40 46/97/40
f 43/98/45 77/70/45 42/96/45
f 61/94/40 62/99/40 46/97/40
f 44/100/46 77/70/46 43/98/46
f 62/99/40 45/101/40 46/97/40
f 44/100/47 65/78/47 77/70/47
f 62/99/40 44/100/40 45/101/40
f 65/78/40 62/99/40 63/102/40
f 75/77/48 65/78/48 66/90/48
f 65/78/40 44/100/40 62/99/40
f 57/103/49 78/71/49 56/104/49
f 77/70/50 39/105/50 40/92/50
f 58/106/49 78/71/49 57/103/49
f 77/70/50 38/107/50 39/105/50
f 59/108/51 78/71/51 58/106/51
f 77/70/52 37/109/52 38/107/52
f 36/79/53 78/71/53 59/108/53
f 77/70/54 36/79/54 37/109/54
f 53/80/55 76/76/55 52/53/55
f 78/71/56 55/86/56 56/104/56
f 53/80/55 78/71/55 76/76/55
f 78/71/56 54/81/56 55/86/56
