# Blender v2.76 (sub 0) OBJ File: 'blender.blend'
# www.blender.org
mtllib left.mtl
o Circle_Circle.002
v -1.084718 0.000000 -1.000000
v -0.512978 0.000000 -0.951057
v 0.293260 0.000000 -0.809017
v 1.121079 0.000000 -0.587785
v 1.763198 0.000000 -0.309017
v 2.020085 0.000000 0.000000
v 1.763198 0.000000 0.309017
v 1.121080 0.000000 0.587785
v 0.293260 0.000000 0.809017
v -0.512978 0.000000 0.951057
v -1.084719 0.000000 1.000000
v -1.398837 0.000000 0.951056
v -1.677606 0.000000 0.809017
v -1.898837 0.000000 0.587785
v -2.040877 0.000000 0.309016
v -2.089820 0.000000 -0.000001
v -2.040876 0.000000 -0.309018
v -1.898836 0.000000 -0.587786
v -1.677604 0.000000 -0.809018
v -1.398836 0.000000 -0.951057
v 1.300852 0.000000 -0.000000
v 0.376123 0.000000 -0.000000
v -0.267455 0.000000 -0.000000
v -0.678446 0.000000 -0.000001
v -1.089437 0.000000 -0.000001
v -1.500427 0.000000 -0.000001
v -1.911418 0.000000 -0.000001
v -1.084718 0.746532 -1.000000
v -0.512978 0.746532 -0.951057
v 0.293260 0.746532 -0.809017
v 1.121079 0.746532 -0.587785
v 1.763198 0.746532 -0.309017
v 2.020085 0.746532 0.000000
v 1.763198 0.746532 0.309017
v 1.121080 0.746532 0.587785
v 0.293260 0.746532 0.809017
v -0.512978 0.746532 0.951057
v -1.084719 0.746532 1.000000
v -1.398837 0.746532 0.951056
v -1.677606 0.746532 0.809017
v -1.898837 0.746532 0.587785
v -2.040877 0.746532 0.309016
v -2.089820 0.746532 -0.000001
v -2.040876 0.746532 -0.309018
v -1.898836 0.746532 -0.587786
v -1.677604 0.746532 -0.809018
v -1.398836 0.746532 -0.951057
v 1.300852 0.746532 -0.000000
v 0.376123 0.746532 -0.000000
v -0.267455 0.746532 -0.000000
v -0.678446 0.746532 -0.000001
v -1.089437 0.746532 -0.000001
v -1.500427 0.746532 -0.000001
v -1.911418 0.746532 -0.000001
vt 0.900151 0.569554
vt 0.957971 0.500000
vt 0.796086 0.500000
vt 0.900151 0.430446
vt 0.755623 0.367701
vt 0.043928 0.569554
vt 0.075898 0.632299
vt 0.073067 0.500000
vt 0.043928 0.430446
vt 0.032912 0.500000
vt 0.075898 0.367701
vt 0.165573 0.500000
vt 0.125694 0.682094
vt 0.188439 0.714064
vt 0.258079 0.500000
vt 0.188439 0.285936
vt 0.350585 0.500000
vt 0.259141 0.274919
vt 0.259141 0.725081
vt 0.387828 0.714064
vt 0.443091 0.500000
vt 0.387828 0.285936
vt 0.587948 0.500000
vt 0.569297 0.317906
vt 0.569297 0.682094
vt 0.755623 0.632299
vt 0.125693 0.317906
vt 0.819905 0.500473
vt 0.819905 0.716543
vt 0.728988 0.716543
vt 0.300604 0.500473
vt 0.300604 0.716543
vt 0.486454 0.716543
vt 0.648304 0.500473
vt 0.648304 0.716543
vt 0.728988 0.500473
vt 0.644432 0.500473
vt 0.644432 0.716543
vt 0.554992 0.716543
vt 0.320836 0.500473
vt 0.320836 0.716543
vt 0.384868 0.716543
vt 0.554992 0.500473
vt 0.465553 0.716543
vt 0.384868 0.500473
vt 0.486454 0.500473
vt 0.465553 0.500473
vt 0.061006 0.716543
vt 0.985385 0.716543
vt 0.639871 0.500473
vt 0.639871 0.716543
vt 0.406520 0.716543
vt 0.406520 0.500473
vt 0.725117 0.716543
vt 0.241039 0.716543
vt 0.879470 0.716543
vt 0.584272 0.500473
vt 0.584272 0.716543
vt 0.879470 0.500473
vt 0.241039 0.500473
vt 0.725117 0.500473
vt 0.985385 0.500473
vt 0.061006 0.500473
vn 0.000000 -1.000000 0.000000
vn 0.000000 1.000000 -0.000000
vn -0.154000 0.000000 0.988100
vn 0.398200 0.000000 -0.917300
vn -0.454000 0.000000 -0.891000
vn -0.454000 0.000000 0.891000
vn 0.769000 0.000000 -0.639300
vn -0.154000 0.000000 -0.988100
vn -0.707100 0.000000 0.707100
vn 0.769000 0.000000 0.639300
vn -0.891000 0.000000 0.454000
vn 0.398200 0.000000 0.917300
vn -0.987700 0.000000 0.156400
vn 0.258200 0.000000 0.966100
vn 0.085300 0.000000 -0.996400
vn -0.987700 0.000000 -0.156400
vn 0.173500 0.000000 0.984800
vn 0.173500 0.000000 -0.984800
vn -0.891000 0.000000 -0.454000
vn 0.085300 0.000000 0.996400
vn 0.258200 0.000000 -0.966100
vn -0.707100 0.000000 -0.707100
usemtl Material.003
s off
f 5/1/1 6/2/1 21/3/1
f 7/4/1 8/5/1 21/3/1
f 17/6/1 18/7/1 27/8/1
f 15/9/1 16/10/1 27/8/1
f 14/11/1 27/8/1 26/12/1
f 18/7/1 19/13/1 26/12/1
f 20/14/1 25/15/1 26/12/1
f 26/12/1 25/15/1 12/16/1
f 25/15/1 24/17/1 11/18/1
f 1/19/1 24/17/1 25/15/1
f 2/20/1 23/21/1 24/17/1
f 24/17/1 23/21/1 10/22/1
f 23/21/1 22/23/1 9/24/1
f 3/25/1 22/23/1 23/21/1
f 22/23/1 21/3/1 8/5/1
f 4/26/1 21/3/1 22/23/1
f 48/3/2 33/2/2 32/1/2
f 48/3/2 35/5/2 34/4/2
f 54/8/2 45/7/2 44/6/2
f 42/9/2 41/11/2 54/8/2
f 41/11/2 40/27/2 53/12/2
f 45/7/2 54/8/2 53/12/2
f 53/12/2 52/15/2 47/14/2
f 39/16/2 52/15/2 53/12/2
f 38/18/2 51/17/2 52/15/2
f 52/15/2 51/17/2 28/19/2
f 51/17/2 50/21/2 29/20/2
f 37/22/2 50/21/2 51/17/2
f 36/24/2 49/23/2 50/21/2
f 50/21/2 49/23/2 30/25/2
f 35/5/2 48/3/2 49/23/2
f 49/23/2 48/3/2 31/26/2
f 11/28/3 38/29/3 39/30/3
f 4/31/4 31/32/4 32/33/4
f 19/34/5 46/35/5 47/30/5
f 12/36/6 39/30/6 40/35/6
f 5/37/7 32/38/7 33/39/7
f 20/36/8 47/30/8 28/29/8
f 13/40/9 40/41/9 41/42/9
f 6/43/10 33/39/10 34/44/10
f 14/45/11 41/42/11 42/44/11
f 7/46/12 34/33/12 35/32/12
f 15/47/13 42/44/13 43/39/13
f 8/31/14 35/32/14 36/48/14
f 1/28/15 28/29/15 29/49/15
f 16/43/16 43/39/16 44/38/16
f 9/50/17 36/51/17 37/52/17
f 2/53/18 29/52/18 30/51/18
f 17/37/19 44/38/19 45/54/19
f 10/53/20 37/52/20 38/55/20
f 3/50/21 30/51/21 31/56/21
f 18/57/22 45/58/22 46/35/22
f 4/26/1 5/1/1 21/3/1
f 6/2/1 7/4/1 21/3/1
f 16/10/1 17/6/1 27/8/1
f 14/11/1 15/9/1 27/8/1
f 13/27/1 14/11/1 26/12/1
f 27/8/1 18/7/1 26/12/1
f 19/13/1 20/14/1 26/12/1
f 13/27/1 26/12/1 12/16/1
f 12/16/1 25/15/1 11/18/1
f 20/14/1 1/19/1 25/15/1
f 1/19/1 2/20/1 24/17/1
f 11/18/1 24/17/1 10/22/1
f 10/22/1 23/21/1 9/24/1
f 2/20/1 3/25/1 23/21/1
f 9/24/1 22/23/1 8/5/1
f 3/25/1 4/26/1 22/23/1
f 31/26/2 48/3/2 32/1/2
f 33/2/2 48/3/2 34/4/2
f 43/10/2 54/8/2 44/6/2
f 43/10/2 42/9/2 54/8/2
f 54/8/2 41/11/2 53/12/2
f 46/13/2 45/7/2 53/12/2
f 46/13/2 53/12/2 47/14/2
f 40/27/2 39/16/2 53/12/2
f 39/16/2 38/18/2 52/15/2
f 47/14/2 52/15/2 28/19/2
f 28/19/2 51/17/2 29/20/2
f 38/18/2 37/22/2 51/17/2
f 37/22/2 36/24/2 50/21/2
f 29/20/2 50/21/2 30/25/2
f 36/24/2 35/5/2 49/23/2
f 30/25/2 49/23/2 31/26/2
f 12/36/3 11/28/3 39/30/3
f 5/46/4 4/31/4 32/33/4
f 20/36/5 19/34/5 47/30/5
f 13/34/6 12/36/6 40/35/6
f 6/43/7 5/37/7 33/39/7
f 1/28/8 20/36/8 28/29/8
f 14/45/9 13/40/9 41/42/9
f 7/47/10 6/43/10 34/44/10
f 15/47/11 14/45/11 42/44/11
f 8/31/12 7/46/12 35/32/12
f 16/43/13 15/47/13 43/39/13
f 9/50/14 8/59/14 36/51/14
f 2/53/15 1/60/15 29/52/15
f 17/37/16 16/43/16 44/38/16
f 10/53/17 9/50/17 37/52/17
f 3/50/18 2/53/18 30/51/18
f 18/61/19 17/37/19 45/54/19
f 11/28/20 10/62/20 38/29/20
f 4/31/21 3/63/21 31/32/21
f 19/34/22 18/57/22 46/35/22
