# Blender v2.76 (sub 0) OBJ File: ''
# www.blender.org
mtllib table7.mtl
o Circle_Circle.003
v -9.714300 -1.759131 -13.231600
v -9.825962 -1.593298 9.868281
v 0.000292 -1.594836 9.915780
v -0.014387 -1.573038 12.952190
v -9.359703 -1.571575 12.907005
v -7.977221 -1.552129 15.652928
v -0.027628 -1.553374 15.691366
v -5.813848 -1.536864 17.837265
v -0.038125 -1.537768 17.865181
v 5.737588 -1.538672 17.893108
v 7.921979 -1.554618 15.729792
v 0.111954 -1.760670 -13.184090
v 9.826543 -1.596375 9.963290
v 9.330939 -1.574501 12.997367
v 2.991597 -1.528224 19.275547
v -3.081352 -1.527273 19.246185
v -0.047207 -1.524296 19.741779
v -9.713816 0.775035 -13.249790
v -9.825478 0.940867 9.850091
v 9.827027 0.937790 9.945100
v 9.938690 0.771958 -13.154779
v -0.046723 1.009868 19.723591
v 2.992082 1.005940 19.257359
v -9.359219 0.962590 12.888815
v 0.112438 0.773496 -13.202278
v 5.738073 0.995492 17.874916
v -7.976736 0.982035 15.634739
v 7.922464 0.979546 15.711601
v -5.813364 0.997301 17.819075
v 9.331424 0.959663 12.979177
v -3.080867 1.006891 19.227997
v 9.938206 -1.762208 -13.136589
v 0.000235 -1.889620 9.917896
v -10.038830 -1.796495 9.885456
v -9.883709 -1.930513 -13.401388
v -8.154163 -1.749718 15.781574
v -9.567292 -1.769595 12.974756
v -0.014444 -1.867821 12.954307
v -5.942815 -1.734115 18.014339
v -0.027685 -1.848157 15.693481
v 5.864774 -1.735963 18.071419
v -0.038181 -1.832552 17.867298
v 8.097592 -1.752263 15.860142
v 0.112921 -1.970607 -13.391033
v 10.109197 -1.933643 -13.304731
v 9.537793 -1.772586 13.067121
v 3.057887 -1.725283 19.484509
v -0.048298 -1.721268 19.961088
v -3.149720 -1.724311 19.454504
v -10.119462 0.941079 9.871790
v -9.921241 0.773571 -13.459240
v 10.120789 0.937910 9.969643
v 10.039172 -1.799639 9.982523
v 3.081816 1.007939 19.538143
v -0.048147 1.011984 20.018360
v 0.113863 0.771380 -13.497061
v 5.910186 0.997177 18.114231
v -8.216068 0.983316 15.806848
v -9.640020 0.963287 12.978549
v -5.987784 0.999040 18.056713
v 8.160107 0.980752 15.886017
v 9.611338 0.960273 13.071619
v -3.173310 1.008918 19.507900
v 10.148132 0.770429 -13.362211
vt 0.659112 0.246330
vt 0.659112 0.688904
vt 0.470855 0.688903
vt 0.470855 0.747078
vt 0.649898 0.747078
vt 0.623158 0.799559
vt 0.470855 0.799558
vt 0.581510 0.841207
vt 0.470855 0.841207
vt 0.360200 0.841207
vt 0.318551 0.799558
vt 0.470855 0.246330
vt 0.282597 0.688903
vt 0.291811 0.747078
vt 0.412680 0.867947
vt 0.529029 0.867947
vt 0.470855 0.877161
vt 0.250000 1.000000
vt 0.000000 1.000000
vt 0.000000 0.276051
vt 0.500000 0.723949
vt 0.250000 0.723949
vt 0.250000 0.000000
vt 1.000000 0.192158
vt 0.750000 0.192158
vt 0.750000 0.093669
vt 0.250000 0.276051
vt 0.000000 0.177695
vt 0.750000 0.314793
vt 0.500000 0.314793
vt 0.500000 0.000000
vt 1.000000 0.093669
vt 0.750000 0.000000
vt 0.250000 0.177695
vt 0.000000 0.082574
vt 0.500000 1.000000
vt 0.250001 0.917426
vt 0.250000 0.082574
vt 0.000000 0.000000
vt 0.500000 0.917426
vt 0.250001 0.822305
vt 1.000000 0.365505
vt 0.750000 0.365505
vt 0.750000 0.285826
vt 0.500000 0.822305
vt 1.000000 0.285826
vt 0.750000 0.629587
vt 0.500000 0.629587
vt 0.663188 0.689224
vt 0.662373 0.243069
vt 0.626536 0.802012
vt 0.653868 0.748368
vt 0.583963 0.844584
vt 0.357746 0.844584
vt 0.315174 0.802012
vt 0.470855 0.242336
vt 0.279337 0.243069
vt 0.287841 0.748368
vt 0.411390 0.871917
vt 0.470855 0.881335
vt 0.530319 0.871917
vt 0.251894 0.720471
vt 0.261166 0.000000
vt 0.503709 0.001329
vt 0.000039 0.279529
vt 0.245674 0.279300
vt 0.251854 0.998671
vt 0.751097 0.276049
vt 0.749805 0.176038
vt 0.994998 0.176025
vt 0.497528 0.720700
vt 0.497045 0.819272
vt 0.749805 0.316934
vt 0.503709 0.316917
vt 0.507236 0.001191
vt 0.754845 0.371161
vt 0.996279 0.275276
vt 0.254152 0.916200
vt 0.251854 0.819633
vt 0.006715 0.000000
vt 0.251854 0.001731
vt 0.247471 0.084894
vt 0.258569 1.000000
vt 0.499325 0.915106
vt 0.002298 0.083800
vt 0.245191 0.180727
vt 0.754845 0.000000
vt 1.000000 0.001324
vt 0.996280 0.081628
vt 0.000000 0.180367
vt 0.751097 0.080918
vt 0.749450 0.633868
vt 0.506883 0.632643
vt 0.470855 0.882808
vt 0.410935 0.873318
vt 0.356880 0.845776
vt 0.313982 0.802878
vt 0.286440 0.748823
vt 0.276967 0.689346
vt 0.282597 0.246330
vt 0.278604 0.242336
vt 0.470855 0.240682
vt 0.663106 0.242337
vt 0.664743 0.689346
vt 0.655270 0.748823
vt 0.627727 0.802878
vt 0.584829 0.845776
vt 0.530775 0.873318
vt 1.000000 0.000000
vt 0.278521 0.689224
vt 0.009312 1.000000
vt 0.749805 0.000000
vt 1.000000 0.369666
vt 0.503709 0.998269
vn 0.000200 1.000000 -0.007200
vn 1.000000 -0.000200 0.004800
vn -1.000000 0.000200 -0.004800
vn -0.151700 -0.007100 -0.988400
vn 0.988400 -0.001300 -0.151700
vn -0.004800 0.007200 1.000000
vn -0.449700 -0.006300 -0.893200
vn 0.893200 -0.003400 -0.449700
vn -0.703700 -0.005000 -0.710500
vn 0.710500 -0.005200 -0.703700
vn -0.888800 -0.003100 -0.458300
vn 0.458300 -0.006500 -0.888800
vn -0.986900 -0.001000 -0.161200
vn 0.161200 -0.007100 -0.986900
vn -0.009300 -0.999900 0.005700
vn -0.010300 -0.999900 0.012200
vn -0.011900 -0.999800 0.018800
vn 0.016100 -0.999800 0.007300
vn 0.011700 -0.999900 0.007200
vn 0.003700 -1.000000 0.003500
vn 0.009900 -0.999900 0.007200
vn -0.009300 -0.999900 0.010100
vn 0.015100 -0.999200 0.037500
vn -0.007700 -0.998600 0.053000
vn -0.999900 -0.014100 -0.008400
vn 0.999600 -0.029800 0.003200
vn 0.151600 -0.020700 0.988200
vn -0.988100 -0.028400 0.151100
vn 0.000900 -0.038600 -0.999300
vn 0.449500 -0.021500 0.893000
vn -0.892900 -0.024400 0.449700
vn 0.703400 -0.022800 0.710400
vn -0.710200 -0.022600 0.703600
vn 0.888500 -0.024700 0.458300
vn -0.458100 -0.021300 0.888600
vn 0.986400 -0.026800 0.162200
vn -0.161100 -0.020700 0.986700
vn 0.013400 -0.021400 -0.999700
vn -0.004000 -1.000000 0.003500
vn -0.012000 -0.999900 0.007100
vn -0.016500 -0.999800 0.007100
vn 0.011400 -0.999800 0.018900
vn 0.009800 -0.999900 0.012300
vn 0.008900 -0.999900 0.005800
vn 0.008900 -0.999900 0.010200
vn -0.010300 -0.999900 0.007100
vn 0.006900 -0.998600 0.053100
vn -0.015700 -0.999200 0.037300
vn -0.999500 -0.029500 -0.006500
vn 0.999900 -0.014400 0.001300
vn -0.987900 -0.026500 0.152600
vn -0.003800 -0.021400 -0.999800
vn 0.986600 -0.028700 0.160600
vn 0.008800 -0.038600 -0.999200
usemtl None
s 1
f 1/1/1 2/2/1 3/3/1
f 4/4/1 5/5/1 6/6/1
f 7/7/1 6/6/1 8/8/1
f 7/7/1 9/9/1 10/10/1
f 4/4/1 7/7/1 11/11/1
f 12/12/1 3/3/1 13/13/1
f 3/3/1 4/4/1 14/14/1
f 3/3/1 2/2/1 5/5/1
f 15/15/1 10/10/1 9/9/1
f 16/16/1 17/17/1 9/9/1
f 1/18/2 18/19/2 19/20/2
f 13/21/3 20/22/3 21/23/3
f 17/24/4 22/25/4 23/26/4
f 2/27/5 19/20/5 24/28/5
f 12/29/6 25/30/6 18/31/6
f 15/32/7 23/26/7 26/33/7
f 5/34/8 24/28/8 27/35/8
f 10/36/9 26/18/9 28/37/9
f 6/38/10 27/35/10 29/39/10
f 11/40/11 28/37/11 30/41/11
f 8/42/12 29/43/12 31/44/12
f 14/45/13 30/41/13 20/22/13
f 16/46/14 31/44/14 22/25/14
f 32/47/6 21/48/6 25/30/6
f 33/3/15 34/49/15 35/50/15
f 36/51/16 37/52/16 38/4/16
f 39/53/17 36/51/17 40/7/17
f 41/54/18 42/9/18 40/7/18
f 43/55/19 40/7/19 38/4/19
f 33/3/20 44/56/20 45/57/20
f 46/58/21 38/4/21 33/3/21
f 37/52/22 34/49/22 33/3/22
f 42/9/23 41/54/23 47/59/23
f 42/9/24 48/60/24 49/61/24
f 50/62/25 51/63/25 35/64/25
f 52/65/26 53/66/26 45/67/26
f 54/68/27 55/69/27 48/70/27
f 50/62/28 34/71/28 37/72/28
f 56/73/29 44/74/29 35/75/29
f 57/76/30 54/68/30 47/77/30
f 58/78/31 59/79/31 37/72/31
f 57/80/32 41/81/32 43/82/32
f 60/83/33 58/78/33 36/84/33
f 61/85/34 43/82/34 46/86/34
f 60/87/35 39/88/35 49/89/35
f 52/65/36 62/90/36 46/86/36
f 63/91/37 49/89/37 48/70/37
f 56/73/38 64/92/38 45/93/38
f 22/17/1 55/94/1 54/95/1
f 23/15/1 54/95/1 57/96/1
f 26/10/1 57/96/1 61/97/1
f 30/14/1 28/11/1 61/97/1
f 30/14/1 62/98/1 52/99/1
f 21/100/1 64/101/1 56/102/1
f 18/1/1 51/103/1 50/104/1
f 21/100/1 20/13/1 52/99/1
f 24/5/1 19/2/1 50/104/1
f 24/5/1 59/105/1 58/106/1
f 27/6/1 58/106/1 60/107/1
f 31/16/1 29/8/1 60/107/1
f 22/17/1 31/16/1 63/108/1
f 18/1/1 25/12/1 56/102/1
f 12/12/1 1/1/1 3/3/1
f 7/7/1 4/4/1 6/6/1
f 9/9/1 7/7/1 8/8/1
f 11/11/1 7/7/1 10/10/1
f 14/14/1 4/4/1 11/11/1
f 32/100/1 12/12/1 13/13/1
f 13/13/1 3/3/1 14/14/1
f 4/4/1 3/3/1 5/5/1
f 17/17/1 15/15/1 9/9/1
f 8/8/1 16/16/1 9/9/1
f 2/27/2 1/18/2 19/20/2
f 32/31/3 13/21/3 21/23/3
f 15/32/4 17/24/4 23/26/4
f 5/34/5 2/27/5 24/28/5
f 1/33/6 12/29/6 18/31/6
f 10/109/7 15/32/7 26/33/7
f 6/38/8 5/34/8 27/35/8
f 11/40/9 10/36/9 28/37/9
f 8/23/10 6/38/10 29/39/10
f 14/45/11 11/40/11 30/41/11
f 16/46/12 8/42/12 31/44/12
f 13/21/13 14/45/13 20/22/13
f 17/24/14 16/46/14 22/25/14
f 12/29/6 32/47/6 25/30/6
f 44/56/39 33/3/39 35/50/39
f 40/7/40 36/51/40 38/4/40
f 42/9/41 39/53/41 40/7/41
f 43/55/42 41/54/42 40/7/42
f 46/58/43 43/55/43 38/4/43
f 53/110/44 33/3/44 45/57/44
f 53/110/45 46/58/45 33/3/45
f 38/4/46 37/52/46 33/3/46
f 48/60/47 42/9/47 47/59/47
f 39/53/48 42/9/48 49/61/48
f 34/71/49 50/62/49 35/64/49
f 64/111/50 52/65/50 45/67/50
f 47/77/27 54/68/27 48/70/27
f 59/79/51 50/62/51 37/72/51
f 51/112/52 56/73/52 35/75/52
f 41/113/30 57/76/30 47/77/30
f 36/84/31 58/78/31 37/72/31
f 61/85/32 57/80/32 43/82/32
f 39/114/33 60/83/33 36/84/33
f 62/90/34 61/85/34 46/86/34
f 63/91/35 60/87/35 49/89/35
f 53/66/53 52/65/53 46/86/53
f 55/69/37 63/91/37 48/70/37
f 44/74/54 56/73/54 45/93/54
f 23/15/1 22/17/1 54/95/1
f 26/10/1 23/15/1 57/96/1
f 28/11/1 26/10/1 61/97/1
f 62/98/1 30/14/1 61/97/1
f 20/13/1 30/14/1 52/99/1
f 25/12/1 21/100/1 56/102/1
f 19/2/1 18/1/1 50/104/1
f 64/101/1 21/100/1 52/99/1
f 59/105/1 24/5/1 50/104/1
f 27/6/1 24/5/1 58/106/1
f 29/8/1 27/6/1 60/107/1
f 63/108/1 31/16/1 60/107/1
f 55/94/1 22/17/1 63/108/1
f 51/103/1 18/1/1 56/102/1
