# Blender v2.76 (sub 0) OBJ File: ''
# www.blender.org
mtllib table2.mtl
o Circle_Circle.003
v 5.692469 -0.000001 13.382386
v 5.692469 0.000000 -0.000006
v 0.000000 0.000000 0.000000
v 0.000000 0.000000 -1.759075
v 5.413857 0.000000 -1.759075
v 4.605299 0.000000 -3.345954
v 0.000000 0.000000 -3.345954
v 3.345942 0.000000 -4.605310
v -0.000006 0.000000 -4.605304
v -3.345948 0.000000 -4.605304
v -4.605304 0.000000 -3.345948
v 0.000000 -0.000001 13.382386
v -5.692469 0.000000 0.000000
v -5.413863 0.000000 -1.759070
v -1.759070 0.000000 -5.413863
v 1.759064 0.000000 -5.413863
v 0.000000 0.000000 -5.692469
v 5.692469 1.468093 13.382386
v 5.692469 1.468094 -0.000006
v -5.692469 1.468094 0.000000
v -5.692469 1.468093 13.382391
v 0.000000 1.468094 -5.692469
v -1.759070 1.468094 -5.413863
v 5.413857 1.468094 -1.759075
v 0.000000 1.468093 13.382386
v -3.345948 1.468094 -4.605304
v 4.605299 1.468094 -3.345954
v -4.605304 1.468094 -3.345948
v 3.345942 1.468094 -4.605310
v -5.413863 1.468094 -1.759070
v 1.759064 1.468094 -5.413863
v -5.692469 -0.000001 13.382391
v 0.000000 -0.170774 -0.000000
v 5.815717 -0.117806 -0.009706
v 5.791069 -0.098594 13.480979
v 4.707421 -0.115016 -3.420149
v 5.533906 -0.115016 -1.798080
v 0.000000 -0.170774 -1.759075
v 3.420138 -0.115016 -4.707427
v 0.000000 -0.170774 -3.345954
v -3.420144 -0.115016 -4.707421
v -0.000006 -0.170774 -4.605304
v -4.707421 -0.115016 -3.420144
v 0.000000 -0.120755 13.503140
v -5.791069 -0.098594 13.480985
v -5.533906 -0.115016 -1.798075
v -1.798075 -0.115016 -5.533906
v 0.000000 -0.115016 -5.818694
v 1.798069 -0.115016 -5.533911
v 5.862714 1.468094 -0.013400
v 5.813218 1.468093 13.503140
v -5.862714 1.468094 -0.013394
v -5.815717 -0.117806 -0.009700
v -1.811839 1.468094 -5.576274
v 0.000000 1.468094 -5.863237
v 0.000000 1.468093 13.553160
v -3.446323 1.468094 -4.743461
v 4.743461 1.468094 -3.446329
v 5.576274 1.468094 -1.811844
v 3.446318 1.468094 -4.743466
v -4.743461 1.468094 -3.446323
v -5.576274 1.468094 -1.811839
v 1.811833 1.468094 -5.576274
v -5.813218 1.468093 13.503146
vt 0.659112 0.246330
vt 0.659112 0.688904
vt 0.470855 0.688903
vt 0.470855 0.747078
vt 0.649898 0.747078
vt 0.623158 0.799559
vt 0.470855 0.799558
vt 0.581510 0.841207
vt 0.470855 0.841207
vt 0.360200 0.841207
vt 0.318551 0.799558
vt 0.470855 0.246330
vt 0.282597 0.688903
vt 0.291811 0.747078
vt 0.412680 0.867947
vt 0.529029 0.867947
vt 0.470855 0.877161
vt 0.250000 1.000000
vt 0.000000 1.000000
vt 0.000000 0.276051
vt 0.500000 0.723949
vt 0.250000 0.723949
vt 0.250000 0.000000
vt 1.000000 0.192158
vt 0.750000 0.192158
vt 0.750000 0.093669
vt 0.250000 0.276051
vt 0.000000 0.177695
vt 0.750000 0.314793
vt 0.500000 0.314793
vt 0.500000 0.000000
vt 1.000000 0.093669
vt 0.750000 0.000000
vt 0.250000 0.177695
vt 0.000000 0.082574
vt 0.500000 1.000000
vt 0.250001 0.917426
vt 0.250000 0.082574
vt 0.000000 0.000000
vt 0.500000 0.917426
vt 0.250001 0.822305
vt 1.000000 0.365505
vt 0.750000 0.365505
vt 0.750000 0.285826
vt 0.500000 0.822305
vt 1.000000 0.285826
vt 0.750000 0.629587
vt 0.500000 0.629587
vt 0.663188 0.689224
vt 0.662373 0.243069
vt 0.626536 0.802012
vt 0.653868 0.748368
vt 0.583963 0.844584
vt 0.357746 0.844584
vt 0.315174 0.802012
vt 0.470855 0.242336
vt 0.279337 0.243069
vt 0.287841 0.748368
vt 0.411390 0.871917
vt 0.470855 0.881335
vt 0.530319 0.871917
vt 0.251894 0.720471
vt 0.261166 0.000000
vt 0.503709 0.001329
vt 0.000039 0.279529
vt 0.245674 0.279300
vt 0.251854 0.998671
vt 0.751097 0.276049
vt 0.749805 0.176038
vt 0.994998 0.176025
vt 0.497528 0.720700
vt 0.497045 0.819272
vt 0.749805 0.316934
vt 0.503709 0.316917
vt 0.507236 0.001191
vt 0.754845 0.371161
vt 0.996279 0.275276
vt 0.254152 0.916200
vt 0.251854 0.819633
vt 0.006715 0.000000
vt 0.251854 0.001731
vt 0.247471 0.084894
vt 0.258569 1.000000
vt 0.499325 0.915106
vt 0.002298 0.083800
vt 0.245191 0.180727
vt 0.754845 0.000000
vt 1.000000 0.001324
vt 0.996280 0.081628
vt 0.000000 0.180367
vt 0.751097 0.080918
vt 0.749450 0.633868
vt 0.506883 0.632643
vt 0.470855 0.882808
vt 0.410935 0.873318
vt 0.356880 0.845776
vt 0.313982 0.802878
vt 0.286440 0.748823
vt 0.276967 0.689346
vt 0.282597 0.246330
vt 0.278604 0.242336
vt 0.470855 0.240682
vt 0.663106 0.242337
vt 0.664743 0.689346
vt 0.655270 0.748823
vt 0.627727 0.802878
vt 0.584829 0.845776
vt 0.530775 0.873318
vt 1.000000 0.000000
vt 0.278521 0.689224
vt 0.009312 1.000000
vt 0.749805 0.000000
vt 1.000000 0.369666
vt 0.503709 0.998269
vn 0.000000 1.000000 0.000000
vn -1.000000 0.000000 0.000000
vn 1.000000 0.000000 0.000000
vn 0.156400 0.000000 0.987700
vn -0.987700 0.000000 0.156400
vn -0.000000 0.000000 -1.000000
vn 0.454000 0.000000 0.891000
vn -0.891000 0.000000 0.454000
vn 0.707100 0.000000 0.707100
vn -0.707100 0.000000 0.707100
vn 0.891000 0.000000 0.454000
vn -0.454000 0.000000 0.891000
vn 0.987700 0.000000 0.156400
vn -0.156400 0.000000 0.987700
vn 0.009100 -1.000000 0.001400
vn 0.010000 -0.999900 -0.005100
vn 0.011700 -0.999900 -0.011700
vn -0.016300 -0.999900 0.000000
vn -0.011800 -0.999900 -0.000000
vn -0.003800 -1.000000 0.003700
vn -0.010100 -0.999900 -0.000000
vn 0.009100 -1.000000 -0.003000
vn -0.015400 -0.999400 -0.030200
vn 0.007300 -0.998900 -0.045900
vn 0.999900 -0.014200 0.003700
vn -0.999600 -0.029600 0.001900
vn -0.156400 -0.027800 -0.987300
vn 0.987400 -0.029600 -0.155600
vn 0.003900 -0.031500 0.999500
vn -0.453800 -0.027800 -0.890700
vn 0.890700 -0.027800 -0.453800
vn -0.706800 -0.027800 -0.706800
vn 0.706800 -0.027800 -0.706800
vn -0.890700 -0.027800 -0.453800
vn 0.453800 -0.027800 -0.890700
vn -0.987200 -0.027800 -0.157200
vn 0.156400 -0.027800 -0.987300
vn -0.008600 -0.014300 0.999900
vn 0.003800 -1.000000 0.003700
vn 0.011800 -0.999900 -0.000000
vn 0.016300 -0.999900 -0.000000
vn -0.011700 -0.999900 -0.011700
vn -0.010000 -0.999900 -0.005100
vn -0.009100 -1.000000 0.001400
vn -0.009100 -1.000000 -0.003000
vn 0.010100 -0.999900 -0.000000
vn -0.007300 -0.998900 -0.045900
vn 0.015400 -0.999400 -0.030200
vn 0.999600 -0.029600 0.001900
vn -0.999900 -0.014200 0.003700
vn 0.987200 -0.027800 -0.157200
vn 0.008600 -0.014300 0.999900
vn -0.987400 -0.029600 -0.155600
vn -0.003900 -0.031500 0.999500
usemtl None
s 1
f 1/1/1 2/2/1 3/3/1
f 4/4/1 5/5/1 6/6/1
f 7/7/1 6/6/1 8/8/1
f 7/7/1 9/9/1 10/10/1
f 4/4/1 7/7/1 11/11/1
f 12/12/1 3/3/1 13/13/1
f 3/3/1 4/4/1 14/14/1
f 3/3/1 2/2/1 5/5/1
f 15/15/1 10/10/1 9/9/1
f 16/16/1 17/17/1 9/9/1
f 1/18/2 18/19/2 19/20/2
f 13/21/3 20/22/3 21/23/3
f 17/24/4 22/25/4 23/26/4
f 2/27/5 19/20/5 24/28/5
f 12/29/6 25/30/6 18/31/6
f 15/32/7 23/26/7 26/33/7
f 5/34/8 24/28/8 27/35/8
f 10/36/9 26/18/9 28/37/9
f 6/38/10 27/35/10 29/39/10
f 11/40/11 28/37/11 30/41/11
f 8/42/12 29/43/12 31/44/12
f 14/45/13 30/41/13 20/22/13
f 16/46/14 31/44/14 22/25/14
f 32/47/6 21/48/6 25/30/6
f 33/3/15 34/49/15 35/50/15
f 36/51/16 37/52/16 38/4/16
f 39/53/17 36/51/17 40/7/17
f 41/54/18 42/9/18 40/7/18
f 43/55/19 40/7/19 38/4/19
f 33/3/20 44/56/20 45/57/20
f 46/58/21 38/4/21 33/3/21
f 37/52/22 34/49/22 33/3/22
f 42/9/23 41/54/23 47/59/23
f 42/9/24 48/60/24 49/61/24
f 50/62/25 51/63/25 35/64/25
f 52/65/26 53/66/26 45/67/26
f 54/68/27 55/69/27 48/70/27
f 50/62/28 34/71/28 37/72/28
f 56/73/29 44/74/29 35/75/29
f 57/76/30 54/68/30 47/77/30
f 58/78/31 59/79/31 37/72/31
f 57/80/32 41/81/32 43/82/32
f 60/83/33 58/78/33 36/84/33
f 61/85/34 43/82/34 46/86/34
f 60/87/35 39/88/35 49/89/35
f 52/65/36 62/90/36 46/86/36
f 63/91/37 49/89/37 48/70/37
f 56/73/38 64/92/38 45/93/38
f 22/17/1 55/94/1 54/95/1
f 23/15/1 54/95/1 57/96/1
f 26/10/1 57/96/1 61/97/1
f 30/14/1 28/11/1 61/97/1
f 30/14/1 62/98/1 52/99/1
f 21/100/1 64/101/1 56/102/1
f 18/1/1 51/103/1 50/104/1
f 21/100/1 20/13/1 52/99/1
f 24/5/1 19/2/1 50/104/1
f 24/5/1 59/105/1 58/106/1
f 27/6/1 58/106/1 60/107/1
f 31/16/1 29/8/1 60/107/1
f 22/17/1 31/16/1 63/108/1
f 18/1/1 25/12/1 56/102/1
f 12/12/1 1/1/1 3/3/1
f 7/7/1 4/4/1 6/6/1
f 9/9/1 7/7/1 8/8/1
f 11/11/1 7/7/1 10/10/1
f 14/14/1 4/4/1 11/11/1
f 32/100/1 12/12/1 13/13/1
f 13/13/1 3/3/1 14/14/1
f 4/4/1 3/3/1 5/5/1
f 17/17/1 15/15/1 9/9/1
f 8/8/1 16/16/1 9/9/1
f 2/27/2 1/18/2 19/20/2
f 32/31/3 13/21/3 21/23/3
f 15/32/4 17/24/4 23/26/4
f 5/34/5 2/27/5 24/28/5
f 1/33/6 12/29/6 18/31/6
f 10/109/7 15/32/7 26/33/7
f 6/38/8 5/34/8 27/35/8
f 11/40/9 10/36/9 28/37/9
f 8/23/10 6/38/10 29/39/10
f 14/45/11 11/40/11 30/41/11
f 16/46/12 8/42/12 31/44/12
f 13/21/13 14/45/13 20/22/13
f 17/24/14 16/46/14 22/25/14
f 12/29/6 32/47/6 25/30/6
f 44/56/39 33/3/39 35/50/39
f 40/7/40 36/51/40 38/4/40
f 42/9/41 39/53/41 40/7/41
f 43/55/42 41/54/42 40/7/42
f 46/58/43 43/55/43 38/4/43
f 53/110/44 33/3/44 45/57/44
f 53/110/45 46/58/45 33/3/45
f 38/4/46 37/52/46 33/3/46
f 48/60/47 42/9/47 47/59/47
f 39/53/48 42/9/48 49/61/48
f 34/71/49 50/62/49 35/64/49
f 64/111/50 52/65/50 45/67/50
f 47/77/27 54/68/27 48/70/27
f 59/79/51 50/62/51 37/72/51
f 51/112/52 56/73/52 35/75/52
f 41/113/30 57/76/30 47/77/30
f 36/84/31 58/78/31 37/72/31
f 61/85/32 57/80/32 43/82/32
f 39/114/33 60/83/33 36/84/33
f 62/90/34 61/85/34 46/86/34
f 63/91/35 60/87/35 49/89/35
f 53/66/53 52/65/53 46/86/53
f 55/69/37 63/91/37 48/70/37
f 44/74/54 56/73/54 45/93/54
f 23/15/1 22/17/1 54/95/1
f 26/10/1 23/15/1 57/96/1
f 28/11/1 26/10/1 61/97/1
f 62/98/1 30/14/1 61/97/1
f 20/13/1 30/14/1 52/99/1
f 25/12/1 21/100/1 56/102/1
f 19/2/1 18/1/1 50/104/1
f 64/101/1 21/100/1 52/99/1
f 59/105/1 24/5/1 50/104/1
f 27/6/1 24/5/1 58/106/1
f 29/8/1 27/6/1 60/107/1
f 63/108/1 31/16/1 60/107/1
f 55/94/1 22/17/1 63/108/1
f 51/103/1 18/1/1 56/102/1
