# Blender v2.76 (sub 0) OBJ File: 'blender.blend'
# www.blender.org
mtllib table.mtl
o Circle_Circle.001
v 0.000000 0.000000 -1.000000
v -0.500000 0.000000 -0.866025
v -0.866025 0.000000 -0.500000
v -0.869422 0.000000 0.005231
v -0.869422 0.000000 1.388125
v -0.869422 0.000000 2.403460
v -0.000000 0.000000 2.877536
v 0.869422 0.000000 2.403460
v 0.869422 0.000000 1.388125
v 0.869422 0.000000 0.005231
v 0.866026 0.000000 -0.499999
v 0.500001 0.000000 -0.866025
v -0.000000 0.000000 -0.353744
v -0.000000 0.000000 0.292512
v -0.000000 0.000000 1.585024
v 0.000000 0.423430 -1.000000
v -0.500000 0.423430 -0.866025
v -0.866025 0.423430 -0.500000
v -0.869422 0.423430 0.005231
v -0.869422 0.423430 1.388125
v -0.869422 0.423430 2.403460
v -0.000000 0.423430 2.877536
v 0.869422 0.423430 2.403460
v 0.869422 0.423430 1.388125
v 0.869422 0.423430 0.005231
v 0.866026 0.423430 -0.499999
v 0.500001 0.423430 -0.866025
v 0.000000 0.039846 -0.953815
v -0.476908 0.039846 -0.826026
v -0.822359 0.038480 -0.481741
v -0.826244 0.043087 0.005374
v -0.826290 0.043132 1.388125
v -0.827789 0.037102 2.378741
v -0.000000 0.037426 2.829369
v 0.827789 0.037102 2.378741
v 0.826290 0.043132 1.388125
v 0.826244 0.043087 0.005375
v 0.822359 0.038480 -0.481741
v 0.476909 0.039846 -0.826026
v -0.000000 0.061000 -0.353744
v -0.000000 0.061000 0.292512
v -0.000000 0.061000 1.585024
v 0.000000 0.423430 -0.939000
v -0.469501 0.423430 -0.813198
v -0.809748 0.423430 -0.476467
v -0.808424 0.423430 0.005436
v -0.808422 0.423430 1.388125
v -0.816971 0.423430 2.372318
v -0.000000 0.423430 2.816536
v 0.816971 0.423430 2.372318
v 0.808422 0.423430 1.388125
v 0.808424 0.423430 0.005436
v 0.809749 0.423430 -0.476467
v 0.469502 0.423430 -0.813198
vn 0.000000 -1.000000 0.000000
vn 1.000000 0.000000 -0.006700
vn 0.478700 0.000000 0.878000
vn -1.000000 0.000000 0.000000
vn 0.707100 0.000000 -0.707100
vn -0.258800 0.000000 -0.965900
vn 1.000000 0.000000 0.000000
vn 0.258800 0.000000 -0.965900
vn -0.707100 0.000000 -0.707100
vn -0.478700 0.000000 0.878000
vn -1.000000 0.000000 -0.006700
vn -0.024200 0.999500 -0.020300
vn 0.009400 0.999300 -0.035200
vn 0.021700 0.999800 -0.000000
vn 0.021600 0.999800 0.000000
vn -0.025900 0.999600 -0.009700
vn 0.023100 0.999700 0.006100
vn -0.021700 0.999800 -0.000000
vn -0.023100 0.999700 0.006100
vn -0.998900 -0.046800 -0.002700
vn -0.477500 -0.029200 -0.878200
vn 0.998900 -0.046900 -0.000000
vn -0.702900 -0.037300 0.710300
vn 0.258600 -0.037300 0.965300
vn -0.998900 -0.046900 0.008700
vn 0.998900 -0.046900 0.008700
vn -0.258600 -0.037300 0.965300
vn 0.702900 -0.037300 0.710300
vn -0.998900 -0.046900 -0.000000
vn 0.477500 -0.029200 -0.878200
vn 0.998900 -0.046800 -0.002700
vn 0.000000 1.000000 0.000000
vn -0.009400 0.999300 -0.035200
vn 0.024200 0.999500 -0.020300
vn 0.025900 0.999600 -0.009700
vn 0.010700 0.999800 0.018900
vn -0.021600 0.999800 0.000000
vn -0.010700 0.999800 0.018900
vn -0.999400 -0.032900 0.008300
vn -0.477900 -0.028000 -0.877900
vn 0.998900 -0.046800 0.000000
vn -0.705600 -0.032800 0.707900
vn -0.999600 -0.028000 0.001300
vn 0.999600 -0.028000 0.001300
vn 0.705600 -0.032800 0.707900
vn -0.998900 -0.046800 0.000000
vn 0.477900 -0.028000 -0.877900
vn 0.999400 -0.032900 0.008300
usemtl None
s off
f 13//1 3//1 2//1
f 13//1 1//1 12//1
f 10//1 14//1 13//1
f 9//1 15//1 14//1
f 4//1 3//1 13//1
f 15//1 9//1 8//1
f 5//1 4//1 14//1
f 6//1 5//1 15//1
f 26//2 25//2 10//2
f 23//3 22//3 7//3
f 20//4 19//4 4//4
f 27//5 26//5 11//5
f 17//6 16//6 1//6
f 24//7 23//7 8//7
f 21//4 20//4 5//4
f 16//8 27//8 12//8
f 18//9 17//9 2//9
f 25//7 24//7 9//7
f 22//10 21//10 6//10
f 19//11 18//11 3//11
f 29//12 30//12 40//12
f 39//13 28//13 40//13
f 40//14 41//14 37//14
f 41//15 42//15 36//15
f 40//16 30//16 31//16
f 35//17 36//17 42//17
f 41//18 31//18 32//18
f 42//19 32//19 33//19
f 37//20 52//20 53//20
f 34//21 49//21 50//21
f 46//22 47//22 32//22
f 53//23 54//23 39//23
f 28//24 43//24 44//24
f 50//25 51//25 36//25
f 32//26 47//26 48//26
f 54//27 43//27 28//27
f 29//28 44//28 45//28
f 36//29 51//29 52//29
f 48//30 49//30 34//30
f 45//31 46//31 31//31
f 17//32 44//32 43//32
f 17//32 18//32 45//32
f 19//32 46//32 45//32
f 20//32 47//32 46//32
f 20//32 21//32 48//32
f 22//32 49//32 48//32
f 22//32 23//32 50//32
f 24//32 51//32 50//32
f 24//32 25//32 52//32
f 25//32 26//32 53//32
f 27//32 54//32 53//32
f 27//32 16//32 43//32
f 1//1 13//1 2//1
f 11//1 13//1 12//1
f 11//1 10//1 13//1
f 10//1 9//1 14//1
f 14//1 4//1 13//1
f 7//1 15//1 8//1
f 15//1 5//1 14//1
f 7//1 6//1 15//1
f 11//2 26//2 10//2
f 8//3 23//3 7//3
f 5//4 20//4 4//4
f 12//5 27//5 11//5
f 2//6 17//6 1//6
f 9//7 24//7 8//7
f 6//4 21//4 5//4
f 1//8 16//8 12//8
f 3//9 18//9 2//9
f 10//7 25//7 9//7
f 7//10 22//10 6//10
f 4//11 19//11 3//11
f 28//33 29//33 40//33
f 38//34 39//34 40//34
f 38//35 40//35 37//35
f 37//14 41//14 36//14
f 41//18 40//18 31//18
f 34//36 35//36 42//36
f 42//37 41//37 32//37
f 34//38 42//38 33//38
f 38//39 37//39 53//39
f 35//40 34//40 50//40
f 31//41 46//41 32//41
f 38//42 53//42 39//42
f 29//24 28//24 44//24
f 35//43 50//43 36//43
f 33//44 32//44 48//44
f 39//27 54//27 28//27
f 30//45 29//45 45//45
f 37//46 36//46 52//46
f 33//47 48//47 34//47
f 30//48 45//48 31//48
f 16//32 17//32 43//32
f 44//32 17//32 45//32
f 18//32 19//32 45//32
f 19//32 20//32 46//32
f 47//32 20//32 48//32
f 21//32 22//32 48//32
f 49//32 22//32 50//32
f 23//32 24//32 50//32
f 51//32 24//32 52//32
f 52//32 25//32 53//32
f 26//32 27//32 53//32
f 54//32 27//32 43//32
