# Blender v2.76 (sub 0) OBJ File: ''
# www.blender.org
mtllib rightPaddle.mtl
o Circle_Circle.004
v 0.011142 0.000000 12.551064
v -0.146405 0.000000 12.481713
v 0.129303 0.000000 12.344222
v -0.107004 -0.000000 12.314149
v 0.085852 -0.000000 12.084537
v 1.469382 0.000000 11.823859
v 1.468223 0.000000 11.957874
v 1.360683 0.000000 11.730149
v 1.351236 -0.000000 11.586945
v 1.429071 0.000000 11.696046
v 1.243496 -0.000000 11.507235
v 1.203135 0.000000 11.808717
v 1.425709 0.000000 12.084972
v 1.346000 0.000000 12.192712
v 1.045588 0.000000 11.887283
v 0.982383 -0.000000 11.463562
v 0.888040 0.000000 11.965850
v 0.852614 -0.000000 11.504848
v 1.234943 0.000000 12.271522
v 1.006418 0.000000 12.362057
v 0.730492 0.000000 12.044416
v 0.642801 -0.000000 11.632907
v 0.483785 0.000000 12.167446
v 0.360894 -0.000000 11.841480
v 0.670205 0.000000 12.461731
v 0.310580 0.000000 12.535174
v 0.129303 0.319783 12.344222
v -0.146405 0.319783 12.481713
v 0.011142 0.319783 12.551064
v 0.085852 0.319783 12.084537
v -0.107004 0.319783 12.314149
v 1.360683 0.319783 11.730149
v 1.468223 0.319783 11.957874
v 1.469382 0.319783 11.823859
v 1.351236 0.319783 11.586945
v 1.243496 0.319783 11.507235
v 1.116399 0.319783 11.464720
v 1.203135 0.319783 11.808717
v 1.045588 0.319783 11.887283
v 1.346000 0.319783 12.192712
v 0.982383 0.319783 11.463562
v 0.852614 0.319783 11.504848
v 0.888040 0.319783 11.965850
v 1.234943 0.319783 12.271522
v 0.730492 0.319783 12.044416
v 1.006418 0.319783 12.362057
v 0.642801 0.319783 11.632907
v 0.360894 0.319783 11.841480
v 0.483785 0.319783 12.167446
v 0.670205 0.319783 12.461731
v 0.310580 0.319783 12.535174
v 1.425709 0.319783 12.084972
v 1.116399 -0.000000 11.464720
v 1.429071 0.319783 11.696046
vt 0.900151 0.569554
vt 0.957971 0.500000
vt 0.796086 0.500000
vt 0.900151 0.430446
vt 0.755623 0.367701
vt 0.043928 0.569554
vt 0.075898 0.632299
vt 0.073067 0.500000
vt 0.043928 0.430446
vt 0.032912 0.500000
vt 0.075898 0.367701
vt 0.165573 0.500000
vt 0.125694 0.682094
vt 0.188439 0.714064
vt 0.258079 0.500000
vt 0.188439 0.285936
vt 0.350585 0.500000
vt 0.259141 0.274919
vt 0.259141 0.725081
vt 0.387828 0.714064
vt 0.443091 0.500000
vt 0.387828 0.285936
vt 0.587948 0.500000
vt 0.569297 0.317906
vt 0.569297 0.682094
vt 0.755623 0.632299
vt 0.125693 0.317906
vt 0.819905 0.500473
vt 0.819905 0.716543
vt 0.728988 0.716543
vt 0.300604 0.500473
vt 0.300604 0.716543
vt 0.486454 0.716543
vt 0.648304 0.500473
vt 0.648304 0.716543
vt 0.728988 0.500473
vt 0.644432 0.500473
vt 0.644432 0.716543
vt 0.554992 0.716543
vt 0.320836 0.500473
vt 0.320836 0.716543
vt 0.384868 0.716543
vt 0.554992 0.500473
vt 0.465553 0.716543
vt 0.384868 0.500473
vt 0.486454 0.500473
vt 0.465553 0.500473
vt 0.061006 0.716543
vt 0.985385 0.716543
vt 0.639871 0.500473
vt 0.639871 0.716543
vt 0.406520 0.716543
vt 0.406520 0.500473
vt 0.725117 0.716543
vt 0.241039 0.716543
vt 0.879470 0.716543
vt 0.584272 0.500473
vt 0.584272 0.716543
vt 0.879470 0.500473
vt 0.241039 0.500473
vt 0.725117 0.500473
vt 0.985385 0.500473
vt 0.061006 0.500473
vn 0.000000 -1.000000 0.000000
vn 0.000000 1.000000 0.000000
vn -0.303200 0.000000 -0.952900
vn 0.053000 0.000000 0.998600
vn 0.803900 0.000000 0.594800
vn 0.008600 0.000000 -1.000000
vn -0.402900 0.000000 0.915300
vn -0.402900 0.000000 0.915200
vn 0.578700 0.000000 0.815500
vn 0.317200 0.000000 -0.948400
vn -0.973500 0.000000 -0.228900
vn 0.594800 0.000000 -0.803900
vn -0.765700 0.000000 -0.643200
vn 0.814100 0.000000 -0.580800
vn -0.662200 -0.000000 -0.749300
vn 0.368300 0.000000 0.929700
vn 0.953700 0.000000 -0.300800
vn -0.594800 -0.000000 -0.803900
vn 0.284200 0.000000 0.958800
vn 1.000000 0.000000 0.008600
vn -0.521000 0.000000 -0.853600
vn 0.200100 0.000000 0.979800
vn 0.948300 0.000000 0.317200
vn 0.803900 0.000000 0.594700
usemtl Material.004
s 1
f 1/1/1 2/2/1 3/3/1
f 4/4/1 5/5/1 3/3/1
f 6/6/1 7/7/1 8/8/1
f 9/9/1 10/10/1 8/8/1
f 11/11/1 8/8/1 12/12/1
f 7/7/1 13/13/1 12/12/1
f 14/14/1 15/15/1 12/12/1
f 12/12/1 15/15/1 16/16/1
f 15/15/1 17/17/1 18/18/1
f 19/19/1 17/17/1 15/15/1
f 20/20/1 21/21/1 17/17/1
f 17/17/1 21/21/1 22/22/1
f 21/21/1 23/23/1 24/24/1
f 25/25/1 23/23/1 21/21/1
f 23/23/1 3/3/1 5/5/1
f 26/26/1 3/3/1 23/23/1
f 27/3/2 28/2/2 29/1/2
f 27/3/2 30/5/2 31/4/2
f 32/8/2 33/7/2 34/6/2
f 35/9/2 36/11/2 32/8/2
f 36/11/2 37/27/2 38/12/2
f 33/7/2 32/8/2 38/12/2
f 38/12/2 39/15/2 40/14/2
f 41/16/2 39/15/2 38/12/2
f 42/18/2 43/17/2 39/15/2
f 39/15/2 43/17/2 44/19/2
f 43/17/2 45/21/2 46/20/2
f 47/22/2 45/21/2 43/17/2
f 48/24/2 49/23/2 45/21/2
f 45/21/2 49/23/2 50/25/2
f 30/5/2 27/3/2 49/23/2
f 49/23/2 27/3/2 51/26/2
f 18/28/3 42/29/3 41/30/3
f 26/31/4 51/32/4 29/33/4
f 13/34/5 52/35/5 40/30/5
f 16/36/6 41/30/6 37/35/6
f 1/37/7 29/38/8 28/39/7
f 14/36/9 40/30/9 44/29/9
f 53/40/10 37/41/10 36/42/10
f 2/43/11 28/39/11 31/44/11
f 11/45/12 36/42/12 35/44/12
f 4/46/13 31/33/13 30/32/13
f 9/47/14 35/44/14 54/39/14
f 5/31/15 30/32/15 48/48/15
f 19/28/16 44/29/16 46/49/16
f 10/43/17 54/39/17 34/38/17
f 24/50/18 48/51/18 47/52/18
f 20/53/19 46/52/19 50/51/19
f 6/37/20 34/38/20 33/54/20
f 22/53/21 47/52/21 42/55/21
f 25/50/22 50/51/22 51/56/22
f 7/57/23 33/58/23 52/35/23
f 26/26/1 1/1/1 3/3/1
f 2/2/1 4/4/1 3/3/1
f 10/10/1 6/6/1 8/8/1
f 11/11/1 9/9/1 8/8/1
f 53/27/1 11/11/1 12/12/1
f 8/8/1 7/7/1 12/12/1
f 13/13/1 14/14/1 12/12/1
f 53/27/1 12/12/1 16/16/1
f 16/16/1 15/15/1 18/18/1
f 14/14/1 19/19/1 15/15/1
f 19/19/1 20/20/1 17/17/1
f 18/18/1 17/17/1 22/22/1
f 22/22/1 21/21/1 24/24/1
f 20/20/1 25/25/1 21/21/1
f 24/24/1 23/23/1 5/5/1
f 25/25/1 26/26/1 23/23/1
f 51/26/2 27/3/2 29/1/2
f 28/2/2 27/3/2 31/4/2
f 54/10/2 32/8/2 34/6/2
f 54/10/2 35/9/2 32/8/2
f 32/8/2 36/11/2 38/12/2
f 52/13/2 33/7/2 38/12/2
f 52/13/2 38/12/2 40/14/2
f 37/27/2 41/16/2 38/12/2
f 41/16/2 42/18/2 39/15/2
f 40/14/2 39/15/2 44/19/2
f 44/19/2 43/17/2 46/20/2
f 42/18/2 47/22/2 43/17/2
f 47/22/2 48/24/2 45/21/2
f 46/20/2 45/21/2 50/25/2
f 48/24/2 30/5/2 49/23/2
f 50/25/2 49/23/2 51/26/2
f 16/36/3 18/28/3 41/30/3
f 1/46/4 26/31/4 29/33/4
f 14/36/24 13/34/5 40/30/5
f 53/34/6 16/36/6 37/35/6
f 2/43/7 1/37/7 28/39/7
f 19/28/9 14/36/9 44/29/9
f 11/45/10 53/40/10 36/42/10
f 4/47/11 2/43/11 31/44/11
f 9/47/12 11/45/12 35/44/12
f 5/31/13 4/46/13 30/32/13
f 10/43/14 9/47/14 54/39/14
f 24/50/15 5/59/15 48/51/15
f 20/53/16 19/60/16 46/52/16
f 6/37/17 10/43/17 34/38/17
f 22/53/18 24/50/18 47/52/18
f 25/50/19 20/53/19 50/51/19
f 7/61/20 6/37/20 33/54/20
f 18/28/21 22/62/21 42/29/21
f 26/31/22 25/63/22 51/32/22
f 13/34/23 7/57/23 52/35/23
