# Blender v2.76 (sub 0) OBJ File: 'table.blend'
# www.blender.org
o Plane.001
v 48.555405 2.052743 0.000000
v 48.546883 2.052744 -25.632711
v 46.497425 2.052744 -23.583263
v 44.239658 2.161877 -26.465803
v 46.081829 2.161877 -28.712322
v 2.445195 2.161877 -28.458900
v 42.032543 2.161877 -24.219282
v 2.445195 2.161877 -26.212383
v 46.505943 2.052743 0.000000
v 44.447964 2.052744 -21.533804
v 0.000000 2.161877 -28.458900
v 0.000000 2.161877 -26.212383
v 47.861752 2.107311 -27.674299
v 45.733479 2.107311 -25.526310
v 44.459358 -6.493133 -26.243242
v 2.445195 -6.493133 -25.989822
v 0.000000 -6.493133 -25.989822
v 46.932922 -6.602267 -0.000000
v 46.924408 -6.602266 -23.163631
v 46.239273 -6.547699 -25.205219
v 45.733479 -1.640086 -25.526310
v 46.497425 -1.694652 -23.583263
v 2.445195 -1.585519 -26.212383
v 2.445195 -1.585519 -23.965864
v 2.445195 2.161877 -23.965864
v 0.000000 -1.585519 -26.212383
v 44.447964 -1.694652 -21.533804
v 44.239658 -1.585519 -26.465803
v 42.032543 -1.585519 -24.219282
v -46.497425 2.052744 -23.583263
v -48.546883 2.052744 -25.632711
v -48.555405 2.052743 0.000000
v -44.239658 2.161877 -26.465803
v -2.445195 2.161877 -26.212383
v -2.445195 2.161877 -28.458900
v -42.032543 2.161877 -24.219282
v -2.445195 2.161877 -23.965864
v -44.447964 2.052744 -21.533804
v -46.505943 2.052743 0.000000
v -45.733479 2.107311 -25.526310
v -47.861752 2.107311 -27.674299
v -46.081829 2.161877 -28.712322
v -2.445195 -6.493133 -25.989822
v -44.459358 -6.493133 -26.243242
v -46.924408 -6.602266 -23.163631
v -46.239273 -6.547699 -25.205219
v -46.497425 -1.694652 -23.583263
v -45.733479 -1.640086 -25.526310
v -2.445195 -1.585519 -23.965864
v -2.445195 -1.585519 -26.212383
v -44.447964 -1.694652 -21.533804
v -44.239658 -1.585519 -26.465803
v -42.032543 -1.585519 -24.219282
v 46.497425 2.052742 23.583263
v 48.546883 2.052742 25.632711
v 44.239658 2.161875 26.465803
v 2.445195 2.161875 26.212383
v 2.445195 2.161875 28.458900
v 42.032543 2.161875 24.219282
v 2.445195 2.161875 23.965864
v 44.447964 2.052742 21.533804
v 0.000000 2.161875 26.212383
v 0.000000 2.161875 28.458900
v 45.733479 2.107308 25.526310
v 47.861752 2.107308 27.674299
v 46.081829 2.161875 28.712322
v 2.445195 -6.493135 25.989822
v 44.459358 -6.493135 26.243242
v 0.000000 -6.493135 25.989822
v 46.924408 -6.602268 23.163631
v 46.239273 -6.547701 25.205219
v 46.497425 -1.694654 23.583263
v 45.733479 -1.640088 25.526310
v 2.445195 -1.585521 23.965864
v 2.445195 -1.585521 26.212383
v 0.000000 -1.585521 26.212383
v 44.447964 -1.694654 21.533804
v 44.239658 -1.585521 26.465803
v 42.032543 -1.585521 24.219282
v -48.546883 2.052742 25.632711
v -46.497425 2.052742 23.583263
v -44.239658 2.161875 26.465803
v -46.081829 2.161875 28.712322
v -2.445195 2.161875 28.458900
v -42.032543 2.161875 24.219282
v -2.445195 2.161875 26.212383
v -44.447964 2.052742 21.533804
v -47.861752 2.107308 27.674299
v -45.733479 2.107308 25.526310
v -44.459358 -6.493135 26.243242
v -2.445195 -6.493135 25.989822
v -46.932922 -6.602267 -0.000000
v -46.924408 -6.602268 23.163631
v -46.239273 -6.547701 25.205219
v -45.733479 -1.640088 25.526310
v -46.497425 -1.694654 23.583263
v -2.445195 -1.585521 26.212383
v -2.445195 -1.585521 23.965864
v -2.445195 2.161875 23.965864
v -44.447964 -1.694654 21.533804
v -44.239658 -1.585521 26.465803
v -42.032543 -1.585521 24.219282
v 44.456497 2.052743 0.000000
v -44.456497 2.052743 0.000000
vt 0.999874 0.021040
vt 0.999692 0.844260
vt 0.955892 0.778439
vt 0.907640 0.871015
vt 0.947010 0.943164
vt 0.014420 0.935026
vt 0.860470 0.798866
vt 0.014420 0.862876
vt 0.956074 0.021040
vt 0.912092 0.712619
vt -0.037838 0.935026
vt -0.037838 0.862876
vt 0.985050 0.909827
vt 0.939565 0.840842
vt 0.307648 0.460825
vt 1.964292 0.502278
vt 2.079716 1.030992
vt 2.061397 0.504678
vt 2.176821 1.033393
vt -1.081840 1.002769
vt -1.017408 0.473589
vt 0.065789 0.454281
vt 0.239430 0.983719
vt 0.188437 0.456597
vt 0.116781 0.981402
vt 0.223534 0.757789
vt 0.102362 0.755312
vt 0.102362 0.985123
vt 1.974696 0.803055
vt 1.869675 0.804928
vt 1.869675 1.034739
vt 2.071801 0.805455
vt 1.974696 1.032866
vt 0.087943 0.759034
vt 0.087943 0.988844
vt 0.326778 0.761818
vt 0.223534 0.987599
vt 0.309407 0.765858
vt 0.326778 0.991628
vt 0.014420 0.790727
vt 0.358641 0.987946
vt 0.912274 0.021040
vt 2.071801 1.035266
vt 0.309407 0.995668
vn -0.000000 1.000000 0.000000
vn 0.020100 0.999600 0.020000
vn 0.020100 0.999600 0.020100
vn 0.022500 0.999500 0.022300
vn -0.005700 -0.273900 -0.961700
vn -0.005800 -0.274300 -0.961600
vn -0.005600 -0.273600 -0.961800
vn 0.000000 -0.274300 -0.961600
vn 0.982900 -0.184300 0.000000
vn 0.982900 -0.184300 -0.000400
vn 0.469500 -0.322500 -0.822000
vn 0.913200 -0.260600 -0.313400
vn -0.930700 0.000000 0.365900
vn -1.000000 0.000000 0.000000
vn 0.000000 0.000000 1.000000
vn -0.707100 0.000000 -0.707100
vn -0.532400 0.000000 0.846500
vn 0.713300 0.000000 0.700800
vn -0.020100 0.999600 0.020100
vn -0.020100 0.999600 0.020000
vn -0.020700 0.999600 0.017000
vn 0.005800 -0.274300 -0.961600
vn -0.982900 -0.184300 -0.000000
vn -0.982900 -0.184300 -0.000300
vn -0.469500 -0.322500 -0.822000
vn -0.913200 -0.260600 -0.313400
vn 0.930700 0.000000 0.365900
vn 1.000000 0.000000 0.000000
vn 0.707100 0.000000 -0.707100
vn 0.532400 0.000000 0.846500
vn -0.713300 0.000000 0.700800
vn 0.020100 0.999600 -0.020100
vn 0.020100 0.999600 -0.020000
vn 0.020700 0.999600 -0.017000
vn -0.005800 -0.274300 0.961600
vn 0.000000 -0.274300 0.961600
vn 0.982900 -0.184300 0.000300
vn 0.469500 -0.322500 0.822000
vn 0.469500 -0.322500 0.821900
vn 0.913200 -0.260600 0.313400
vn -0.930700 0.000000 -0.365900
vn 0.000000 0.000000 -1.000000
vn -0.707100 0.000000 0.707100
vn -0.532400 0.000000 -0.846500
vn 0.713300 0.000000 -0.700800
vn -0.020100 0.999600 -0.020000
vn -0.020100 0.999600 -0.020100
vn -0.022500 0.999500 -0.022300
vn 0.005700 -0.273900 0.961700
vn 0.005800 -0.274300 0.961600
vn 0.005600 -0.273600 0.961800
vn -0.982900 -0.184300 0.000400
vn -0.469500 -0.322500 0.822000
vn -0.913200 -0.260600 0.313400
vn 0.930700 0.000000 -0.365900
vn 0.707100 0.000000 0.707100
vn 0.532400 0.000000 -0.846500
vn -0.713300 0.000000 -0.700800
vn 0.020700 0.999600 0.017000
vn -0.005600 -0.273400 -0.961900
vn 0.982900 -0.184300 -0.000300
vn -0.022500 0.999500 0.022300
vn 0.005600 -0.273400 -0.961900
vn 0.022500 0.999500 -0.022300
vn -0.005600 -0.273400 0.961900
vn -0.020700 0.999600 -0.017000
vn 0.005600 -0.273400 0.961900
vn -0.982900 -0.184300 0.000300
vn -0.469500 -0.322500 0.821900
s 1
f 1/1/1 2/2/1 3/3/1
f 4/4/1 5/5/1 6/6/1
f 7/7/1 4/4/1 8/8/1
f 9/9/1 3/3/1 10/10/1
f 11/11/1 12/12/1 8/8/1
f 2/2/2 13/13/2 14/14/3
f 4/4/4 14/14/4 13/13/4
f 15/15/5 16/16/6 6/17/7
f 16/16/8 17/18/8 11/19/8
f 1/20/9 18/21/9 19/22/10
f 13/23/11 20/24/11 15/15/11
f 2/25/12 19/22/12 20/24/12
f 21/26/13 22/27/13 3/28/13
f 23/29/14 24/30/14 25/31/14
f 26/32/15 23/29/15 8/33/15
f 22/27/16 27/34/16 10/35/16
f 28/36/17 21/26/17 14/37/17
f 29/38/18 28/36/18 4/39/18
f 30/3/1 31/2/1 32/1/1
f 33/4/1 34/8/1 35/6/1
f 36/7/1 37/40/1 34/8/1
f 38/10/1 30/3/1 39/9/1
f 34/8/1 12/12/1 11/11/1
f 40/14/19 41/13/20 31/2/20
f 33/4/21 42/5/21 41/13/21
f 35/17/22 43/16/22 44/15/22
f 11/19/8 17/18/8 43/16/8
f 32/20/23 31/25/24 45/22/24
f 41/23/25 42/41/25 44/15/25
f 31/25/26 41/23/26 46/24/26
f 30/28/27 47/27/27 48/26/27
f 37/31/28 49/30/28 50/29/28
f 34/33/15 50/29/15 26/32/15
f 38/35/29 51/34/29 47/27/29
f 40/37/30 48/26/30 52/36/30
f 33/39/31 52/36/31 53/38/31
f 54/3/1 55/2/1 1/1/1
f 56/4/1 57/8/1 58/6/1
f 59/7/1 60/40/1 57/8/1
f 61/10/1 54/3/1 9/9/1
f 57/8/1 62/12/1 63/11/1
f 64/14/32 65/13/33 55/2/33
f 56/4/34 66/5/34 65/13/34
f 58/17/35 67/16/35 68/15/35
f 63/19/36 69/18/36 67/16/36
f 1/20/9 55/25/37 70/22/37
f 65/23/38 66/41/39 68/15/38
f 55/25/40 65/23/40 71/24/40
f 54/28/41 72/27/41 73/26/41
f 60/31/14 74/30/14 75/29/14
f 57/33/42 75/29/42 76/32/42
f 61/35/43 77/34/43 72/27/43
f 64/37/44 73/26/44 78/36/44
f 56/39/45 78/36/45 79/38/45
f 32/1/1 80/2/1 81/3/1
f 82/4/1 83/5/1 84/6/1
f 85/7/1 82/4/1 86/8/1
f 39/9/1 81/3/1 87/10/1
f 63/11/1 62/12/1 86/8/1
f 80/2/46 88/13/46 89/14/47
f 82/4/48 89/14/48 88/13/48
f 90/15/49 91/16/50 84/17/51
f 91/16/36 69/18/36 63/19/36
f 32/20/23 92/21/23 93/22/52
f 88/23/53 94/24/53 90/15/53
f 80/25/54 93/22/54 94/24/54
f 95/26/55 96/27/55 81/28/55
f 97/29/28 98/30/28 99/31/28
f 76/32/42 97/29/42 86/33/42
f 96/27/56 100/34/56 87/35/56
f 101/36/57 95/26/57 89/37/57
f 102/38/58 101/36/58 82/39/58
f 9/9/1 1/1/1 3/3/1
f 8/8/1 4/4/1 6/6/1
f 25/40/1 7/7/1 8/8/1
f 103/42/1 9/9/1 10/10/1
f 6/6/1 11/11/1 8/8/1
f 3/3/3 2/2/2 14/14/3
f 5/5/59 4/4/59 13/13/59
f 5/41/60 15/15/5 6/17/7
f 6/17/8 16/16/8 11/19/8
f 2/25/61 1/20/61 19/22/61
f 5/41/11 13/23/11 15/15/11
f 13/23/12 2/25/12 20/24/12
f 14/37/13 21/26/13 3/28/13
f 8/33/14 23/29/14 25/31/14
f 12/43/15 26/32/15 8/33/15
f 3/28/16 22/27/16 10/35/16
f 4/39/17 28/36/17 14/37/17
f 7/44/18 29/38/18 4/39/18
f 39/9/1 30/3/1 32/1/1
f 42/5/1 33/4/1 35/6/1
f 33/4/1 36/7/1 34/8/1
f 104/42/1 38/10/1 39/9/1
f 35/6/1 34/8/1 11/11/1
f 30/3/19 40/14/19 31/2/20
f 40/14/62 33/4/62 41/13/62
f 42/41/63 35/17/63 44/15/63
f 35/17/8 11/19/8 43/16/8
f 92/21/23 32/20/23 45/22/24
f 46/24/25 41/23/25 44/15/25
f 45/22/26 31/25/26 46/24/26
f 40/37/27 30/28/27 48/26/27
f 34/33/28 37/31/28 50/29/28
f 12/43/15 34/33/15 26/32/15
f 30/28/29 38/35/29 47/27/29
f 33/39/30 40/37/30 52/36/30
f 36/44/31 33/39/31 53/38/31
f 9/9/1 54/3/1 1/1/1
f 66/5/1 56/4/1 58/6/1
f 56/4/1 59/7/1 57/8/1
f 103/42/1 61/10/1 9/9/1
f 58/6/1 57/8/1 63/11/1
f 54/3/32 64/14/32 55/2/33
f 64/14/64 56/4/64 65/13/64
f 66/41/65 58/17/65 68/15/65
f 58/17/36 63/19/36 67/16/36
f 18/21/9 1/20/9 70/22/37
f 71/24/38 65/23/38 68/15/38
f 70/22/40 55/25/40 71/24/40
f 64/37/41 54/28/41 73/26/41
f 57/33/14 60/31/14 75/29/14
f 62/43/42 57/33/42 76/32/42
f 54/28/43 61/35/43 72/27/43
f 56/39/44 64/37/44 78/36/44
f 59/44/45 56/39/45 79/38/45
f 39/9/1 32/1/1 81/3/1
f 86/8/1 82/4/1 84/6/1
f 99/40/1 85/7/1 86/8/1
f 104/42/1 39/9/1 87/10/1
f 84/6/1 63/11/1 86/8/1
f 81/3/47 80/2/46 89/14/47
f 83/5/66 82/4/66 88/13/66
f 83/41/67 90/15/49 84/17/51
f 84/17/36 91/16/36 63/19/36
f 80/25/68 32/20/68 93/22/68
f 83/41/69 88/23/69 90/15/69
f 88/23/54 80/25/54 94/24/54
f 89/37/55 95/26/55 81/28/55
f 86/33/28 97/29/28 99/31/28
f 62/43/42 76/32/42 86/33/42
f 81/28/56 96/27/56 87/35/56
f 82/39/57 101/36/57 89/37/57
f 85/44/58 102/38/58 82/39/58
