# Blender v2.76 (sub 0) OBJ File: 'table.blend'
# www.blender.org
mtllib ledges.mtl
o Plane.003
v 0.234543 0.000000 -2.304474
v 4.033439 0.000000 -2.328783
v 4.267982 0.000000 -2.069931
v 0.234543 0.095213 -2.115452
v 3.833915 0.095213 -2.139760
v 4.074423 0.096087 -1.880909
v 4.263446 0.196899 -2.065521
v 0.234543 0.207367 -2.298804
v 4.031759 0.207367 -2.323112
v -0.234543 0.000000 -2.304474
v -4.033439 0.000000 -2.328783
v -4.267982 0.000000 -2.069931
v -0.234543 0.095213 -2.115452
v -3.833915 0.095213 -2.139760
v -4.074423 0.096087 -1.880909
v -4.263446 0.196899 -2.065521
v -0.234543 0.207367 -2.298804
v -4.031759 0.207367 -2.323112
v 0.234543 0.000000 2.304474
v 4.033439 0.000000 2.328783
v 4.267982 0.000000 2.069931
v 4.268800 0.000000 0.000000
v 0.234543 0.095213 2.115452
v 3.833915 0.095213 2.139760
v 4.074423 0.096087 1.880909
v 4.075241 0.096087 0.000000
v 4.263446 0.196899 2.065521
v 4.264264 0.196899 0.000000
v 0.234543 0.207367 2.298804
v 4.031759 0.207367 2.323112
v -0.234543 0.000000 2.304474
v -4.033439 0.000000 2.328783
v -4.267982 0.000000 2.069931
v -4.268800 0.000000 0.000000
v -0.234543 0.095213 2.115452
v -3.833915 0.095213 2.139760
v -4.074423 0.096087 1.880909
v -4.075241 0.096087 0.000000
v -4.263446 0.196899 2.065521
v -4.264264 0.196899 0.000000
v -0.234543 0.207367 2.298804
v -4.031759 0.207367 2.323112
vt 0.775260 0.679520
vt 0.551162 0.677313
vt 0.551162 0.694474
vt 0.802336 0.485256
vt 0.790285 0.485256
vt 0.790234 0.656019
vt 0.802054 0.485256
vt 0.802003 0.672780
vt 0.787578 0.696166
vt 0.551162 0.693959
vt 0.787683 0.696680
vt 0.802285 0.673180
vt 0.521956 0.694474
vt 0.521956 0.677313
vt 0.297858 0.679520
vt 0.270782 0.485256
vt 0.270833 0.673180
vt 0.282884 0.656019
vt 0.271115 0.672780
vt 0.271064 0.485256
vt 0.521956 0.693959
vt 0.285540 0.696166
vt 0.285435 0.696680
vt 0.551162 0.276039
vt 0.551162 0.293200
vt 0.775260 0.290993
vt 0.802285 0.297333
vt 0.790234 0.314493
vt 0.802003 0.297733
vt 0.551162 0.276554
vt 0.787578 0.274347
vt 0.787683 0.273832
vt 0.297858 0.290993
vt 0.521956 0.293200
vt 0.521956 0.276039
vt 0.282833 0.485256
vt 0.282884 0.314493
vt 0.271115 0.297733
vt 0.285540 0.274347
vt 0.521956 0.276554
vt 0.285435 0.273832
vt 0.270833 0.297333
vn 0.003000 -0.893100 0.449900
vn -0.444600 -0.895700 0.000200
vn -0.470400 0.882400 0.000200
vn 0.003400 0.851400 0.524400
vn -1.000000 -0.000000 -0.000000
vn 0.684000 -0.014400 0.729300
vn -0.698700 -0.000100 -0.715400
vn -0.003000 -0.893100 0.449900
vn 0.444500 -0.895800 0.000200
vn 0.470400 0.882400 0.000200
vn -0.003500 0.853100 0.521800
vn 1.000000 -0.000000 -0.000000
vn -0.684000 -0.014400 0.729300
vn 0.698700 -0.000100 -0.715400
vn 0.003000 -0.893100 -0.449900
vn -0.444500 -0.895800 -0.000200
vn -0.470400 0.882400 -0.000200
vn 0.003500 0.853100 -0.521800
vn 0.684000 -0.014400 -0.729300
vn -0.698700 -0.000100 0.715400
vn -0.003000 -0.893100 -0.449900
vn 0.444600 -0.895700 -0.000200
vn 0.470400 0.882400 -0.000200
vn -0.003400 0.851400 -0.524400
vn -0.684000 -0.014400 -0.729300
vn 0.698700 -0.000100 0.715400
vn 0.002900 -0.891900 0.452300
vn -0.444500 -0.895800 0.000200
vn -0.470600 0.882400 0.000200
vn 0.003500 0.853100 0.521800
vn -0.002900 -0.891900 0.452300
vn 0.444600 -0.895700 0.000200
vn 0.470600 0.882400 0.000200
vn -0.003400 0.851400 0.524400
vn 0.002900 -0.891900 -0.452300
vn -0.444600 -0.895700 -0.000200
vn -0.470600 0.882400 -0.000200
vn 0.003400 0.851400 -0.524400
vn -0.002900 -0.891900 -0.452300
vn 0.444500 -0.895800 -0.000200
vn 0.470600 0.882400 -0.000200
vn -0.003500 0.853100 -0.521800
usemtl Material.001
s off
f 5/1/1 4/2/1 1/3/1
f 22/4/2 26/5/2 6/6/2
f 28/7/3 7/8/3 6/6/3
f 5/1/4 9/9/4 8/10/4
f 4/2/5 8/10/5 1/3/5
f 5/1/6 2/11/6 9/9/6
f 6/6/7 7/8/7 3/12/7
f 10/13/8 13/14/8 14/15/8
f 34/16/9 12/17/9 15/18/9
f 15/18/10 16/19/10 40/20/10
f 14/15/11 13/14/11 17/21/11
f 13/14/12 10/13/12 17/21/12
f 14/15/13 18/22/13 11/23/13
f 15/18/14 12/17/14 16/19/14
f 19/24/15 23/25/15 24/26/15
f 22/4/16 21/27/16 25/28/16
f 25/28/17 27/29/17 28/7/17
f 24/26/18 23/25/18 29/30/18
f 23/25/5 19/24/5 29/30/5
f 24/26/19 30/31/19 20/32/19
f 25/28/20 21/27/20 27/29/20
f 36/33/21 35/34/21 31/35/21
f 34/16/22 38/36/22 37/37/22
f 40/20/23 39/38/23 37/37/23
f 36/33/24 42/39/24 41/40/24
f 35/34/12 41/40/12 31/35/12
f 36/33/25 32/41/25 42/39/25
f 37/37/26 39/38/26 33/42/26
f 2/11/27 5/1/27 1/3/27
f 3/12/28 22/4/28 6/6/28
f 26/5/29 28/7/29 6/6/29
f 4/2/30 5/1/30 8/10/30
f 11/23/31 10/13/31 14/15/31
f 38/36/32 34/16/32 15/18/32
f 38/36/33 15/18/33 40/20/33
f 18/22/34 14/15/34 17/21/34
f 20/32/35 19/24/35 24/26/35
f 26/5/36 22/4/36 25/28/36
f 26/5/37 25/28/37 28/7/37
f 30/31/38 24/26/38 29/30/38
f 32/41/39 36/33/39 31/35/39
f 33/42/40 34/16/40 37/37/40
f 38/36/41 40/20/41 37/37/41
f 35/34/42 36/33/42 41/40/42
