# Blender v2.76 (sub 0) OBJ File: 'table.blend'
# www.blender.org
o Plane.003
v 39.969952 0.992631 -22.307772
v 2.445195 0.992631 -22.054352
v 2.445195 0.000001 -24.024977
v 44.503780 0.000000 0.000000
v 42.485863 1.001742 0.000000
v 42.477333 1.001743 -19.609156
v 44.456497 2.052743 0.000000
v 44.447964 2.052744 -21.533804
v 42.032543 2.161877 -24.219282
v 2.445195 2.161877 -23.965864
v 42.050060 0.000001 -24.278406
v 44.495255 0.000001 -21.579779
v -2.445195 0.000001 -24.024977
v -2.445195 0.992631 -22.054352
v -39.969952 0.992631 -22.307772
v -44.503780 0.000000 0.000000
v -44.495255 0.000001 -21.579779
v -42.477333 1.001743 -19.609156
v -44.447964 2.052744 -21.533804
v -44.456497 2.052743 0.000000
v -2.445195 2.161877 -23.965864
v -42.032543 2.161877 -24.219282
v -42.050060 0.000001 -24.278406
v 2.445195 -0.000001 24.024977
v 2.445195 0.992629 22.054352
v 39.969952 0.992629 22.307772
v 44.495255 -0.000001 21.579779
v 42.477333 1.001741 19.609156
v 44.447964 2.052742 21.533804
v 2.445195 2.161875 23.965864
v 42.032543 2.161875 24.219282
v 42.050060 -0.000001 24.278406
v -39.969952 0.992629 22.307772
v -2.445195 0.992629 22.054352
v -2.445195 -0.000001 24.024977
v -42.485863 1.001742 0.000000
v -42.477333 1.001741 19.609156
v -44.447964 2.052742 21.533804
v -42.032543 2.161875 24.219282
v -2.445195 2.161875 23.965864
v -42.050060 -0.000001 24.278406
v -44.495255 -0.000001 21.579779
vt 0.775260 0.679520
vt 0.551162 0.677313
vt 0.551162 0.694474
vt 0.802336 0.485256
vt 0.790285 0.485256
vt 0.790234 0.656019
vt 0.802054 0.485256
vt 0.802003 0.672780
vt 0.787578 0.696166
vt 0.551162 0.693959
vt 0.787683 0.696680
vt 0.802285 0.673180
vt 0.521956 0.694474
vt 0.521956 0.677313
vt 0.297858 0.679520
vt 0.270782 0.485256
vt 0.270833 0.673180
vt 0.282884 0.656019
vt 0.271115 0.672780
vt 0.271064 0.485256
vt 0.521956 0.693959
vt 0.285540 0.696166
vt 0.285435 0.696680
vt 0.551162 0.276039
vt 0.551162 0.293200
vt 0.775260 0.290993
vt 0.802285 0.297333
vt 0.790234 0.314493
vt 0.802003 0.297733
vt 0.551162 0.276554
vt 0.787578 0.274347
vt 0.787683 0.273832
vt 0.297858 0.290993
vt 0.521956 0.293200
vt 0.521956 0.276039
vt 0.282833 0.485256
vt 0.282884 0.314493
vt 0.271115 0.297733
vt 0.285540 0.274347
vt 0.521956 0.276554
vt 0.285435 0.273832
vt 0.270833 0.297333
vn 0.003000 -0.893100 0.449900
vn -0.444600 -0.895700 -0.000000
vn -0.444500 -0.895800 0.000200
vn -0.470600 0.882400 0.000000
vn -0.470400 0.882400 0.000200
vn -0.470500 0.882400 0.000200
vn 0.003400 0.851400 0.524400
vn -1.000000 0.000000 0.000000
vn 0.684000 -0.014400 0.729300
vn -0.698700 -0.000100 -0.715400
vn -0.003000 -0.893100 0.449900
vn 0.444600 -0.895700 -0.000000
vn 0.444500 -0.895800 0.000200
vn 0.470500 0.882400 0.000200
vn 0.470400 0.882400 0.000200
vn 0.470600 0.882400 0.000000
vn -0.003500 0.853100 0.521800
vn 1.000000 0.000000 0.000000
vn -0.684000 -0.014400 0.729300
vn 0.698700 -0.000100 -0.715400
vn 0.003000 -0.893100 -0.449900
vn -0.444500 -0.895800 -0.000200
vn -0.470500 0.882400 -0.000200
vn -0.470400 0.882400 -0.000200
vn 0.003500 0.853100 -0.521800
vn 0.684000 -0.014400 -0.729300
vn -0.698700 -0.000100 0.715400
vn -0.003000 -0.893100 -0.449900
vn 0.444500 -0.895800 -0.000200
vn 0.470400 0.882400 -0.000200
vn 0.470500 0.882400 -0.000200
vn -0.003400 0.851400 -0.524400
vn -0.684000 -0.014400 -0.729300
vn 0.698700 -0.000100 0.715400
vn 0.002900 -0.891900 0.452300
vn 0.003500 0.853100 0.521800
vn -0.002900 -0.891900 0.452300
vn -0.003400 0.851400 0.524400
vn 0.002900 -0.891900 -0.452300
vn 0.003400 0.851400 -0.524400
vn -0.002900 -0.891900 -0.452300
vn -0.003500 0.853100 -0.521800
s 1
f 1/1/1 2/2/1 3/3/1
f 4/4/2 5/5/2 6/6/3
f 7/7/4 8/8/5 6/6/6
f 1/1/7 9/9/7 10/10/7
f 2/2/8 10/10/8 3/3/8
f 1/1/9 11/11/9 9/9/9
f 6/6/10 8/8/10 12/12/10
f 13/13/11 14/14/11 15/15/11
f 16/16/12 17/17/13 18/18/13
f 18/18/14 19/19/15 20/20/16
f 15/15/17 14/14/17 21/21/17
f 14/14/18 13/13/18 21/21/18
f 15/15/19 22/22/19 23/23/19
f 18/18/20 17/17/20 19/19/20
f 24/24/21 25/25/21 26/26/21
f 4/4/2 27/27/22 28/28/22
f 28/28/23 29/29/24 7/7/4
f 26/26/25 25/25/25 30/30/25
f 25/25/8 24/24/8 30/30/8
f 26/26/26 31/31/26 32/32/26
f 28/28/27 27/27/27 29/29/27
f 33/33/28 34/34/28 35/35/28
f 16/16/12 36/36/12 37/37/29
f 20/20/16 38/38/30 37/37/31
f 33/33/32 39/39/32 40/40/32
f 34/34/18 40/40/18 35/35/18
f 33/33/33 41/41/33 39/39/33
f 37/37/34 38/38/34 42/42/34
f 11/11/35 1/1/35 3/3/35
f 12/12/3 4/4/2 6/6/3
f 5/5/4 7/7/4 6/6/6
f 2/2/36 1/1/36 10/10/36
f 23/23/37 13/13/37 15/15/37
f 36/36/12 16/16/12 18/18/13
f 36/36/16 18/18/14 20/20/16
f 22/22/38 15/15/38 21/21/38
f 32/32/39 24/24/39 26/26/39
f 5/5/2 4/4/2 28/28/22
f 5/5/4 28/28/23 7/7/4
f 31/31/40 26/26/40 30/30/40
f 41/41/41 33/33/41 35/35/41
f 42/42/29 16/16/12 37/37/29
f 36/36/16 20/20/16 37/37/31
f 34/34/42 33/33/42 40/40/42
