# Blender v2.76 (sub 0) OBJ File: 'table.blend'
# www.blender.org
o Torus.001_Torus.002
v -0.007676 0.070545 5.273777
v 0.010426 0.068762 5.273777
v 0.010427 0.068762 -5.635268
v 0.027832 0.063482 5.273777
v 0.027832 0.063482 -5.635268
v 0.043872 0.054908 5.273777
v 0.043872 0.054908 -5.635268
v 0.057932 0.043370 5.273777
v 0.057932 0.043370 -5.635268
v 0.069470 0.029310 5.273777
v 0.069470 0.029310 -5.635268
v 0.078044 0.013269 5.273777
v 0.078044 0.013269 -5.635268
v 0.083324 -0.004136 5.273777
v 0.083324 -0.004136 -5.635268
v 0.085106 -0.022237 5.273777
v 0.085106 -0.022237 -5.635268
v 0.083324 -0.040338 5.273777
v 0.083324 -0.040338 -5.635268
v 0.078044 -0.057743 5.273777
v 0.078044 -0.057743 -5.635268
v 0.069470 -0.073784 5.273777
v 0.069470 -0.073784 -5.635268
v 0.057932 -0.087844 5.273777
v 0.057932 -0.087843 -5.635268
v 0.043872 -0.099383 5.273777
v 0.043872 -0.099382 -5.635262
v 0.027832 -0.107957 5.273777
v 0.010426 -0.113237 5.273777
v 0.010426 -0.113236 -5.635268
v -0.007676 -0.115019 5.273777
v -0.007676 -0.115019 -5.635268
v -0.025775 -0.113237 5.273777
v -0.025775 -0.113236 -5.635268
v -0.043180 -0.107957 5.273777
v -0.043180 -0.107956 -5.635268
v -0.059222 -0.099383 5.273777
v -0.059222 -0.099382 -5.635268
v -0.073281 -0.087844 5.273777
v -0.084821 -0.073784 5.273777
v -0.084821 -0.073784 -5.635262
v -0.093395 -0.057743 5.273777
v -0.098673 -0.040338 5.273777
v -0.098673 -0.040338 -5.635268
v -0.100457 -0.022237 5.273777
v -0.100457 -0.022237 -5.635268
v -0.098673 -0.004136 5.273777
v -0.098673 -0.004136 -5.635268
v -0.093395 0.013269 5.273777
v -0.093393 0.013269 -5.635268
v -0.084821 0.029310 5.273777
v -0.084821 0.029310 -5.635268
v -0.073281 0.043370 5.273777
v -0.073281 0.043370 -5.635268
v -0.059222 0.054908 5.273777
v -0.043180 0.063482 5.273777
v -0.043180 0.063482 -5.635268
v -0.025775 0.068762 5.273777
v -0.007676 0.070545 -5.635268
v -0.025775 0.068762 -5.635268
v 0.027832 -0.107956 -5.635268
v -0.073281 -0.087843 -5.635268
v -0.093395 -0.057743 -5.635268
v -0.059222 0.054908 -5.635268
vt 0.499721 0.132819
vt 0.501149 0.132819
vt 0.501149 0.160222
vt 0.502587 0.132819
vt 0.502587 0.160222
vt 0.504035 0.132819
vt 0.504035 0.160222
vt 0.505491 0.132819
vt 0.505491 0.160222
vt 0.506955 0.132819
vt 0.506955 0.160222
vt 0.508425 0.132819
vt 0.508425 0.160222
vt 0.509899 0.132819
vt 0.509899 0.160222
vt 0.511375 0.132819
vt 0.511375 0.160222
vt 0.512852 0.132819
vt 0.512852 0.160222
vt 0.514326 0.132819
vt 0.514326 0.160222
vt 0.515796 0.132819
vt 0.515796 0.160222
vt 0.517259 0.132819
vt 0.517259 0.160222
vt 0.518716 0.132819
vt 0.518716 0.160221
vt 0.520163 0.132819
vt 0.521601 0.132819
vt 0.521601 0.160222
vt 0.523030 0.132819
vt 0.523030 0.160222
vt 0.477424 0.132819
vt 0.478843 0.132819
vt 0.478843 0.160222
vt 0.480252 0.132819
vt 0.480252 0.160222
vt 0.481653 0.132819
vt 0.481653 0.160222
vt 0.483046 0.132819
vt 0.484434 0.132819
vt 0.484434 0.160221
vt 0.485816 0.132819
vt 0.487195 0.132819
vt 0.487195 0.160222
vt 0.488572 0.132819
vt 0.488572 0.160222
vt 0.489950 0.132819
vt 0.489950 0.160222
vt 0.491329 0.132819
vt 0.491329 0.160222
vt 0.492711 0.132819
vt 0.492711 0.160222
vt 0.494098 0.132819
vt 0.494098 0.160222
vt 0.495492 0.132819
vt 0.496893 0.132819
vt 0.496893 0.160222
vt 0.525858 0.132819
vt 0.498302 0.132819
vt 0.499721 0.160222
vt 0.498302 0.160222
vt 0.532801 0.160222
vt 0.543908 0.160222
vt 0.520163 0.160222
vt 0.477424 0.160222
vt 0.483046 0.160222
vt 0.485816 0.160222
vt 0.495492 0.160222
vt 0.524448 0.160222
vt 0.525858 0.160222
vt 0.527259 0.160222
vn 0.098000 0.995200 0.000000
vn 0.290300 0.956900 0.000000
vn 0.471400 0.881900 0.000000
vn 0.634400 0.773000 0.000000
vn 0.773000 0.634400 0.000000
vn 0.881900 0.471400 0.000000
vn 0.956900 0.290300 0.000000
vn 0.995200 0.098000 0.000000
vn 0.995200 -0.098000 -0.000000
vn 0.956900 -0.290300 -0.000000
vn 0.881900 -0.471400 -0.000000
vn 0.773000 -0.634400 -0.000000
vn 0.634400 -0.773000 -0.000000
vn 0.471400 -0.881900 -0.000000
vn 0.290300 -0.956900 -0.000000
vn 0.098000 -0.995200 -0.000000
vn -0.098000 -0.995200 -0.000000
vn -0.290300 -0.956900 -0.000000
vn -0.471400 -0.881900 -0.000000
vn -0.634400 -0.773000 -0.000000
vn -0.773000 -0.634400 -0.000000
vn -0.773000 -0.634500 -0.000000
vn -0.881900 -0.471400 -0.000000
vn -0.957000 -0.290200 -0.000000
vn -0.995200 -0.098100 -0.000000
vn -0.995200 0.098100 0.000000
vn -0.957000 0.290200 -0.000000
vn -0.956900 0.290300 0.000000
vn -0.881900 0.471400 0.000000
vn -0.882000 0.471300 -0.000000
vn -0.773000 0.634400 0.000000
vn -0.634400 0.773000 0.000000
vn -0.471400 0.881900 0.000000
vn 0.000000 0.000000 1.000000
vn -0.098000 0.995200 0.000000
vn -0.290300 0.956900 0.000000
vn 0.000000 0.000000 -1.000000
vn 0.000100 0.000000 1.000000
vn 0.000200 -0.000000 1.000000
vn -0.000100 0.000000 1.000000
vn -0.000700 0.000000 1.000000
vn 0.000100 0.000000 -1.000000
vn 0.000100 -0.000100 -1.000000
vn 0.000700 -0.001200 -1.000000
vn -0.000600 0.001800 -1.000000
vn 0.000000 -0.000100 -1.000000
vn -0.001000 -0.000700 -1.000000
vn 0.002700 0.000500 -1.000000
s 1
f 1/1/1 2/2/1 3/3/1
f 2/2/2 4/4/2 5/5/2
f 4/4/3 6/6/3 7/7/3
f 6/6/4 8/8/4 9/9/4
f 8/8/5 10/10/5 11/11/5
f 10/10/6 12/12/6 13/13/6
f 12/12/7 14/14/7 15/15/7
f 14/14/8 16/16/8 17/17/8
f 16/16/9 18/18/9 19/19/9
f 18/18/10 20/20/10 21/21/10
f 20/20/11 22/22/11 23/23/11
f 22/22/12 24/24/12 25/25/12
f 24/24/13 26/26/13 27/27/13
f 27/27/14 26/26/14 28/28/14
f 28/28/15 29/29/15 30/30/15
f 29/29/16 31/31/16 32/32/16
f 31/33/17 33/34/17 34/35/17
f 33/34/18 35/36/18 36/37/18
f 35/36/19 37/38/19 38/39/19
f 38/39/20 37/38/20 39/40/20
f 39/40/21 40/41/21 41/42/22
f 41/42/23 40/41/23 42/43/23
f 42/43/24 43/44/24 44/45/24
f 43/44/25 45/46/25 46/47/25
f 45/46/26 47/48/26 48/49/26
f 47/48/27 49/50/27 50/51/28
f 49/50/29 51/52/29 52/53/30
f 51/52/31 53/54/31 54/55/31
f 54/55/32 53/54/32 55/56/32
f 55/56/33 56/57/33 57/58/33
f 35/59/34 20/20/34 4/4/34
f 58/60/35 1/1/35 59/61/35
f 56/57/36 58/60/36 60/62/36
f 30/30/37 44/63/37 60/64/37
f 59/61/1 1/1/1 3/3/1
f 3/3/2 2/2/2 5/5/2
f 5/5/3 4/4/3 7/7/3
f 7/7/4 6/6/4 9/9/4
f 9/9/5 8/8/5 11/11/5
f 11/11/6 10/10/6 13/13/6
f 13/13/7 12/12/7 15/15/7
f 15/15/8 14/14/8 17/17/8
f 17/17/9 16/16/9 19/19/9
f 19/19/10 18/18/10 21/21/10
f 21/21/11 20/20/11 23/23/11
f 23/23/12 22/22/12 25/25/12
f 25/25/13 24/24/13 27/27/13
f 61/65/14 27/27/14 28/28/14
f 61/65/15 28/28/15 30/30/15
f 30/30/16 29/29/16 32/32/16
f 32/66/17 31/33/17 34/35/17
f 34/35/18 33/34/18 36/37/18
f 36/37/19 35/36/19 38/39/19
f 62/67/20 38/39/20 39/40/20
f 62/67/22 39/40/21 41/42/22
f 63/68/23 41/42/23 42/43/23
f 63/68/24 42/43/24 44/45/24
f 44/45/25 43/44/25 46/47/25
f 46/47/26 45/46/26 48/49/26
f 48/49/28 47/48/27 50/51/28
f 50/51/30 49/50/29 52/53/30
f 52/53/31 51/52/31 54/55/31
f 64/69/32 54/55/32 55/56/32
f 64/69/33 55/56/33 57/58/33
f 4/4/34 2/2/34 1/1/34
f 1/1/34 58/60/34 56/57/34
f 56/57/34 55/56/38 53/54/34
f 53/54/34 51/52/39 49/50/34
f 49/50/34 47/48/39 45/46/34
f 45/46/34 43/44/40 49/50/34
f 42/43/34 40/41/34 35/36/34
f 39/40/34 37/38/34 35/36/34
f 35/36/34 33/34/34 31/33/34
f 31/31/34 29/29/34 35/59/34
f 28/28/34 26/26/34 24/24/34
f 24/24/34 22/22/34 28/28/34
f 20/20/34 18/18/38 12/12/40
f 16/16/34 14/14/41 12/12/40
f 12/12/40 10/10/39 8/8/34
f 8/8/34 6/6/40 4/4/34
f 4/4/34 1/1/34 56/57/34
f 56/57/34 53/54/34 4/4/34
f 49/50/34 43/44/40 42/43/34
f 40/41/34 39/40/34 35/36/34
f 35/59/34 29/29/34 28/28/34
f 28/28/34 22/22/34 20/20/34
f 18/18/38 16/16/34 12/12/40
f 12/12/40 8/8/34 20/20/34
f 4/4/34 53/54/34 49/50/34
f 49/50/34 42/43/34 35/36/34
f 35/59/34 28/28/34 20/20/34
f 20/20/34 8/8/34 4/4/34
f 4/4/34 49/50/34 35/36/34
f 60/62/35 58/60/35 59/61/35
f 57/58/36 56/57/36 60/62/36
f 60/62/37 59/61/37 3/3/37
f 3/3/37 5/5/37 60/62/37
f 7/7/37 9/9/37 11/11/37
f 11/11/37 13/13/37 15/15/37
f 15/15/37 17/17/37 19/19/37
f 19/19/37 21/21/42 15/15/37
f 23/23/37 25/25/43 30/30/37
f 27/27/44 61/65/45 30/30/37
f 30/30/37 32/32/37 34/70/37
f 34/70/37 36/71/37 30/30/37
f 38/39/37 62/67/46 44/45/37
f 41/42/47 63/68/48 44/45/37
f 44/45/37 46/47/37 48/49/37
f 48/49/37 50/51/37 44/45/37
f 52/53/37 54/55/42 60/62/37
f 64/69/37 57/58/37 60/62/37
f 60/62/37 5/5/37 7/7/37
f 7/7/37 11/11/37 60/62/37
f 15/15/37 21/21/42 23/23/37
f 25/25/43 27/27/44 30/30/37
f 30/30/37 36/71/37 38/72/37
f 62/67/46 41/42/47 44/45/37
f 44/45/37 50/51/37 52/53/37
f 54/55/42 64/69/37 60/62/37
f 60/62/37 11/11/37 15/15/37
f 15/15/37 23/23/37 60/62/37
f 30/30/37 38/72/37 44/63/37
f 44/45/37 52/53/37 60/62/37
f 60/64/37 23/23/37 30/30/37
