# Blender v2.76 (sub 0) OBJ File: ''
# www.blender.org
mtllib stick.mtl
o Torus.001_Torus.002
v 5.273666 0.070545 -0.035022
v 5.273520 0.068762 -0.053124
v -5.635168 0.068762 0.035198
v 5.273378 0.063482 -0.070529
v -5.635309 0.063482 0.017794
v 5.273249 0.054908 -0.086569
v -5.635439 0.054908 0.001754
v 5.273135 0.043370 -0.100628
v -5.635553 0.043370 -0.012305
v 5.273041 0.029310 -0.112166
v -5.635646 0.029310 -0.023843
v 5.272972 0.013269 -0.120739
v -5.635715 0.013269 -0.032417
v 5.272929 -0.004136 -0.126019
v -5.635758 -0.004136 -0.037696
v 5.272915 -0.022237 -0.127801
v -5.635773 -0.022237 -0.039478
v 5.272929 -0.040338 -0.126019
v -5.635758 -0.040338 -0.037696
v 5.272972 -0.057743 -0.120739
v -5.635715 -0.057743 -0.032417
v 5.273041 -0.073784 -0.112166
v -5.635646 -0.073784 -0.023843
v 5.273135 -0.087844 -0.100628
v -5.635553 -0.087843 -0.012305
v 5.273249 -0.099383 -0.086569
v -5.635433 -0.099382 0.001754
v 5.273378 -0.107957 -0.070529
v 5.273520 -0.113237 -0.053124
v -5.635168 -0.113236 0.035199
v 5.273666 -0.115019 -0.035022
v -5.635022 -0.115019 0.053301
v 5.273813 -0.113237 -0.016924
v -5.634875 -0.113236 0.071399
v 5.273953 -0.107957 0.000481
v -5.634734 -0.107956 0.088803
v 5.274084 -0.099383 0.016522
v -5.634604 -0.099382 0.104845
v 5.274197 -0.087844 0.030581
v 5.274291 -0.073784 0.042120
v -5.634391 -0.073784 0.130443
v 5.274360 -0.057743 0.050694
v 5.274403 -0.040338 0.055972
v -5.634285 -0.040338 0.144295
v 5.274417 -0.022237 0.057756
v -5.634270 -0.022237 0.146078
v 5.274403 -0.004136 0.055972
v -5.634285 -0.004136 0.144295
v 5.274360 0.013269 0.050694
v -5.634327 0.013269 0.139015
v 5.274291 0.029310 0.042120
v -5.634397 0.029310 0.130443
v 5.274197 0.043370 0.030581
v -5.634490 0.043370 0.118903
v 5.274084 0.054908 0.016522
v 5.273953 0.063482 0.000481
v -5.634734 0.063482 0.088803
v 5.273813 0.068762 -0.016924
v -5.635022 0.070545 0.053301
v -5.634875 0.068762 0.071399
v -5.635309 -0.107956 0.017794
v -5.634490 -0.087843 0.118903
v -5.634327 -0.057743 0.139017
v -5.634604 0.054908 0.104845
vt 0.499721 0.132819
vt 0.501149 0.132819
vt 0.501149 0.160222
vt 0.502587 0.132819
vt 0.502587 0.160222
vt 0.504035 0.132819
vt 0.504035 0.160222
vt 0.505491 0.132819
vt 0.505491 0.160222
vt 0.506955 0.132819
vt 0.506955 0.160222
vt 0.508425 0.132819
vt 0.508425 0.160222
vt 0.509899 0.132819
vt 0.509899 0.160222
vt 0.511375 0.132819
vt 0.511375 0.160222
vt 0.512852 0.132819
vt 0.512852 0.160222
vt 0.514326 0.132819
vt 0.514326 0.160222
vt 0.515796 0.132819
vt 0.515796 0.160222
vt 0.517259 0.132819
vt 0.517259 0.160222
vt 0.518716 0.132819
vt 0.518716 0.160221
vt 0.520163 0.132819
vt 0.521601 0.132819
vt 0.521601 0.160222
vt 0.523030 0.132819
vt 0.523030 0.160222
vt 0.477424 0.132819
vt 0.478843 0.132819
vt 0.478843 0.160222
vt 0.480252 0.132819
vt 0.480252 0.160222
vt 0.481653 0.132819
vt 0.481653 0.160222
vt 0.483046 0.132819
vt 0.484434 0.132819
vt 0.484434 0.160221
vt 0.485816 0.132819
vt 0.487195 0.132819
vt 0.487195 0.160222
vt 0.488572 0.132819
vt 0.488572 0.160222
vt 0.489950 0.132819
vt 0.489950 0.160222
vt 0.491329 0.132819
vt 0.491329 0.160222
vt 0.492711 0.132819
vt 0.492711 0.160222
vt 0.494098 0.132819
vt 0.494098 0.160222
vt 0.495492 0.132819
vt 0.496893 0.132819
vt 0.496893 0.160222
vt 0.525858 0.132819
vt 0.498302 0.132819
vt 0.499721 0.160222
vt 0.498302 0.160222
vt 0.532801 0.160222
vt 0.543908 0.160222
vt 0.520163 0.160222
vt 0.477424 0.160222
vt 0.483046 0.160222
vt 0.485816 0.160222
vt 0.495492 0.160222
vt 0.524448 0.160222
vt 0.525858 0.160222
vt 0.527259 0.160222
vn -0.000800 0.995200 -0.098000
vn -0.002400 0.956900 -0.290300
vn -0.003800 0.881900 -0.471400
vn -0.005100 0.773000 -0.634300
vn -0.006300 0.634400 -0.773000
vn -0.007100 0.471400 -0.881900
vn -0.007700 0.290300 -0.956900
vn -0.008100 0.098000 -0.995200
vn -0.008100 -0.098000 -0.995200
vn -0.007700 -0.290300 -0.956900
vn -0.007100 -0.471400 -0.881900
vn -0.006300 -0.634400 -0.773000
vn -0.005100 -0.773000 -0.634400
vn -0.003800 -0.881900 -0.471400
vn -0.002400 -0.956900 -0.290300
vn -0.000800 -0.995200 -0.098000
vn 0.000800 -0.995200 0.098000
vn 0.002400 -0.956900 0.290300
vn 0.003800 -0.881900 0.471400
vn 0.005100 -0.773000 0.634400
vn 0.006300 -0.634400 0.773000
vn 0.006300 -0.634500 0.772900
vn 0.007100 -0.471400 0.881900
vn 0.007700 -0.290200 0.956900
vn 0.008100 -0.098100 0.995100
vn 0.008100 0.098100 0.995100
vn 0.007700 0.290200 0.956900
vn 0.007700 0.290300 0.956900
vn 0.007100 0.471400 0.881900
vn 0.007100 0.471300 0.881900
vn 0.006300 0.634400 0.773000
vn 0.005100 0.773000 0.634400
vn 0.003800 0.881900 0.471400
vn 1.000000 0.000000 -0.008100
vn 0.000800 0.995200 0.098000
vn 0.002400 0.956900 0.290300
vn -1.000000 0.000000 0.008100
vn 1.000000 -0.000100 -0.008100
vn 1.000000 -0.000500 -0.008100
vn 1.000000 0.000000 -0.008200
vn 1.000000 0.000100 -0.008100
vn 1.000000 -0.000100 -0.007900
vn 1.000000 0.000000 -0.008000
vn 1.000000 -0.000200 -0.008100
vn 1.000000 0.000500 -0.008100
vn 1.000000 0.000200 -0.008100
vn 1.000000 0.000000 -0.007700
vn 1.000000 0.000100 -0.007500
vn 1.000000 -0.000100 -0.008200
vn -1.000000 -0.000500 0.008100
vn -1.000000 0.000300 0.008100
vn -1.000000 0.000100 0.008100
vn -1.000000 -0.000100 0.008100
vn -1.000000 -0.000100 0.008000
vn -1.000000 0.000000 0.008000
vn -1.000000 -0.001100 0.007300
vn -1.000000 0.001800 0.008600
vn -1.000000 0.000500 0.008100
vn -1.000000 0.000000 0.008200
vn -1.000000 -0.000800 0.009200
vn -1.000000 0.000500 0.005400
vn -1.000000 0.000000 0.008300
vn -1.000000 -0.000200 0.008000
usemtl None
s 1
f 1/1/1 2/2/1 3/3/1
f 2/2/2 4/4/2 5/5/2
f 4/4/3 6/6/3 7/7/3
f 6/6/4 8/8/4 9/9/4
f 8/8/5 10/10/5 11/11/5
f 10/10/6 12/12/6 13/13/6
f 12/12/7 14/14/7 15/15/7
f 14/14/8 16/16/8 17/17/8
f 16/16/9 18/18/9 19/19/9
f 18/18/10 20/20/10 21/21/10
f 20/20/11 22/22/11 23/23/11
f 22/22/12 24/24/12 25/25/12
f 24/24/13 26/26/13 27/27/13
f 27/27/14 26/26/14 28/28/14
f 28/28/15 29/29/15 30/30/15
f 29/29/16 31/31/16 32/32/16
f 31/33/17 33/34/17 34/35/17
f 33/34/18 35/36/18 36/37/18
f 35/36/19 37/38/19 38/39/19
f 38/39/20 37/38/20 39/40/20
f 39/40/21 40/41/21 41/42/22
f 41/42/23 40/41/23 42/43/23
f 42/43/24 43/44/24 44/45/24
f 43/44/25 45/46/25 46/47/25
f 45/46/26 47/48/26 48/49/26
f 47/48/27 49/50/27 50/51/28
f 49/50/29 51/52/29 52/53/30
f 51/52/31 53/54/31 54/55/31
f 54/55/32 53/54/32 55/56/32
f 55/56/33 56/57/33 57/58/33
f 35/59/34 20/20/34 4/4/34
f 58/60/35 1/1/35 59/61/35
f 56/57/36 58/60/36 60/62/36
f 30/30/37 44/63/37 60/64/37
f 59/61/1 1/1/1 3/3/1
f 3/3/2 2/2/2 5/5/2
f 5/5/3 4/4/3 7/7/3
f 7/7/4 6/6/4 9/9/4
f 9/9/5 8/8/5 11/11/5
f 11/11/6 10/10/6 13/13/6
f 13/13/7 12/12/7 15/15/7
f 15/15/8 14/14/8 17/17/8
f 17/17/9 16/16/9 19/19/9
f 19/19/10 18/18/10 21/21/10
f 21/21/11 20/20/11 23/23/11
f 23/23/12 22/22/12 25/25/12
f 25/25/13 24/24/13 27/27/13
f 61/65/14 27/27/14 28/28/14
f 61/65/15 28/28/15 30/30/15
f 30/30/16 29/29/16 32/32/16
f 32/66/17 31/33/17 34/35/17
f 34/35/18 33/34/18 36/37/18
f 36/37/19 35/36/19 38/39/19
f 62/67/20 38/39/20 39/40/20
f 62/67/22 39/40/21 41/42/22
f 63/68/23 41/42/23 42/43/23
f 63/68/24 42/43/24 44/45/24
f 44/45/25 43/44/25 46/47/25
f 46/47/26 45/46/26 48/49/26
f 48/49/28 47/48/27 50/51/28
f 50/51/30 49/50/29 52/53/30
f 52/53/31 51/52/31 54/55/31
f 64/69/32 54/55/32 55/56/32
f 64/69/33 55/56/33 57/58/33
f 4/4/34 2/2/34 1/1/38
f 1/1/38 58/60/39 56/57/38
f 56/57/38 55/56/40 53/54/34
f 53/54/34 51/52/41 49/50/34
f 49/50/34 47/48/42 45/46/40
f 45/46/40 43/44/43 49/50/34
f 42/43/34 40/41/41 35/36/34
f 39/40/44 37/38/40 35/36/34
f 35/36/34 33/34/45 31/33/34
f 31/31/34 29/29/41 35/59/34
f 28/28/34 26/26/43 24/24/46
f 24/24/46 22/22/38 28/28/34
f 20/20/34 18/18/34 12/12/34
f 16/16/47 14/14/48 12/12/34
f 12/12/34 10/10/49 8/8/34
f 8/8/34 6/6/43 4/4/34
f 4/4/34 1/1/38 56/57/38
f 56/57/38 53/54/34 4/4/34
f 49/50/34 43/44/43 42/43/34
f 40/41/41 39/40/44 35/36/34
f 35/59/34 29/29/41 28/28/34
f 28/28/34 22/22/38 20/20/34
f 18/18/34 16/16/47 12/12/34
f 12/12/34 8/8/34 20/20/34
f 4/4/34 53/54/34 49/50/34
f 49/50/34 42/43/34 35/36/34
f 35/59/34 28/28/34 20/20/34
f 20/20/34 8/8/34 4/4/34
f 4/4/34 49/50/34 35/36/34
f 60/62/35 58/60/35 59/61/35
f 57/58/36 56/57/36 60/62/36
f 60/62/37 59/61/50 3/3/51
f 3/3/51 5/5/52 60/62/37
f 7/7/53 9/9/37 11/11/37
f 11/11/37 13/13/54 15/15/37
f 15/15/37 17/17/55 19/19/37
f 19/19/37 21/21/37 15/15/37
f 23/23/37 25/25/54 30/30/37
f 27/27/56 61/65/57 30/30/37
f 30/30/37 32/32/58 34/70/37
f 34/70/37 36/71/37 30/30/37
f 38/39/37 62/67/59 44/45/37
f 41/42/60 63/68/61 44/45/37
f 44/45/37 46/47/62 48/49/55
f 48/49/55 50/51/37 44/45/37
f 52/53/37 54/55/37 60/62/37
f 64/69/37 57/58/63 60/62/37
f 60/62/37 5/5/52 7/7/53
f 7/7/53 11/11/37 60/62/37
f 15/15/37 21/21/37 23/23/37
f 25/25/54 27/27/56 30/30/37
f 30/30/37 36/71/37 38/72/37
f 62/67/59 41/42/60 44/45/37
f 44/45/37 50/51/37 52/53/37
f 54/55/37 64/69/37 60/62/37
f 60/62/37 11/11/37 15/15/37
f 15/15/37 23/23/37 60/62/37
f 30/30/37 38/72/37 44/63/37
f 44/45/37 52/53/37 60/62/37
f 60/64/37 23/23/37 30/30/37
