# Blender v2.76 (sub 0) OBJ File: ''
# www.blender.org
mtllib table4.mtl
o Circle_Circle.003
v -8.310582 -1.550684 -11.659410
v -7.918343 -0.007686 6.259284
v -0.268058 -0.022001 6.093044
v -0.216501 0.180821 8.448403
v -7.492349 0.194435 8.606499
v -6.359190 0.375369 10.707679
v -0.169989 0.363789 10.573195
v -4.629791 0.517407 12.357150
v -0.133069 0.508993 12.259435
v 4.363646 0.500579 12.161726
v 6.019222 0.352207 10.438703
v -0.660298 -1.564998 -11.825642
v 7.382225 -0.036316 5.926812
v 7.059356 0.167207 8.290300
v 2.254690 0.597796 13.290707
v -2.473438 0.606643 13.393444
v -0.101212 0.634343 13.715122
v -8.310582 0.415526 -11.828722
v -7.918343 1.958522 6.089972
v 7.382225 1.929893 5.757500
v 6.989986 0.386897 -12.161194
v -0.101212 2.600552 13.545810
v 2.254690 2.564005 13.121394
v -7.492349 2.160643 8.437186
v -0.660298 0.401212 -11.994954
v 4.363646 2.466787 11.992414
v -6.359190 2.341578 10.538366
v 6.019222 2.318416 10.269390
v -4.629791 2.483615 12.187838
v 7.059356 2.133415 8.120988
v -2.473438 2.572852 13.224132
v 6.989986 -1.579313 -11.991881
v -0.268058 -0.250718 6.112739
v -8.083694 -0.164034 6.289458
v -8.445982 -1.693848 -11.777175
v -6.494262 0.230141 10.823273
v -7.652543 0.045193 8.675495
v -0.216501 -0.047896 8.468099
v -4.726512 0.375327 12.509315
v -0.169989 0.135072 10.592891
v 4.466352 0.358126 12.309555
v -0.133069 0.280276 12.279130
v 6.158634 0.206465 10.548332
v -0.663837 -1.740646 -11.973403
v 7.119607 -1.722974 -12.115405
v 7.221829 0.017361 8.352285
v 2.310629 0.457499 13.463566
v -0.097512 0.494857 13.897399
v -2.522339 0.466542 13.568588
v -8.146748 1.960495 6.112878
v -8.476398 0.401907 -11.986885
v 7.611415 1.931009 5.770464
v 7.548147 -0.193283 5.949788
v 2.330369 2.582598 13.337317
v -0.096207 2.620242 13.774465
v -0.665303 0.381521 -12.223618
v 4.502593 2.482464 12.174470
v -6.541928 2.353499 10.676801
v -7.709080 2.167136 8.512588
v -4.760639 2.499797 12.375757
v 6.207835 2.329642 10.399756
v 7.279174 2.139091 8.186902
v -2.539595 2.591711 13.443136
v 7.148725 0.372670 -12.326408
vt 0.659112 0.246330
vt 0.659112 0.688904
vt 0.470855 0.688903
vt 0.470855 0.747078
vt 0.649898 0.747078
vt 0.623158 0.799559
vt 0.470855 0.799558
vt 0.581510 0.841207
vt 0.470855 0.841207
vt 0.360200 0.841207
vt 0.318551 0.799558
vt 0.470855 0.246330
vt 0.282597 0.688903
vt 0.291811 0.747078
vt 0.412680 0.867947
vt 0.529029 0.867947
vt 0.470855 0.877161
vt 0.250000 1.000000
vt 0.000000 1.000000
vt 0.000000 0.276051
vt 0.500000 0.723949
vt 0.250000 0.723949
vt 0.250000 0.000000
vt 1.000000 0.192158
vt 0.750000 0.192158
vt 0.750000 0.093669
vt 0.250000 0.276051
vt 0.000000 0.177695
vt 0.750000 0.314793
vt 0.500000 0.314793
vt 0.500000 0.000000
vt 1.000000 0.093669
vt 0.750000 0.000000
vt 0.250000 0.177695
vt 0.000000 0.082574
vt 0.500000 1.000000
vt 0.250001 0.917426
vt 0.250000 0.082574
vt 0.000000 0.000000
vt 0.500000 0.917426
vt 0.250001 0.822305
vt 1.000000 0.365505
vt 0.750000 0.365505
vt 0.750000 0.285826
vt 0.500000 0.822305
vt 1.000000 0.285826
vt 0.750000 0.629587
vt 0.500000 0.629587
vt 0.663188 0.689224
vt 0.662373 0.243069
vt 0.626536 0.802012
vt 0.653868 0.748368
vt 0.583963 0.844584
vt 0.357746 0.844584
vt 0.315174 0.802012
vt 0.470855 0.242336
vt 0.279337 0.243069
vt 0.287841 0.748368
vt 0.411390 0.871917
vt 0.470855 0.881335
vt 0.530319 0.871917
vt 0.251894 0.720471
vt 0.261166 0.000000
vt 0.503709 0.001329
vt 0.000039 0.279529
vt 0.245674 0.279300
vt 0.251854 0.998671
vt 0.751097 0.276049
vt 0.749805 0.176038
vt 0.994998 0.176025
vt 0.497528 0.720700
vt 0.497045 0.819272
vt 0.749805 0.316934
vt 0.503709 0.316917
vt 0.507236 0.001191
vt 0.754845 0.371161
vt 0.996279 0.275276
vt 0.254152 0.916200
vt 0.251854 0.819633
vt 0.006715 0.000000
vt 0.251854 0.001731
vt 0.247471 0.084894
vt 0.258569 1.000000
vt 0.499325 0.915106
vt 0.002298 0.083800
vt 0.245191 0.180727
vt 0.754845 0.000000
vt 1.000000 0.001324
vt 0.996280 0.081628
vt 0.000000 0.180367
vt 0.751097 0.080918
vt 0.749450 0.633868
vt 0.506883 0.632643
vt 0.470855 0.882808
vt 0.410935 0.873318
vt 0.356880 0.845776
vt 0.313982 0.802878
vt 0.286440 0.748823
vt 0.276967 0.689346
vt 0.282597 0.246330
vt 0.278604 0.242336
vt 0.470855 0.240682
vt 0.663106 0.242337
vt 0.664743 0.689346
vt 0.655270 0.748823
vt 0.627727 0.802878
vt 0.584829 0.845776
vt 0.530775 0.873318
vt 1.000000 0.000000
vt 0.278521 0.689224
vt 0.009312 1.000000
vt 0.749805 0.000000
vt 1.000000 0.369666
vt 0.503709 0.998269
vn -0.000000 0.996300 -0.085800
vn 0.999800 -0.001900 -0.021700
vn -0.999800 0.001900 0.021700
vn -0.177900 -0.084400 -0.980400
vn 0.984000 -0.015300 -0.177300
vn 0.021800 0.085800 0.996100
vn -0.473300 -0.075600 -0.877600
vn 0.880900 -0.040600 -0.471600
vn -0.722400 -0.059300 -0.689000
vn 0.691500 -0.062000 -0.719700
vn -0.900700 -0.037300 -0.432900
vn 0.434500 -0.077300 -0.897400
vn -0.990900 -0.011600 -0.134400
vn 0.134900 -0.085000 -0.987200
vn -0.009100 -0.996400 0.084600
vn -0.009900 -0.995800 0.091100
vn -0.011400 -0.995200 0.097600
vn 0.016300 -0.996200 0.085400
vn 0.011800 -0.996300 0.085500
vn 0.003800 -0.996600 0.082000
vn 0.010100 -0.996300 0.085600
vn -0.009000 -0.996000 0.089000
vn 0.016000 -0.993200 0.115500
vn -0.006300 -0.991300 0.131600
vn -0.999700 -0.012600 0.019300
vn 0.999300 -0.031500 -0.021000
vn 0.177900 0.056700 0.982400
vn -0.983700 -0.014300 0.179000
vn -0.025700 -0.117100 -0.992800
vn 0.473100 0.047900 0.879700
vn -0.880600 0.012900 0.473800
vn 0.722100 0.031600 0.691100
vn -0.691300 0.034300 0.721800
vn 0.900300 0.009600 0.435100
vn -0.434300 0.049600 0.899400
vn 0.990400 -0.016000 0.137500
vn -0.134800 0.057300 0.989200
vn -0.013200 -0.100000 -0.994900
vn -0.003900 -0.996600 0.082200
vn -0.011800 -0.996200 0.086000
vn -0.016300 -0.996200 0.086100
vn 0.011900 -0.995200 0.097100
vn 0.010100 -0.995800 0.090700
vn 0.009100 -0.996400 0.084200
vn 0.009200 -0.996000 0.088600
vn -0.010100 -0.996200 0.086000
vn 0.008300 -0.991300 0.131300
vn -0.014700 -0.993100 0.116200
vn -0.999400 -0.027800 0.022400
vn 0.999600 -0.016300 -0.024200
vn -0.983500 -0.012400 0.180400
vn -0.030400 -0.100000 -0.994500
vn 0.990500 -0.018000 0.136100
vn -0.017800 -0.117100 -0.993000
usemtl None
s 1
f 1/1/1 2/2/1 3/3/1
f 4/4/1 5/5/1 6/6/1
f 7/7/1 6/6/1 8/8/1
f 7/7/1 9/9/1 10/10/1
f 4/4/1 7/7/1 11/11/1
f 12/12/1 3/3/1 13/13/1
f 3/3/1 4/4/1 14/14/1
f 3/3/1 2/2/1 5/5/1
f 15/15/1 10/10/1 9/9/1
f 16/16/1 17/17/1 9/9/1
f 1/18/2 18/19/2 19/20/2
f 13/21/3 20/22/3 21/23/3
f 17/24/4 22/25/4 23/26/4
f 2/27/5 19/20/5 24/28/5
f 12/29/6 25/30/6 18/31/6
f 15/32/7 23/26/7 26/33/7
f 5/34/8 24/28/8 27/35/8
f 10/36/9 26/18/9 28/37/9
f 6/38/10 27/35/10 29/39/10
f 11/40/11 28/37/11 30/41/11
f 8/42/12 29/43/12 31/44/12
f 14/45/13 30/41/13 20/22/13
f 16/46/14 31/44/14 22/25/14
f 32/47/6 21/48/6 25/30/6
f 33/3/15 34/49/15 35/50/15
f 36/51/16 37/52/16 38/4/16
f 39/53/17 36/51/17 40/7/17
f 41/54/18 42/9/18 40/7/18
f 43/55/19 40/7/19 38/4/19
f 33/3/20 44/56/20 45/57/20
f 46/58/21 38/4/21 33/3/21
f 37/52/22 34/49/22 33/3/22
f 42/9/23 41/54/23 47/59/23
f 42/9/24 48/60/24 49/61/24
f 50/62/25 51/63/25 35/64/25
f 52/65/26 53/66/26 45/67/26
f 54/68/27 55/69/27 48/70/27
f 50/62/28 34/71/28 37/72/28
f 56/73/29 44/74/29 35/75/29
f 57/76/30 54/68/30 47/77/30
f 58/78/31 59/79/31 37/72/31
f 57/80/32 41/81/32 43/82/32
f 60/83/33 58/78/33 36/84/33
f 61/85/34 43/82/34 46/86/34
f 60/87/35 39/88/35 49/89/35
f 52/65/36 62/90/36 46/86/36
f 63/91/37 49/89/37 48/70/37
f 56/73/38 64/92/38 45/93/38
f 22/17/1 55/94/1 54/95/1
f 23/15/1 54/95/1 57/96/1
f 26/10/1 57/96/1 61/97/1
f 30/14/1 28/11/1 61/97/1
f 30/14/1 62/98/1 52/99/1
f 21/100/1 64/101/1 56/102/1
f 18/1/1 51/103/1 50/104/1
f 21/100/1 20/13/1 52/99/1
f 24/5/1 19/2/1 50/104/1
f 24/5/1 59/105/1 58/106/1
f 27/6/1 58/106/1 60/107/1
f 31/16/1 29/8/1 60/107/1
f 22/17/1 31/16/1 63/108/1
f 18/1/1 25/12/1 56/102/1
f 12/12/1 1/1/1 3/3/1
f 7/7/1 4/4/1 6/6/1
f 9/9/1 7/7/1 8/8/1
f 11/11/1 7/7/1 10/10/1
f 14/14/1 4/4/1 11/11/1
f 32/100/1 12/12/1 13/13/1
f 13/13/1 3/3/1 14/14/1
f 4/4/1 3/3/1 5/5/1
f 17/17/1 15/15/1 9/9/1
f 8/8/1 16/16/1 9/9/1
f 2/27/2 1/18/2 19/20/2
f 32/31/3 13/21/3 21/23/3
f 15/32/4 17/24/4 23/26/4
f 5/34/5 2/27/5 24/28/5
f 1/33/6 12/29/6 18/31/6
f 10/109/7 15/32/7 26/33/7
f 6/38/8 5/34/8 27/35/8
f 11/40/9 10/36/9 28/37/9
f 8/23/10 6/38/10 29/39/10
f 14/45/11 11/40/11 30/41/11
f 16/46/12 8/42/12 31/44/12
f 13/21/13 14/45/13 20/22/13
f 17/24/14 16/46/14 22/25/14
f 12/29/6 32/47/6 25/30/6
f 44/56/39 33/3/39 35/50/39
f 40/7/40 36/51/40 38/4/40
f 42/9/41 39/53/41 40/7/41
f 43/55/42 41/54/42 40/7/42
f 46/58/43 43/55/43 38/4/43
f 53/110/44 33/3/44 45/57/44
f 53/110/45 46/58/45 33/3/45
f 38/4/46 37/52/46 33/3/46
f 48/60/47 42/9/47 47/59/47
f 39/53/48 42/9/48 49/61/48
f 34/71/49 50/62/49 35/64/49
f 64/111/50 52/65/50 45/67/50
f 47/77/27 54/68/27 48/70/27
f 59/79/51 50/62/51 37/72/51
f 51/112/52 56/73/52 35/75/52
f 41/113/30 57/76/30 47/77/30
f 36/84/31 58/78/31 37/72/31
f 61/85/32 57/80/32 43/82/32
f 39/114/33 60/83/33 36/84/33
f 62/90/34 61/85/34 46/86/34
f 63/91/35 60/87/35 49/89/35
f 53/66/53 52/65/53 46/86/53
f 55/69/37 63/91/37 48/70/37
f 44/74/54 56/73/54 45/93/54
f 23/15/1 22/17/1 54/95/1
f 26/10/1 23/15/1 57/96/1
f 28/11/1 26/10/1 61/97/1
f 62/98/1 30/14/1 61/97/1
f 20/13/1 30/14/1 52/99/1
f 25/12/1 21/100/1 56/102/1
f 19/2/1 18/1/1 50/104/1
f 64/101/1 21/100/1 52/99/1
f 59/105/1 24/5/1 50/104/1
f 27/6/1 24/5/1 58/106/1
f 29/8/1 27/6/1 60/107/1
f 63/108/1 31/16/1 60/107/1
f 55/94/1 22/17/1 63/108/1
f 51/103/1 18/1/1 56/102/1
