# Blender v2.76 (sub 0) OBJ File: 'blender.blend'
# www.blender.org
mtllib box.mtl
o Cube
v 3.148974 0.624944 -2.274585
v 3.148974 -0.624944 -2.274585
v 3.148974 0.624944 2.274585
v 3.148974 -0.624944 2.274585
v -3.148974 0.624944 -2.274585
v -3.148974 -0.624944 -2.274585
v -3.148974 0.624944 2.274585
v -3.148974 -0.624944 2.274585
vn -1.000000 0.000000 0.000000
vn 1.000000 0.000000 0.000000
vn 0.000000 0.000000 -1.000000
vn 0.000000 0.000000 1.000000
vn 0.000000 -1.000000 0.000000
usemtl Material
s off
f 5//1 6//1 8//1
f 3//2 4//2 2//2
f 1//3 2//3 6//3
f 7//4 8//4 4//4
f 7//1 5//1 8//1
f 1//2 3//2 2//2
f 5//3 1//3 6//3
f 3//4 7//4 4//4
usemtl Material.001
f 6//5 2//5 4//5
f 8//5 6//5 4//5
