# Blender v2.76 (sub 0) OBJ File: ''
# www.blender.org
mtllib box.mtl
o Cube_Cube.001
v -2.334324 -1.000000 1.000000
v -2.334324 -0.569271 1.000000
v -2.334324 -1.000000 -1.000000
v -2.334324 -0.569271 -1.000000
v 2.334324 -1.000000 1.000000
v 2.334324 -0.569271 1.000000
v 2.334324 -1.000000 -1.000000
v 2.334324 -0.569271 -1.000000
v -2.199552 -0.942265 0.942265
v -2.169268 -0.569271 0.929292
v -2.199552 -0.942265 -0.942265
v -2.169268 -0.569271 -0.929292
v 2.199552 -0.942265 0.942265
v 2.169268 -0.569271 0.929292
v 2.199552 -0.942265 -0.942265
v 2.169268 -0.569271 -0.929292
vt 0.710882 0.471133
vt 0.803881 0.471133
vt 0.803881 0.971133
vt 0.431886 0.471133
vt 0.524884 0.471133
vt 0.524884 0.971133
vt 0.617883 0.971133
vt 0.710882 0.971133
vt 0.617883 0.471133
vt 0.431886 1.000000
vt 0.000000 1.000000
vt 0.000000 0.500000
vt 0.965044 0.942265
vt 0.884463 0.939022
vt 0.884463 0.474376
vt 1.000000 0.471133
vt 0.919418 0.467889
vt 0.919418 0.003243
vt 0.919418 0.471133
vt 0.838836 0.467889
vt 0.838836 0.003243
vt 0.884462 0.942265
vt 0.803881 0.939022
vt 0.803881 0.474376
vt 0.838836 0.000000
vt 0.838836 0.471133
vt 0.015269 0.482323
vt 0.416617 0.482323
vt 0.431886 0.500000
vt 0.416617 0.017677
vt 0.431885 0.000000
vt 0.015269 0.017677
vt 0.000000 0.000000
vt 0.431886 0.971133
vt 0.965044 0.471133
vt 1.000000 0.000000
vt 0.919418 0.000000
vt 0.884462 0.471133
vn -1.000000 0.000000 0.000000
vn 0.000000 0.000000 -1.000000
vn 1.000000 0.000000 0.000000
vn 0.000000 0.000000 1.000000
vn 0.000000 -1.000000 0.000000
vn 0.996700 -0.080900 0.000000
vn 0.000000 -0.034800 0.999400
vn -0.996700 -0.080900 0.000000
vn 0.000000 -0.034800 -0.999400
vn 0.000000 1.000000 0.000000
usemtl Material.002
s off
f 4/1/1 3/2/1 1/3/1
f 8/4/2 7/5/2 3/6/2
f 6/7/3 5/6/3 7/5/3
f 2/8/4 1/7/4 5/9/4
f 3/10/5 7/11/5 5/12/5
f 11/13/6 12/14/6 10/15/6
f 15/16/7 16/17/7 12/18/7
f 13/19/8 14/20/8 16/21/8
f 9/22/9 10/23/9 14/24/9
f 15/25/10 11/26/10 9/4/10
f 2/12/10 10/27/10 12/28/10
f 4/29/10 12/28/10 16/30/10
f 8/31/10 16/30/10 14/32/10
f 6/33/10 14/32/10 10/27/10
f 2/8/1 4/1/1 1/3/1
f 4/34/2 8/4/2 3/6/2
f 8/9/3 6/7/3 7/5/3
f 6/1/4 2/8/4 5/9/4
f 1/29/5 3/10/5 5/12/5
f 9/35/6 11/13/6 10/15/6
f 11/36/7 15/16/7 12/18/7
f 15/37/8 13/19/8 16/21/8
f 13/38/9 9/22/9 14/24/9
f 13/31/10 15/25/10 9/4/10
f 4/29/10 2/12/10 12/28/10
f 8/31/10 4/29/10 16/30/10
f 6/33/10 8/31/10 14/32/10
f 2/12/10 6/33/10 10/27/10
