# Blender v2.77 (sub 0) OBJ File: ''
# www.blender.org
mtllib PA4.mtl
o Cube
v 1.632519 0.040078 -0.385319
v 1.632519 0.040078 1.114935
v -1.620540 0.040078 1.114935
v -1.620540 0.040078 -0.385319
v 1.632520 0.091631 -0.385318
v 1.632518 0.091631 1.114935
v -1.620541 0.091631 1.114934
v -1.620540 0.091631 -0.385319
v 1.581575 0.040078 -0.385319
v 1.581574 0.040078 1.114935
v 1.581575 0.091631 -0.385318
v 1.581573 0.091631 1.114935
v -1.559376 0.040078 -0.385319
v -1.559376 0.040078 1.114935
v -1.559376 0.091631 -0.385319
v -1.559377 0.091631 1.114934
v 1.632519 0.040078 -0.327369
v -1.620540 0.040078 -0.327369
v 1.632520 0.091631 -0.327369
v -1.620540 0.091631 -0.327369
v 1.581575 0.091631 -0.327369
v 1.581575 0.040078 -0.327369
v -1.559376 0.091631 -0.327369
v -1.559376 0.040078 -0.327369
v 1.632519 0.040078 1.061611
v 1.632518 0.091631 1.061611
v 1.581574 0.091631 1.061611
v -1.559377 0.091631 1.061611
v -1.620540 0.040078 1.061611
v -1.620541 0.091631 1.061611
v 1.581574 0.040078 1.061611
v -1.559376 0.040078 1.061611
v 1.632518 0.503766 1.061611
v 1.632518 0.503766 1.114935
v -1.559376 0.503766 -0.385319
v -1.620540 0.503766 -0.385319
v -1.559377 0.503766 1.114934
v -1.620541 0.503766 1.114934
v -1.620540 0.503766 -0.327369
v 1.632520 0.503766 -0.385318
v 1.581575 0.503766 -0.385318
v 1.581573 0.503766 1.114935
v 1.581574 0.503766 1.061611
v -1.559377 0.503766 1.061611
v 1.632520 0.503766 -0.327369
v -1.620541 0.503766 1.061611
v 1.581575 0.503766 -0.327369
v -1.559376 0.503766 -0.327369
vn 0.0000 -1.0000 0.0000
vn 1.0000 0.0000 0.0000
vn 0.0000 0.0000 1.0000
vn -1.0000 -0.0000 0.0000
vn 0.0000 0.0000 -1.0000
vn 0.0000 1.0000 0.0000
usemtl Material
s off
f 14//1 29//1 32//1
f 26//2 2//2 25//2
f 16//3 3//3 14//3
f 18//4 8//4 4//4
f 15//5 4//5 8//5
f 1//5 11//5 5//5
f 6//3 10//3 2//3
f 2//1 31//1 25//1
f 9//5 15//5 11//5
f 12//3 14//3 10//3
f 26//2 34//2 6//2
f 10//1 32//1 31//1
f 22//1 13//1 9//1
f 5//2 45//2 19//2
f 17//1 9//1 1//1
f 6//3 42//3 12//3
f 30//4 18//4 29//4
f 5//2 17//2 1//2
f 21//3 48//3 23//3
f 24//1 4//1 13//1
f 7//4 29//4 3//4
f 31//1 24//1 22//1
f 25//1 22//1 17//1
f 19//2 25//2 17//2
f 11//5 40//5 5//5
f 32//1 18//1 24//1
f 46//6 37//6 44//6
f 43//6 34//6 33//6
f 43//6 37//6 42//6
f 35//6 47//6 41//6
f 41//6 45//6 40//6
f 36//6 48//6 35//6
f 47//6 33//6 45//6
f 39//6 44//6 48//6
f 8//5 35//5 15//5
f 27//4 47//4 21//4
f 28//5 43//5 27//5
f 23//2 44//2 28//2
f 16//3 38//3 7//3
f 20//4 36//4 8//4
f 7//4 46//4 30//4
f 14//1 3//1 29//1
f 26//2 6//2 2//2
f 16//3 7//3 3//3
f 18//4 20//4 8//4
f 15//5 13//5 4//5
f 1//5 9//5 11//5
f 6//3 12//3 10//3
f 2//1 10//1 31//1
f 9//5 13//5 15//5
f 12//3 16//3 14//3
f 26//2 33//2 34//2
f 10//1 14//1 32//1
f 22//1 24//1 13//1
f 5//2 40//2 45//2
f 17//1 22//1 9//1
f 6//3 34//3 42//3
f 30//4 20//4 18//4
f 5//2 19//2 17//2
f 21//3 47//3 48//3
f 24//1 18//1 4//1
f 7//4 30//4 29//4
f 31//1 32//1 24//1
f 25//1 31//1 22//1
f 19//2 26//2 25//2
f 11//5 41//5 40//5
f 32//1 29//1 18//1
f 46//6 38//6 37//6
f 43//6 42//6 34//6
f 43//6 44//6 37//6
f 35//6 48//6 47//6
f 41//6 47//6 45//6
f 36//6 39//6 48//6
f 47//6 43//6 33//6
f 39//6 46//6 44//6
f 8//5 36//5 35//5
f 27//4 43//4 47//4
f 28//5 44//5 43//5
f 23//2 48//2 44//2
f 16//3 37//3 38//3
f 20//4 39//4 36//4
f 7//4 38//4 46//4
usemtl Material.001
f 12//3 37//3 16//3
f 19//2 33//2 26//2
f 23//6 27//6 21//6
f 15//5 41//5 11//5
f 30//4 39//4 20//4
f 12//3 42//3 37//3
f 19//2 45//2 33//2
f 23//6 28//6 27//6
f 15//5 35//5 41//5
f 30//4 46//4 39//4
