# Blender v2.76 (sub 0) OBJ File: ''
# www.blender.org
mtllib cyclinder.mtl
o Cylinder
v 0.000000 -1.000000 -1.000000
v 0.000000 1.000000 -1.000000
v 0.382683 -1.000000 -0.923880
v 0.382683 1.000000 -0.923880
v 0.707107 -1.000000 -0.707107
v 0.707107 1.000000 -0.707107
v 0.923880 -1.000000 -0.382683
v 0.923880 1.000000 -0.382683
v 1.000000 -1.000000 0.000000
v 1.000000 1.000000 0.000000
v 0.923880 -1.000000 0.382684
v 0.923880 1.000000 0.382684
v 0.707107 -1.000000 0.707107
v 0.707107 1.000000 0.707107
v 0.382683 -1.000000 0.923880
v 0.382683 1.000000 0.923880
v 0.000000 -1.000000 1.000000
v 0.000000 1.000000 1.000000
v -0.382683 -1.000000 0.923880
v -0.382683 1.000000 0.923880
v -0.707107 -1.000000 0.707107
v -0.707107 1.000000 0.707107
v -0.923880 -1.000000 0.382684
v -0.923880 1.000000 0.382684
v -1.000000 -1.000000 -0.000000
v -1.000000 1.000000 -0.000000
v -0.923879 -1.000000 -0.382684
v -0.923879 1.000000 -0.382684
v -0.707107 -1.000000 -0.707107
v -0.707107 1.000000 -0.707107
v -0.382683 -1.000000 -0.923880
v -0.382683 1.000000 -0.923880
v 0.000000 1.000000 -0.000000
v 0.000000 -1.000000 0.000000
vt 0.833438 1.000000
vt 0.791758 1.000000
vt 0.791758 -0.000000
vt 0.750078 1.000000
vt 0.750078 -0.000000
vt 0.708398 1.000000
vt 0.708398 -0.000000
vt 0.666719 1.000000
vt 0.666719 -0.000000
vt 0.625039 1.000000
vt 0.625039 -0.000000
vt 0.583359 1.000000
vt 0.583359 -0.000000
vt 0.541680 1.000000
vt 0.541680 -0.000000
vt 0.500000 1.000000
vt 0.500000 0.000000
vt 0.458320 1.000000
vt 0.458320 0.000000
vt 0.416641 1.000000
vt 0.416641 0.000000
vt 0.374961 1.000000
vt 0.374961 0.000000
vt 0.333281 1.000000
vt 0.333281 0.000000
vt 0.291602 1.000000
vt 0.291602 -0.000000
vt 0.249922 1.000000
vt 0.249922 -0.000000
vt 0.208242 1.000000
vt 0.208242 -0.000000
vt 0.166562 1.000000
vt 0.166563 -0.000000
vt 0.833438 -0.000000
vt 0.598662 0.585405
vt 0.595461 0.609532
vt 0.556617 0.585405
vt 0.540528 0.527157
vt 0.556617 0.522358
vt 0.526887 0.629986
vt 0.517773 0.609532
vt 0.586347 0.629986
vt 0.572707 0.643653
vt 0.572707 0.527157
vt 0.586347 0.540824
vt 0.514573 0.585405
vt 0.517773 0.561278
vt 0.595461 0.561278
vt 0.526887 0.540824
vt 0.540528 0.643653
vt 0.556617 0.648452
vt 0.307928 0.388848
vt 0.365277 0.332522
vt 0.566001 0.449659
vt 0.573734 0.620088
vt 0.467474 0.608941
vt 0.818155 0.380028
vt 0.842134 0.444885
vt 0.453184 0.294029
vt 0.558267 0.279229
vt 0.376214 0.573545
vt 0.313847 0.519289
vt 0.824074 0.510469
vt 0.766725 0.566795
vt 0.289868 0.454432
vt 0.664527 0.290376
vt 0.678817 0.605288
vt 0.755787 0.325771
vn 0.000000 0.665700 -0.746200
vn 0.285500 0.665700 -0.689400
vn 0.285500 -0.665700 -0.689400
vn 0.527600 0.665700 -0.527600
vn 0.527600 -0.665700 -0.527600
vn 0.689400 0.665700 -0.285500
vn 0.689400 -0.665700 -0.285500
vn 0.746200 0.665700 0.000000
vn 0.746200 -0.665700 0.000000
vn 0.689400 0.665700 0.285500
vn 0.689400 -0.665700 0.285500
vn 0.527600 0.665700 0.527600
vn 0.527600 -0.665700 0.527600
vn 0.285500 0.665700 0.689400
vn 0.285500 -0.665700 0.689400
vn 0.000000 0.665700 0.746200
vn 0.000000 -0.665700 0.746200
vn -0.285500 0.665700 0.689400
vn -0.285500 -0.665700 0.689400
vn -0.527600 0.665700 0.527600
vn -0.527600 -0.665700 0.527600
vn -0.689400 0.665700 0.285500
vn -0.689400 -0.665700 0.285500
vn -0.746200 0.665700 0.000000
vn -0.746200 -0.665700 0.000000
vn -0.689400 0.665700 -0.285500
vn -0.689400 -0.665700 -0.285500
vn -0.527600 0.665700 -0.527600
vn -0.527600 -0.665700 -0.527600
vn -0.285500 0.665700 -0.689400
vn -0.285500 -0.665700 -0.689400
vn 0.000000 -0.665700 -0.746200
vn 0.000000 1.000000 0.000000
vn 0.000000 -1.000000 0.000000
usemtl Material.001
s 1
f 2/1/1 4/2/2 3/3/3
f 4/2/2 6/4/4 5/5/5
f 6/4/4 8/6/6 7/7/7
f 8/6/6 10/8/8 9/9/9
f 10/8/8 12/10/10 11/11/11
f 12/10/10 14/12/12 13/13/13
f 14/12/12 16/14/14 15/15/15
f 16/14/14 18/16/16 17/17/17
f 18/16/16 20/18/18 19/19/19
f 20/18/18 22/20/20 21/21/21
f 22/20/20 24/22/22 23/23/23
f 24/22/22 26/24/24 25/25/25
f 26/24/24 28/26/26 27/27/27
f 28/26/26 30/28/28 29/29/29
f 30/28/28 32/30/30 31/31/31
f 32/30/30 2/32/1 1/33/32
f 1/34/32 2/1/1 3/3/3
f 3/3/3 4/2/2 5/5/5
f 5/5/5 6/4/4 7/7/7
f 7/7/7 8/6/6 9/9/9
f 9/9/9 10/8/8 11/11/11
f 11/11/11 12/10/10 13/13/13
f 13/13/13 14/12/12 15/15/15
f 15/15/15 16/14/14 17/17/17
f 17/17/17 18/16/16 19/19/19
f 19/19/19 20/18/18 21/21/21
f 21/21/21 22/20/20 23/23/23
f 23/23/23 24/22/22 25/25/25
f 25/25/25 26/24/24 27/27/27
f 27/27/27 28/26/26 29/29/29
f 29/29/29 30/28/28 31/31/31
f 31/31/31 32/30/30 1/33/32
f 10/35/8 8/36/6 33/37/33
f 20/38/18 18/39/16 33/37/33
f 30/40/28 28/41/26 33/37/33
f 6/42/4 4/43/2 33/37/33
f 16/44/14 14/45/12 33/37/33
f 26/46/24 24/47/22 33/37/33
f 12/48/10 10/35/8 33/37/33
f 22/49/20 20/38/18 33/37/33
f 32/50/30 30/40/28 33/37/33
f 8/36/6 6/42/4 33/37/33
f 18/39/16 16/44/14 33/37/33
f 28/41/26 26/46/24 33/37/33
f 4/43/2 2/51/1 33/37/33
f 14/45/12 12/48/10 33/37/33
f 24/47/22 22/49/20 33/37/33
f 2/51/1 32/50/30 33/37/33
f 27/52/27 29/53/29 34/54/34
f 17/55/17 19/56/19 34/54/34
f 7/57/7 9/58/9 34/54/34
f 31/59/31 1/60/32 34/54/34
f 21/61/21 23/62/23 34/54/34
f 11/63/11 13/64/13 34/54/34
f 25/65/25 27/52/27 34/54/34
f 1/60/32 3/66/3 34/54/34
f 15/67/15 17/55/17 34/54/34
f 5/68/5 7/57/7 34/54/34
f 29/53/29 31/59/31 34/54/34
f 19/56/19 21/61/21 34/54/34
f 9/58/9 11/63/11 34/54/34
f 23/62/23 25/65/25 34/54/34
f 13/64/13 15/67/15 34/54/34
f 3/66/3 5/68/5 34/54/34
